SplineFontDB: 3.0
FontName: Judson
FullName: Judson
FamilyName: Judson
Weight: Medium
Copyright: Copyright (c) 2010, 2011, 2013 by Daniel Johnson. Released under the terms of the SIL Open Font License.
Version: 20130906
ItalicAngle: 0
UnderlinePosition: -204
UnderlineWidth: 102
Ascent: 1638
Descent: 410
LayerCount: 2
Layer: 0 0 "Back"  1
Layer: 1 1 "Fore"  0
XUID: [1021 338 342 29359]
FSType: 0
OS2Version: 2
OS2_WeightWidthSlopeOnly: 0
OS2_UseTypoMetrics: 1
CreationTime: 1278388800
ModificationTime: 1378425600
PfmFamily: 17
TTFWeight: 500
TTFWidth: 5
LineGap: 0
VLineGap: 0
Panose: 2 0 6 3 0 0 0 0 0 0
OS2TypoAscent: 1860
OS2TypoAOffset: 0
OS2TypoDescent: -522
OS2TypoDOffset: 0
OS2TypoLinegap: 0
OS2WinAscent: 1860
OS2WinAOffset: 0
OS2WinDescent: 522
OS2WinDOffset: 0
HheadAscent: 1860
HheadAOffset: 0
HheadDescent: -522
HheadDOffset: 0
OS2SubXSize: 1331
OS2SubYSize: 1432
OS2SubXOff: 0
OS2SubYOff: 287
OS2SupXSize: 1331
OS2SupYSize: 1432
OS2SupXOff: 0
OS2SupYOff: 981
OS2StrikeYSize: 100
OS2StrikeYPos: 528
OS2Vendor: 'PfEd'
OS2CodePages: 00000093.00000000
OS2UnicodeRanges: a00000ff.5000000b.00000000.00000000
Lookup: 4 0 0 "'ccmp' Glyph Composition"  {"'ccmp' Glyph Composition subtable"  } ['ccmp' ('DFLT' <'dflt' > 'grek' <'dflt' > 'latn' <'ENG ' 'FOS ' 'ISL ' 'ISM ' 'LSM ' 'NSM ' 'SKS ' 'SVE ' 'dflt' > ) ]
Lookup: 1 0 0 "'ss09' D with stroke through bowl"  {"'ss09' D with stroke through bowl subtable"  } ['ss09' ('DFLT' <'dflt' > 'latn' <'dflt' > ) ]
Lookup: 1 0 0 "'ss08' Z with top-hook"  {"'ss08' Z with top-hook subtable"  } ['ss08' ('DFLT' <'dflt' > 'latn' <'dflt' > ) ]
Lookup: 1 0 0 "'ss06' T with right-hook"  {"'ss06' T with right-hook subtable"  } ['ss06' ('DFLT' <'dflt' > 'latn' <'dflt' > ) ]
Lookup: 1 0 0 "'ss07' Reversed-Sigma Ezh"  {"'ss07' Reversed-Sigma Ezh subtable"  } ['ss07' ('DFLT' <'dflt' > 'latn' <'dflt' > ) ]
Lookup: 1 0 0 "'locl' Sami Eng"  {"'locl' Sami Eng subtable"  } ['locl' ('DFLT' <'dflt' > 'latn' <'ISM ' 'LSM ' 'NSM ' 'SKS ' > ) ]

StartChar: .notdef
Encoding: 65536 -1 0
Width: 1024
Flags: MW
LayerCount: 2
Fore
SplineSet
102 0 m 1,0,-1
 102 1092 l 1,1,-1
 922 1092 l 1,2,-1
 922 0 l 1,3,-1
 102 0 l 1,0,-1
205 102 m 1,4,-1
 819 102 l 1,5,-1
 819 989 l 1,6,-1
 205 989 l 1,7,-1
 205 102 l 1,4,-1
EndSplineSet
Validated: 1
EndChar

StartChar: exclam
Encoding: 33 33 2
Width: 481
Flags: MW
LayerCount: 2
Fore
SplineSet
157 17 m 128,-1,1
 119 54 119 54 119 103.5 c 128,-1,2
 119 153 119 153 152.5 193 c 128,-1,3
 186 233 186 233 236.5 233 c 128,-1,4
 287 233 287 233 326 197 c 128,-1,5
 365 161 365 161 365 111.5 c 128,-1,6
 365 62 365 62 330.5 21 c 128,-1,7
 296 -20 296 -20 245.5 -20 c 128,-1,0
 195 -20 195 -20 157 17 c 128,-1,1
240 381 m 128,-1,9
 210 381 210 381 193 520 c 0,10,11
 187 562 187 562 163 843 c 128,-1,12
 139 1124 139 1124 139 1183.5 c 128,-1,13
 139 1243 139 1243 167.5 1266.5 c 128,-1,14
 196 1290 196 1290 240 1290 c 128,-1,15
 284 1290 284 1290 312 1266.5 c 128,-1,16
 340 1243 340 1243 340 1183.5 c 128,-1,17
 340 1124 340 1124 316 840 c 128,-1,18
 292 556 292 556 287 520 c 0,19,8
 270 381 270 381 240 381 c 128,-1,9
EndSplineSet
Validated: 1
EndChar

StartChar: quotedbl
Encoding: 34 34 3
Width: 679
Flags: MW
LayerCount: 2
Fore
SplineSet
176 1362 m 128,-1,1
 268 1362 268 1362 268 1270 c 0,2,3
 268 1217 268 1217 238.5 1026.5 c 128,-1,4
 209 836 209 836 176.5 836 c 128,-1,5
 144 836 144 836 113 1028 c 1,6,7
 84 1238 84 1238 84 1270 c 0,8,0
 84 1362 84 1362 176 1362 c 128,-1,1
504 1362 m 128,-1,10
 596 1362 596 1362 596 1270 c 0,11,12
 596 1224 596 1224 566 1030 c 128,-1,13
 536 836 536 836 503.5 836 c 128,-1,14
 471 836 471 836 440 1028 c 1,15,16
 412 1231 412 1231 412 1270 c 0,17,9
 412 1362 412 1362 504 1362 c 128,-1,10
EndSplineSet
Validated: 1
EndChar

StartChar: numbersign
Encoding: 35 35 4
Width: 995
Flags: MW
LayerCount: 2
Fore
SplineSet
897 471 m 1,0,-1
 897 401 l 1,1,-1
 662 401 l 1,2,-1
 606 0 l 1,3,-1
 535 0 l 1,4,-1
 590 401 l 1,5,-1
 334 401 l 1,6,-1
 279 0 l 1,7,-1
 207 0 l 1,8,-1
 262 401 l 1,9,-1
 68 401 l 1,10,-1
 68 471 l 1,11,-1
 272 471 l 1,12,-1
 309 729 l 1,13,-1
 98 729 l 1,14,-1
 98 799 l 1,15,-1
 319 799 l 1,16,-1
 375 1198 l 1,17,-1
 446 1198 l 1,18,-1
 391 799 l 1,19,-1
 647 799 l 1,20,-1
 702 1198 l 1,21,-1
 774 1198 l 1,22,-1
 719 799 l 1,23,-1
 928 799 l 1,24,-1
 928 729 l 1,25,-1
 709 729 l 1,26,-1
 672 471 l 1,27,-1
 897 471 l 1,0,-1
344 471 m 1,28,-1
 600 471 l 1,29,-1
 637 729 l 1,30,-1
 381 729 l 1,31,-1
 344 471 l 1,28,-1
EndSplineSet
Validated: 1
EndChar

StartChar: dollar
Encoding: 36 36 5
Width: 931
Flags: MW
LayerCount: 2
Fore
SplineSet
430 -18 m 1,0,1
 248 -5 248 -5 100 94 c 1,2,-1
 100 285 l 1,3,-1
 145 285 l 1,4,5
 186 70 186 70 430 51 c 1,6,-1
 430 524 l 1,7,8
 291 606 291 606 235 653 c 0,9,10
 102 765 102 765 102 893.5 c 128,-1,11
 102 1022 102 1022 199.5 1118.5 c 128,-1,12
 297 1215 297 1215 430 1219 c 1,13,-1
 430 1270 l 1,14,-1
 492 1270 l 1,15,-1
 492 1217 l 1,16,17
 608 1204 608 1204 710 1140 c 1,18,19
 736 1126 736 1126 760 1106 c 1,20,-1
 760 938 l 1,21,-1
 715 938 l 1,22,23
 704 1021 704 1021 648 1078.5 c 128,-1,24
 592 1136 592 1136 492 1147 c 1,25,-1
 492 723 l 1,26,27
 649 635 649 635 712 585 c 0,28,29
 868 461 868 461 868 303 c 0,30,31
 868 147 868 147 750 61 c 0,32,33
 642 -18 642 -18 492 -20 c 1,34,-1
 492 -74 l 1,35,-1
 430 -74 l 1,36,-1
 430 -18 l 1,0,1
430 760 m 1,37,-1
 430 1149 l 1,38,39
 372 1146 372 1146 330 1114 c 0,40,41
 256 1057 256 1057 256 980.5 c 128,-1,42
 256 904 256 904 300.5 857.5 c 128,-1,43
 345 811 345 811 430 760 c 1,37,-1
492 489 m 1,44,-1
 492 49 l 1,45,46
 590 52 590 52 645 101 c 128,-1,47
 700 150 700 150 700 246 c 0,48,49
 700 330 700 330 636 389 c 0,50,51
 584 438 584 438 492 489 c 1,44,-1
EndSplineSet
Validated: 1
EndChar

StartChar: percent
Encoding: 37 37 6
Width: 1114
Flags: MW
LayerCount: 2
Fore
SplineSet
944 1157 m 1,0,-1
 254 41 l 1,1,-1
 172 41 l 1,2,-1
 862 1157 l 1,3,-1
 944 1157 l 1,0,-1
188 954 m 0,4,5
 188 886 188 886 218 830 c 0,6,7
 246 774 246 774 282 774 c 128,-1,8
 318 774 318 774 347.5 830 c 128,-1,9
 377 886 377 886 377 954 c 128,-1,10
 377 1022 377 1022 347.5 1078.5 c 128,-1,11
 318 1135 318 1135 283 1135 c 128,-1,12
 248 1135 248 1135 218 1079 c 128,-1,13
 188 1023 188 1023 188 954 c 0,4,5
63 954 m 128,-1,15
 63 1058 63 1058 129.5 1131 c 128,-1,16
 196 1204 196 1204 283 1204 c 128,-1,17
 370 1204 370 1204 436 1131 c 128,-1,18
 502 1058 502 1058 502 954 c 128,-1,19
 502 850 502 850 436 777.5 c 128,-1,20
 370 705 370 705 283 705 c 128,-1,21
 196 705 196 705 129.5 777.5 c 128,-1,14
 63 850 63 850 63 954 c 128,-1,15
737 244 m 128,-1,23
 737 175 737 175 766.5 119 c 128,-1,24
 796 63 796 63 831 63 c 128,-1,25
 866 63 866 63 896 119 c 128,-1,26
 926 175 926 175 926 244 c 0,27,28
 926 312 926 312 896 368 c 0,29,30
 868 424 868 424 832 424 c 128,-1,31
 796 424 796 424 766.5 368.5 c 128,-1,22
 737 313 737 313 737 244 c 128,-1,23
612 244 m 128,-1,33
 612 348 612 348 678 421 c 128,-1,34
 744 494 744 494 831 494 c 128,-1,35
 918 494 918 494 984.5 421 c 128,-1,36
 1051 348 1051 348 1051 244 c 128,-1,37
 1051 140 1051 140 984.5 67 c 128,-1,38
 918 -6 918 -6 831 -6 c 128,-1,39
 744 -6 744 -6 678 67 c 128,-1,32
 612 140 612 140 612 244 c 128,-1,33
EndSplineSet
Validated: 1
EndChar

StartChar: ampersand
Encoding: 38 38 7
Width: 1239
Flags: MW
LayerCount: 2
Fore
SplineSet
656.5 1092 m 128,-1,1
 631 1147 631 1147 575 1147 c 128,-1,2
 519 1147 519 1147 498 1101 c 128,-1,3
 477 1055 477 1055 477 962.5 c 128,-1,4
 477 870 477 870 526 731 c 1,5,6
 682 840 682 840 682 961 c 0,7,0
 682 1037 682 1037 656.5 1092 c 128,-1,1
461 -20 m 0,8,9
 41 -20 41 -20 41 260 c 0,10,11
 42 398 42 398 192 514 c 0,12,13
 265 571 265 571 381 639 c 1,14,15
 309 840 309 840 309 971 c 0,16,17
 309 1219 309 1219 543 1219 c 0,18,19
 644 1219 644 1219 706 1148.5 c 128,-1,20
 768 1078 768 1078 768 982 c 128,-1,21
 768 886 768 886 711.5 808.5 c 128,-1,22
 655 731 655 731 555 655 c 1,23,24
 649 422 649 422 791 238 c 1,25,26
 830 302 830 302 846 341 c 128,-1,27
 862 380 862 380 868.5 395 c 128,-1,28
 875 410 875 410 885 438 c 128,-1,29
 895 466 895 466 899.5 478 c 128,-1,30
 904 490 904 490 913.5 520 c 128,-1,31
 923 550 923 550 925.5 557.5 c 128,-1,32
 928 565 928 565 937.5 596.5 c 128,-1,33
 947 628 947 628 948 631 c 1,34,35
 928 664 928 664 823 664 c 1,36,-1
 823 707 l 1,37,-1
 1159 707 l 1,38,-1
 1159 664 l 1,39,40
 1042 664 1042 664 1030 625 c 0,41,42
 935 322 935 322 834 184 c 1,43,44
 921 90 921 90 988 90 c 128,-1,45
 1055 90 1055 90 1086 105 c 128,-1,46
 1117 120 1117 120 1149 166 c 1,47,-1
 1174 145 l 1,48,49
 1128 23 1128 23 1045 -7 c 0,50,51
 1009 -20 1009 -20 963 -20 c 0,52,53
 846 -20 846 -20 731 74 c 1,54,55
 612 -20 612 -20 461 -20 c 0,8,9
684 117 m 1,56,57
 533 268 533 268 416 551 c 1,58,59
 334 488 334 488 290 431 c 128,-1,60
 246 374 246 374 246 307 c 0,61,62
 246 66 246 66 537 66 c 0,63,64
 618 66 618 66 684 117 c 1,56,57
EndSplineSet
Validated: 1
EndChar

StartChar: quotesingle
Encoding: 39 39 8
Width: 352
Flags: MW
LayerCount: 2
Fore
SplineSet
176 1362 m 128,-1,1
 268 1362 268 1362 268 1270 c 0,2,3
 268 1217 268 1217 238.5 1026.5 c 128,-1,4
 209 836 209 836 176.5 836 c 128,-1,5
 144 836 144 836 113 1028 c 1,6,7
 84 1238 84 1238 84 1270 c 0,8,0
 84 1362 84 1362 176 1362 c 128,-1,1
EndSplineSet
Validated: 1
EndChar

StartChar: parenleft
Encoding: 40 40 9
Width: 497
Flags: MW
LayerCount: 2
Fore
SplineSet
412 -80 m 0,0,1
 412 -102 412 -102 395 -102 c 128,-1,2
 378 -102 378 -102 353 -71.5 c 128,-1,3
 328 -41 328 -41 298 2 c 128,-1,4
 268 45 268 45 226.5 119.5 c 128,-1,5
 185 194 185 194 155 269.5 c 128,-1,6
 125 345 125 345 103.5 445.5 c 128,-1,7
 82 546 82 546 82 645 c 128,-1,8
 82 744 82 744 104 844 c 0,9,10
 126 944 126 944 155 1020 c 0,11,12
 184 1096 184 1096 226 1170 c 0,13,14
 290 1285 290 1285 360 1370 c 0,15,16
 378 1393 378 1393 389 1393 c 0,17,18
 412 1393 412 1393 412 1370 c 0,19,20
 412 1361 412 1361 391 1314 c 128,-1,21
 370 1267 370 1267 364 1252.5 c 128,-1,22
 358 1238 358 1238 342 1197.5 c 128,-1,23
 326 1157 326 1157 319 1130.5 c 128,-1,24
 312 1104 312 1104 299 1059 c 128,-1,25
 286 1014 286 1014 280 973 c 128,-1,26
 274 932 274 932 267 879 c 0,27,28
 254 781 254 781 254 672 c 128,-1,29
 254 563 254 563 259 490.5 c 128,-1,30
 264 418 264 418 275.5 354 c 128,-1,31
 287 290 287 290 296 246 c 128,-1,32
 305 202 305 202 324.5 147 c 128,-1,33
 344 92 344 92 352 71 c 128,-1,34
 360 50 360 50 382 -2 c 0,35,36
 412 -70 412 -70 412 -80 c 0,0,1
EndSplineSet
Validated: 1
EndChar

StartChar: parenright
Encoding: 41 41 10
Width: 497
Flags: MW
LayerCount: 2
Fore
SplineSet
86 1370 m 0,0,1
 86 1393 86 1393 102 1393 c 128,-1,2
 118 1393 118 1393 143.5 1361.5 c 128,-1,3
 169 1330 169 1330 199 1287.5 c 128,-1,4
 229 1245 229 1245 271 1170.5 c 128,-1,5
 313 1096 313 1096 343 1020.5 c 128,-1,6
 373 945 373 945 394.5 844.5 c 128,-1,7
 416 744 416 744 416 645 c 128,-1,8
 416 546 416 546 394.5 445.5 c 128,-1,9
 373 345 373 345 343 269.5 c 128,-1,10
 313 194 313 194 271 120 c 0,11,12
 210 12 210 12 137 -80 c 0,13,14
 119 -102 119 -102 102.5 -102 c 128,-1,15
 86 -102 86 -102 86 -80 c 0,16,17
 86 -71 86 -71 110.5 -15 c 128,-1,18
 135 41 135 41 139.5 52.5 c 128,-1,19
 144 64 144 64 163.5 116 c 128,-1,20
 183 168 183 168 189.5 196 c 128,-1,21
 196 224 196 224 210 282 c 128,-1,22
 224 340 224 340 229 388 c 0,23,24
 244 534 244 534 244 630.5 c 128,-1,25
 244 727 244 727 239.5 799.5 c 128,-1,26
 235 872 235 872 223 936.5 c 128,-1,27
 211 1001 211 1001 202.5 1044.5 c 128,-1,28
 194 1088 194 1088 174 1144 c 0,29,30
 154 1200 154 1200 146 1220 c 0,31,32
 119 1293 119 1293 90 1352 c 1,33,34
 86 1364 86 1364 86 1370 c 0,0,1
EndSplineSet
Validated: 1
EndChar

StartChar: asterisk
Encoding: 42 42 11
Width: 737
Flags: MW
LayerCount: 2
Fore
SplineSet
333.5 824 m 128,-1,1
 325 773 325 773 309.5 753 c 128,-1,2
 294 733 294 733 259.5 733 c 128,-1,3
 225 733 225 733 191.5 763 c 128,-1,4
 158 793 158 793 158 820.5 c 128,-1,5
 158 848 158 848 170 865.5 c 128,-1,6
 182 883 182 883 245.5 913.5 c 128,-1,7
 309 944 309 944 332 946 c 1,8,9
 313 962 313 962 313 974.5 c 128,-1,10
 313 987 313 987 314 991 c 128,-1,11
 315 995 315 995 315 997 c 1,12,13
 298 987 298 987 242 975 c 128,-1,14
 186 963 186 963 155 963 c 128,-1,15
 124 963 124 963 107 984 c 128,-1,16
 90 1005 90 1005 90 1040 c 128,-1,17
 90 1075 90 1075 115 1108 c 128,-1,18
 140 1141 140 1141 172 1141 c 0,19,20
 177 1141 177 1141 195 1136 c 128,-1,21
 213 1131 213 1131 261 1080.5 c 128,-1,22
 309 1030 309 1030 317 1008 c 1,23,24
 330 1034 330 1034 362 1038 c 1,25,26
 345 1050 345 1050 310.5 1114 c 128,-1,27
 276 1178 276 1178 276 1204.5 c 128,-1,28
 276 1231 276 1231 302 1250.5 c 128,-1,29
 328 1270 328 1270 366.5 1270 c 128,-1,30
 405 1270 405 1270 431 1250.5 c 128,-1,31
 457 1231 457 1231 457 1204.5 c 128,-1,32
 457 1178 457 1178 422.5 1114 c 128,-1,33
 388 1050 388 1050 371 1038 c 1,34,35
 403 1035 403 1035 416 1006 c 1,36,37
 421 1025 421 1025 472 1078 c 128,-1,38
 523 1131 523 1131 541 1136 c 128,-1,39
 559 1141 559 1141 565 1141 c 0,40,41
 596 1141 596 1141 620.5 1109 c 128,-1,42
 645 1077 645 1077 645 1042 c 128,-1,43
 645 1007 645 1007 628.5 985 c 128,-1,44
 612 963 612 963 580 963 c 128,-1,45
 548 963 548 963 489.5 975 c 128,-1,46
 431 987 431 987 418 997 c 1,47,48
 420 993 420 993 420 979 c 128,-1,49
 420 965 420 965 401 946 c 1,50,51
 424 946 424 946 489.5 914.5 c 128,-1,52
 555 883 555 883 567.5 865 c 128,-1,53
 580 847 580 847 580 821 c 128,-1,54
 580 795 580 795 544.5 764 c 128,-1,55
 509 733 509 733 473.5 733 c 128,-1,56
 438 733 438 733 424 753 c 128,-1,57
 410 773 410 773 401.5 826.5 c 128,-1,58
 393 880 393 880 393 908 c 128,-1,59
 393 936 393 936 395 940 c 1,60,61
 384 932 384 932 368 932 c 128,-1,62
 352 932 352 932 340 938 c 1,63,64
 342 932 342 932 342 903.5 c 128,-1,0
 342 875 342 875 333.5 824 c 128,-1,1
EndSplineSet
Validated: 1
EndChar

StartChar: plus
Encoding: 43 43 12
Width: 827
Flags: MW
LayerCount: 2
Fore
SplineSet
459 606 m 1,0,-1
 459 317 l 1,1,-1
 369 317 l 1,2,-1
 369 606 l 1,3,-1
 80 606 l 1,4,-1
 80 696 l 1,5,-1
 369 696 l 1,6,-1
 369 985 l 1,7,-1
 459 985 l 1,8,-1
 459 696 l 1,9,-1
 748 696 l 1,10,-1
 748 606 l 1,11,-1
 459 606 l 1,0,-1
EndSplineSet
Validated: 1
EndChar

StartChar: comma
Encoding: 44 44 13
Width: 471
Flags: MW
LayerCount: 2
Fore
SplineSet
247 1 m 128,-1,1
 229 -12 229 -12 195 -12 c 128,-1,2
 161 -12 161 -12 131.5 15 c 128,-1,3
 102 42 102 42 102 92.5 c 128,-1,4
 102 143 102 143 141 174 c 128,-1,5
 180 205 180 205 219 205 c 0,6,7
 292 205 292 205 338.5 140.5 c 128,-1,8
 385 76 385 76 385 8.5 c 128,-1,9
 385 -59 385 -59 364 -100 c 128,-1,10
 343 -141 343 -141 315.5 -166.5 c 128,-1,11
 288 -192 288 -192 248 -214 c 0,12,13
 190 -246 190 -246 131 -264 c 1,14,-1
 131 -207 l 1,15,16
 183 -200 183 -200 237 -150 c 128,-1,17
 291 -100 291 -100 291 -50.5 c 128,-1,18
 291 -1 291 -1 287 6.5 c 128,-1,19
 283 14 283 14 274 14 c 128,-1,0
 265 14 265 14 247 1 c 128,-1,1
EndSplineSet
Validated: 1
EndChar

StartChar: hyphen
Encoding: 45 45 14
Width: 794
Flags: W
HStem: 488.4 90<127 668>
VStem: 127 541<488.4 578.4>
LayerCount: 2
Fore
SplineSet
127 578.4 m 5,0,-1
 668 578.4 l 5,1,-1
 668 488.4 l 5,2,-1
 127 488.4 l 5,3,-1
 127 578.4 l 5,0,-1
EndSplineSet
EndChar

StartChar: period
Encoding: 46 46 15
Width: 450
Flags: MW
LayerCount: 2
Fore
SplineSet
140 17 m 128,-1,1
 102 54 102 54 102 103.5 c 128,-1,2
 102 153 102 153 135.5 193 c 128,-1,3
 169 233 169 233 219.5 233 c 128,-1,4
 270 233 270 233 309 197 c 128,-1,5
 348 161 348 161 348 111.5 c 128,-1,6
 348 62 348 62 313.5 21 c 128,-1,7
 279 -20 279 -20 228.5 -20 c 128,-1,0
 178 -20 178 -20 140 17 c 128,-1,1
EndSplineSet
Validated: 1
EndChar

StartChar: slash
Encoding: 47 47 16
Width: 937
Flags: MW
LayerCount: 2
Fore
SplineSet
41 -20 m 1,0,-1
 838 1253 l 1,1,-1
 897 1217 l 1,2,-1
 100 -57 l 1,3,-1
 41 -20 l 1,0,-1
EndSplineSet
Validated: 1
EndChar

StartChar: zero
Encoding: 48 48 17
Width: 1003
VWidth: 0
Flags: MW
LayerCount: 2
Fore
SplineSet
254 598 m 128,-1,1
 254 457 254 457 284.5 330.5 c 128,-1,2
 315 204 315 204 373 123.5 c 128,-1,3
 431 43 431 43 502 43 c 128,-1,4
 573 43 573 43 631 123.5 c 128,-1,5
 689 204 689 204 719.5 330.5 c 128,-1,6
 750 457 750 457 750 598 c 128,-1,7
 750 739 750 739 719.5 866 c 128,-1,8
 689 993 689 993 631 1074 c 128,-1,9
 573 1155 573 1155 502 1155 c 128,-1,10
 431 1155 431 1155 373 1074 c 128,-1,11
 315 993 315 993 284.5 866 c 128,-1,0
 254 739 254 739 254 598 c 128,-1,1
99 362 m 128,-1,13
 70 473 70 473 70 619.5 c 128,-1,14
 70 766 70 766 118.5 905 c 128,-1,15
 167 1044 167 1044 267 1131.5 c 128,-1,16
 367 1219 367 1219 502 1219 c 0,17,18
 505 1219 l 0,19,20
 638 1219 638 1219 737 1132 c 0,21,22
 934 960 934 960 934 598 c 0,23,24
 934 346 934 346 823 166 c 0,25,26
 770 80 770 80 687 30 c 128,-1,27
 604 -20 604 -20 502 -20 c 128,-1,28
 400 -20 400 -20 317 30 c 128,-1,29
 234 80 234 80 181 165.5 c 128,-1,12
 128 251 128 251 99 362 c 128,-1,13
EndSplineSet
Validated: 1
EndChar

StartChar: one
Encoding: 49 49 18
Width: 1003
VWidth: 0
Flags: MW
LayerCount: 2
Fore
SplineSet
659 1198 m 1,0,-1
 659 125 l 2,1,2
 659 65 659 65 834 47 c 0,3,4
 874 43 874 43 911 43 c 1,5,-1
 911 0 l 1,6,-1
 219 0 l 1,7,-1
 219 43 l 1,8,9
 223 43 223 43 227 43 c 0,10,11
 384 43 384 43 444 84 c 0,12,13
 470 102 470 102 471 125 c 2,14,-1
 471 909 l 1,15,16
 390 860 390 860 254 760 c 1,17,-1
 240 795 l 1,18,-1
 604 1198 l 1,19,-1
 659 1198 l 1,0,-1
EndSplineSet
Validated: 1
EndChar

StartChar: two
Encoding: 50 50 19
Width: 1003
VWidth: 0
Flags: MW
LayerCount: 2
Fore
SplineSet
82 0 m 1,0,1
 82 38 82 38 234 182 c 0,2,3
 666 594 666 594 666 848 c 0,4,5
 666 934 666 934 618 1012 c 0,6,7
 566 1096 566 1096 472.5 1096 c 128,-1,8
 379 1096 379 1096 316 1075.5 c 128,-1,9
 253 1055 253 1055 220.5 1026.5 c 128,-1,10
 188 998 188 998 168 969 c 128,-1,11
 148 940 148 940 137 919.5 c 128,-1,12
 126 899 126 899 119 899 c 0,13,14
 102 899 102 899 102 918 c 128,-1,15
 102 937 102 937 113.5 969.5 c 128,-1,16
 125 1002 125 1002 154 1045.5 c 128,-1,17
 183 1089 183 1089 224.5 1127.5 c 128,-1,18
 266 1166 266 1166 334.5 1192.5 c 128,-1,19
 403 1219 403 1219 493 1219 c 0,20,21
 583 1218 583 1218 658 1190 c 0,22,23
 734 1162 734 1162 778 1113 c 0,24,25
 866 1016 866 1016 866 874 c 0,26,27
 866 806 866 806 810.5 711.5 c 128,-1,28
 755 617 755 617 676 528 c 128,-1,29
 597 439 597 439 518 358.5 c 128,-1,30
 439 278 439 278 383.5 218.5 c 128,-1,31
 328 159 328 159 328 143 c 1,32,-1
 760 143 l 1,33,34
 789 155 789 155 825.5 189 c 128,-1,35
 862 223 862 223 881 272 c 1,36,-1
 922 272 l 1,37,-1
 844 0 l 1,38,-1
 82 0 l 1,0,1
EndSplineSet
Validated: 1
EndChar

StartChar: three
Encoding: 51 51 20
Width: 1003
VWidth: 0
Flags: MW
LayerCount: 2
Fore
SplineSet
535 606 m 1,0,-1
 434 596 l 1,1,2
 421 596 421 596 408 605 c 128,-1,3
 395 614 395 614 395 622.5 c 128,-1,4
 395 631 395 631 410 637 c 1,5,6
 506 666 506 666 565 711 c 0,7,8
 674 795 674 795 674 913 c 0,9,10
 674 996 674 996 616.5 1046 c 128,-1,11
 559 1096 559 1096 472.5 1096 c 128,-1,12
 386 1096 386 1096 334 1079.5 c 128,-1,13
 282 1063 282 1063 255.5 1039.5 c 128,-1,14
 229 1016 229 1016 213 992.5 c 128,-1,15
 197 969 197 969 187 952.5 c 128,-1,16
 177 936 177 936 170 936 c 0,17,18
 154 936 154 936 154 954 c 128,-1,19
 154 972 154 972 164.5 1001.5 c 128,-1,20
 175 1031 175 1031 200.5 1069 c 128,-1,21
 226 1107 226 1107 261 1140 c 0,22,23
 345 1219 345 1219 477 1219 c 0,24,25
 674 1219 674 1219 762 1148.5 c 128,-1,26
 850 1078 850 1078 850 940 c 0,27,28
 850 863 850 863 793.5 795.5 c 128,-1,29
 737 728 737 728 651 678 c 1,30,31
 751 653 751 653 828 553.5 c 128,-1,32
 905 454 905 454 905 352 c 0,33,34
 905 142 905 142 782 54 c 0,35,36
 679 -20 679 -20 483 -20 c 0,37,38
 400 -20 400 -20 323.5 0.5 c 128,-1,39
 247 21 247 21 200 49.5 c 128,-1,40
 153 78 153 78 125.5 105 c 128,-1,41
 98 132 98 132 98 147 c 0,42,43
 98 209 98 209 114 233.5 c 128,-1,44
 130 258 130 258 161.5 258 c 128,-1,45
 193 258 193 258 207 235.5 c 128,-1,46
 221 213 221 213 235.5 181.5 c 128,-1,47
 250 150 250 150 272.5 118 c 128,-1,48
 295 86 295 86 346 63.5 c 128,-1,49
 397 41 397 41 466.5 41 c 128,-1,50
 536 41 536 41 584.5 58.5 c 128,-1,51
 633 76 633 76 661 102 c 0,52,53
 688 128 688 128 706 166 c 0,54,55
 734 227 734 227 734 288 c 0,56,57
 734 291 734 291 735 294 c 0,58,59
 735 351 735 351 725 395 c 0,60,61
 715 441 715 441 693.5 490.5 c 128,-1,62
 672 540 672 540 630.5 573 c 128,-1,63
 589 606 589 606 535 606 c 1,0,-1
EndSplineSet
Validated: 1
EndChar

StartChar: four
Encoding: 52 52 21
Width: 1003
VWidth: 0
Flags: MW
LayerCount: 2
Fore
SplineSet
436 43 m 1,0,1
 548 43 548 43 565 84 c 1,2,-1
 565 360 l 1,3,-1
 80 360 l 1,4,-1
 643 1198 l 1,5,-1
 750 1198 l 1,6,-1
 750 422 l 1,7,-1
 915 422 l 1,8,-1
 915 360 l 1,9,-1
 750 360 l 1,10,-1
 750 84 l 1,11,12
 767 43 767 43 879 43 c 1,13,-1
 879 0 l 1,14,-1
 436 0 l 1,15,-1
 436 43 l 1,0,1
565 422 m 1,16,-1
 565 973 l 1,17,-1
 193 422 l 1,18,-1
 565 422 l 1,16,-1
EndSplineSet
Validated: 1
EndChar

StartChar: five
Encoding: 53 53 22
Width: 1003
VWidth: 0
Flags: MW
LayerCount: 2
Fore
SplineSet
291 793 m 1,0,1
 681 793 681 793 826 622 c 0,2,3
 905 529 905 529 905 401 c 0,4,5
 905 269 905 269 867 190 c 128,-1,6
 829 111 829 111 786 71 c 0,7,8
 688 -20 688 -20 508 -20 c 0,9,10
 297 -20 297 -20 163 72 c 0,11,12
 98 117 98 117 98 147 c 0,13,14
 98 209 98 209 114 233.5 c 128,-1,15
 130 258 130 258 160 258 c 128,-1,16
 190 258 190 258 202.5 242 c 128,-1,17
 215 226 215 226 223 202 c 128,-1,18
 231 178 231 178 250 150 c 0,19,20
 268 122 268 122 294 97 c 0,21,22
 354 41 354 41 496 41 c 0,23,24
 497 41 497 41 498 41 c 0,25,26
 646 41 646 41 706 198 c 0,27,28
 735 274 735 274 735 347.5 c 128,-1,29
 735 421 735 421 720.5 471 c 128,-1,30
 706 521 706 521 669 567 c 0,31,32
 632 612 632 612 574 644 c 0,33,34
 447 712 447 712 209 713 c 1,35,-1
 276 1198 l 1,36,-1
 848 1198 l 1,37,-1
 799 1055 l 1,38,-1
 328 1055 l 1,39,-1
 291 793 l 1,0,1
EndSplineSet
Validated: 1
EndChar

StartChar: six
Encoding: 54 54 23
Width: 1003
VWidth: 0
Flags: MW
LayerCount: 2
Fore
SplineSet
305 641 m 1,0,1
 293 555 293 555 293 452 c 128,-1,2
 293 349 293 349 311 267 c 0,3,4
 328 185 328 185 360 138 c 0,5,6
 422 45 422 45 512 45 c 128,-1,7
 602 45 602 45 656.5 144.5 c 128,-1,8
 711 244 711 244 711 401 c 0,9,10
 710 505 710 505 680 569 c 0,11,12
 624 688 624 688 499.5 688 c 128,-1,13
 375 688 375 688 305 641 c 1,0,1
315 709 m 1,14,15
 398 758 398 758 498 758 c 128,-1,16
 598 758 598 758 667 739.5 c 128,-1,17
 736 721 736 721 779 689.5 c 128,-1,18
 822 658 822 658 848 610 c 0,19,20
 894 525 894 525 895 385 c 0,21,22
 895 196 895 196 795 88 c 128,-1,23
 695 -20 695 -20 514 -20 c 0,24,25
 383 -20 383 -20 290 44 c 128,-1,26
 197 108 197 108 153 214.5 c 128,-1,27
 109 321 109 321 109 459 c 128,-1,28
 109 597 109 597 148.5 722 c 128,-1,29
 188 847 188 847 250.5 934.5 c 128,-1,30
 313 1022 313 1022 391 1089 c 0,31,32
 540 1217 540 1217 686 1235 c 1,33,-1
 711 1198 l 1,34,35
 559 1159 559 1159 456.5 1034.5 c 128,-1,36
 354 910 354 910 315 709 c 1,14,15
EndSplineSet
Validated: 1
EndChar

StartChar: seven
Encoding: 55 55 24
Width: 1003
VWidth: 0
Flags: MW
LayerCount: 2
Fore
SplineSet
371 23 m 0,0,1
 371 106 371 106 427 272 c 128,-1,2
 483 438 483 438 550 590 c 0,3,4
 729 997 729 997 729 1055 c 1,5,-1
 281 1055 l 1,6,7
 252 1043 252 1043 215.5 1009 c 128,-1,8
 179 975 179 975 160 926 c 1,9,-1
 119 926 l 1,10,-1
 197 1198 l 1,11,-1
 885 1198 l 1,12,13
 885 1164 885 1164 702 710 c 0,14,15
 634 540 634 540 576 341.5 c 128,-1,16
 518 143 518 143 518 23 c 0,17,18
 518 2 518 2 494 -9 c 128,-1,19
 470 -20 470 -20 442 -20 c 128,-1,20
 414 -20 414 -20 392.5 -9 c 128,-1,21
 371 2 371 2 371 23 c 0,0,1
EndSplineSet
Validated: 1
EndChar

StartChar: eight
Encoding: 56 56 25
Width: 1003
VWidth: 0
Flags: MW
LayerCount: 2
Fore
SplineSet
563 664 m 1,0,1
 735 759 735 759 735 952 c 0,2,3
 735 1047 735 1047 679.5 1100 c 128,-1,4
 624 1153 624 1153 543 1153 c 0,5,6
 317 1153 317 1153 317 938 c 0,7,8
 317 870 317 870 394 799 c 0,9,10
 453 744 453 744 563 664 c 1,0,1
627 616 m 1,11,12
 823 468 823 468 870 356 c 0,13,14
 891 306 891 306 891 252 c 0,15,16
 891 136 891 136 782.5 58 c 128,-1,17
 674 -20 674 -20 496 -20 c 128,-1,18
 318 -20 318 -20 215.5 58.5 c 128,-1,19
 113 137 113 137 113 270 c 0,20,21
 113 435 113 435 274 560 c 0,22,23
 314 592 314 592 362 616 c 1,24,25
 257 698 257 698 197 778.5 c 128,-1,26
 137 859 137 859 137 961.5 c 128,-1,27
 137 1064 137 1064 236 1141.5 c 128,-1,28
 335 1219 335 1219 511 1219 c 128,-1,29
 687 1219 687 1219 779.5 1144 c 128,-1,30
 872 1069 872 1069 872 936 c 0,31,32
 872 740 872 740 627 616 c 1,11,12
426 567 m 1,33,34
 354 525 354 525 302 447 c 128,-1,35
 250 369 250 369 250 267 c 128,-1,36
 250 165 250 165 315.5 105 c 128,-1,37
 381 45 381 45 480.5 45 c 128,-1,38
 580 45 580 45 645.5 105.5 c 128,-1,39
 711 166 711 166 711 266 c 0,40,41
 711 303 711 303 695 327.5 c 128,-1,42
 679 352 679 352 669 366.5 c 128,-1,43
 659 381 659 381 638 400.5 c 128,-1,44
 617 420 617 420 603.5 432.5 c 128,-1,45
 590 445 590 445 562 466 c 0,46,47
 534 486 534 486 519 498 c 0,48,49
 479 528 479 528 426 567 c 1,33,34
EndSplineSet
Validated: 1
EndChar

StartChar: nine
Encoding: 57 57 26
Width: 1003
VWidth: 0
Flags: MW
LayerCount: 2
Fore
SplineSet
698 557 m 1,0,1
 711 650 711 650 711 739 c 0,2,3
 711 951 711 951 648 1052 c 128,-1,4
 585 1153 585 1153 493.5 1153 c 128,-1,5
 402 1153 402 1153 347.5 1053.5 c 128,-1,6
 293 954 293 954 293 797 c 0,7,8
 294 693 294 693 324 629 c 0,9,10
 380 510 380 510 504 510 c 128,-1,11
 628 510 628 510 698 557 c 1,0,1
688 489 m 1,12,13
 605 440 605 440 505.5 440 c 128,-1,14
 406 440 406 440 337 458.5 c 128,-1,15
 268 477 268 477 225 508.5 c 128,-1,16
 182 540 182 540 156 588 c 0,17,18
 110 673 110 673 109 813 c 0,19,20
 109 1002 109 1002 208.5 1110.5 c 128,-1,21
 308 1219 308 1219 489 1219 c 0,22,23
 620 1219 620 1219 713.5 1154.5 c 128,-1,24
 807 1090 807 1090 851 983.5 c 128,-1,25
 895 877 895 877 895 739 c 128,-1,26
 895 601 895 601 855.5 476 c 128,-1,27
 816 351 816 351 753 263.5 c 128,-1,28
 690 176 690 176 612 109 c 0,29,30
 464 -19 464 -19 317 -37 c 1,31,-1
 293 0 l 1,32,33
 444 39 444 39 546.5 163.5 c 128,-1,34
 649 288 649 288 688 489 c 1,12,13
EndSplineSet
Validated: 1
EndChar

StartChar: colon
Encoding: 58 58 27
Width: 499
Flags: MW
LayerCount: 2
Fore
SplineSet
165 692.5 m 128,-1,1
 127 730 127 730 127 779.5 c 128,-1,2
 127 829 127 829 160.5 869 c 128,-1,3
 194 909 194 909 244.5 909 c 128,-1,4
 295 909 295 909 334 872.5 c 128,-1,5
 373 836 373 836 373 786.5 c 128,-1,6
 373 737 373 737 338.5 696 c 128,-1,7
 304 655 304 655 253.5 655 c 128,-1,0
 203 655 203 655 165 692.5 c 128,-1,1
165 17 m 128,-1,9
 127 54 127 54 127 103.5 c 128,-1,10
 127 153 127 153 160.5 193 c 128,-1,11
 194 233 194 233 244.5 233 c 128,-1,12
 295 233 295 233 334 197 c 128,-1,13
 373 161 373 161 373 111.5 c 128,-1,14
 373 62 373 62 338.5 21 c 128,-1,15
 304 -20 304 -20 253.5 -20 c 128,-1,8
 203 -20 203 -20 165 17 c 128,-1,9
EndSplineSet
Validated: 1
EndChar

StartChar: semicolon
Encoding: 59 59 28
Width: 536
Flags: MW
LayerCount: 2
Fore
SplineSet
183 692.5 m 128,-1,1
 145 730 145 730 145 779.5 c 128,-1,2
 145 829 145 829 178.5 869 c 128,-1,3
 212 909 212 909 262.5 909 c 128,-1,4
 313 909 313 909 352 872.5 c 128,-1,5
 391 836 391 836 391 786.5 c 128,-1,6
 391 737 391 737 356.5 696 c 128,-1,7
 322 655 322 655 271.5 655 c 128,-1,0
 221 655 221 655 183 692.5 c 128,-1,1
276 1 m 128,-1,9
 258 -12 258 -12 224 -12 c 128,-1,10
 190 -12 190 -12 160.5 15 c 128,-1,11
 131 42 131 42 131 92.5 c 128,-1,12
 131 143 131 143 170 174 c 128,-1,13
 209 205 209 205 248 205 c 0,14,15
 321 205 321 205 367.5 140.5 c 128,-1,16
 414 76 414 76 414 8.5 c 128,-1,17
 414 -59 414 -59 393 -100 c 0,18,19
 372 -140 372 -140 344 -166 c 0,20,21
 318 -192 318 -192 278 -214 c 0,22,23
 220 -246 220 -246 160 -264 c 1,24,-1
 160 -207 l 1,25,26
 211 -200 211 -200 265 -150 c 128,-1,27
 319 -100 319 -100 319 -50.5 c 128,-1,28
 319 -1 319 -1 315.5 6.5 c 128,-1,29
 312 14 312 14 303 14 c 128,-1,8
 294 14 294 14 276 1 c 128,-1,9
EndSplineSet
Validated: 1
EndChar

StartChar: less
Encoding: 60 60 29
Width: 952
Flags: MW
LayerCount: 2
Fore
SplineSet
61 696 m 1,0,-1
 815 1049 l 1,1,-1
 815 967 l 1,2,-1
 139 651 l 1,3,-1
 815 336 l 1,4,-1
 815 254 l 1,5,-1
 61 606 l 1,6,-1
 61 696 l 1,0,-1
EndSplineSet
Validated: 1
EndChar

StartChar: equal
Encoding: 61 61 30
Width: 991
Flags: MW
LayerCount: 2
Fore
SplineSet
133 573 m 1,0,-1
 858 573 l 1,1,-1
 858 483 l 1,2,-1
 133 483 l 1,3,-1
 133 573 l 1,0,-1
133 819 m 1,4,-1
 858 819 l 1,5,-1
 858 729 l 1,6,-1
 133 729 l 1,7,-1
 133 819 l 1,4,-1
EndSplineSet
Validated: 1
EndChar

StartChar: greater
Encoding: 62 62 31
Width: 952
Flags: MW
LayerCount: 2
Fore
SplineSet
891 606 m 1,0,-1
 137 254 l 1,1,-1
 137 336 l 1,2,-1
 813 651 l 1,3,-1
 137 967 l 1,4,-1
 137 1049 l 1,5,-1
 891 696 l 1,6,-1
 891 606 l 1,0,-1
EndSplineSet
Validated: 1
EndChar

StartChar: question
Encoding: 63 63 32
Width: 806
Flags: MW
LayerCount: 2
Fore
SplineSet
288 17 m 128,-1,1
 250 54 250 54 250 103.5 c 128,-1,2
 250 153 250 153 283.5 193 c 128,-1,3
 317 233 317 233 367.5 233 c 128,-1,4
 418 233 418 233 457 197 c 128,-1,5
 496 161 496 161 496 111.5 c 128,-1,6
 496 62 496 62 461.5 21 c 128,-1,7
 427 -20 427 -20 376.5 -20 c 128,-1,0
 326 -20 326 -20 288 17 c 128,-1,1
342 410 m 0,8,9
 342 526 342 526 418 640 c 0,10,11
 450 688 450 688 482 738 c 0,12,13
 558 856 558 856 558 983 c 0,14,15
 558 1112 558 1112 512 1171 c 0,16,17
 466 1229 466 1229 374.5 1229 c 128,-1,18
 283 1229 283 1229 232.5 1181.5 c 128,-1,19
 182 1134 182 1134 182 1083 c 0,20,21
 182 1058 182 1058 197.5 1031 c 128,-1,22
 213 1004 213 1004 213 977 c 128,-1,23
 213 950 213 950 193.5 930.5 c 128,-1,24
 174 911 174 911 142 911 c 128,-1,25
 110 911 110 911 84.5 937 c 128,-1,26
 59 963 59 963 59 1013 c 128,-1,27
 59 1063 59 1063 78.5 1110 c 128,-1,28
 98 1157 98 1157 136 1198 c 0,29,30
 221 1290 221 1290 383 1290 c 0,31,32
 481 1290 481 1290 554.5 1260 c 128,-1,33
 628 1230 628 1230 666 1181 c 0,34,35
 740 1085 740 1085 741 971 c 0,36,37
 741 863 741 863 652 758 c 0,38,39
 589 684 589 684 517.5 609.5 c 128,-1,40
 446 535 446 535 420.5 491.5 c 128,-1,41
 395 448 395 448 395 424 c 128,-1,42
 395 400 395 400 386 390.5 c 128,-1,43
 377 381 377 381 369 381 c 128,-1,44
 361 381 361 381 351.5 390.5 c 128,-1,45
 342 400 342 400 342 410 c 0,8,9
EndSplineSet
Validated: 1
EndChar

StartChar: at
Encoding: 64 64 33
Width: 1282
Flags: MW
LayerCount: 2
Fore
SplineSet
508 326 m 0,0,1
 430 326 430 326 388 385.5 c 128,-1,2
 346 445 346 445 346 532 c 128,-1,3
 346 619 346 619 390 705 c 128,-1,4
 434 791 434 791 501 843 c 128,-1,5
 568 895 568 895 631.5 895 c 128,-1,6
 695 895 695 895 734.5 859 c 128,-1,7
 774 823 774 823 788 764 c 1,8,-1
 817 872 l 1,9,-1
 926 872 l 1,10,-1
 805 416 l 2,11,12
 803 412 803 412 803 403 c 0,13,14
 803 373 803 373 852.5 373 c 128,-1,15
 902 373 902 373 946 413 c 0,16,17
 990 452 990 452 1014 508 c 0,18,19
 1064 623 1064 623 1065 716 c 0,20,21
 1064 804 1064 804 1042 884 c 0,22,23
 1020 966 1020 966 985 1012.5 c 128,-1,24
 950 1059 950 1059 898 1087 c 0,25,26
 813 1133 813 1133 703.5 1133 c 128,-1,27
 594 1133 594 1133 503 1097.5 c 128,-1,28
 412 1062 412 1062 338.5 996 c 128,-1,29
 265 930 265 930 220.5 824.5 c 128,-1,30
 176 719 176 719 176 605 c 128,-1,31
 176 491 176 491 209 403.5 c 128,-1,32
 242 316 242 316 296 254 c 128,-1,33
 350 192 350 192 418 147 c 0,34,35
 550 59 550 59 692 59 c 0,36,37
 884 59 884 59 1010 162 c 0,38,39
 1052 197 1052 197 1075 219.5 c 128,-1,40
 1098 242 1098 242 1125 282 c 128,-1,41
 1152 322 1152 322 1158 333 c 128,-1,42
 1164 344 1164 344 1180 373 c 1,43,-1
 1212 356 l 1,44,45
 1120 145 1120 145 976 55 c 0,46,47
 856 -20 856 -20 680 -20 c 128,-1,48
 504 -20 504 -20 352 87 c 0,49,50
 188 201 188 201 124 380 c 0,51,52
 90 476 90 476 90 588.5 c 128,-1,53
 90 701 90 701 122.5 804 c 128,-1,54
 155 907 155 907 211.5 982 c 128,-1,55
 268 1057 268 1057 343 1111 c 0,56,57
 493 1219 493 1219 684 1219 c 0,58,-1
 687 1219 l 0,59,60
 879 1219 879 1219 1011 1094 c 0,61,62
 1151 962 1151 962 1151 709 c 0,63,64
 1151 591 1151 591 1068 454 c 0,65,66
 1028 388 1028 388 957.5 343.5 c 128,-1,67
 887 299 887 299 801 299 c 0,68,69
 763 299 763 299 730.5 323.5 c 128,-1,70
 698 348 698 348 698 403 c 0,71,72
 698 424 698 424 700 436 c 1,73,74
 611 326 611 326 508 326 c 0,0,1
748 692 m 0,75,76
 748 753 748 753 721.5 793.5 c 128,-1,77
 695 834 695 834 643 834 c 0,78,79
 567 834 567 834 501.5 746 c 128,-1,80
 436 658 436 658 436 553 c 0,81,82
 436 493 436 493 462.5 453.5 c 128,-1,83
 489 414 489 414 541 414 c 0,84,85
 617 414 617 414 682.5 500 c 128,-1,86
 748 586 748 586 748 692 c 0,75,76
EndSplineSet
Validated: 1
EndChar

StartChar: A
Encoding: 65 65 34
Width: 1118
Flags: MW
AnchorPoint: "top" 565 1270 basechar 0
AnchorPoint: "mid" 492 590 basechar 0
AnchorPoint: "below" 508 0 basechar 0
AnchorPoint: "cedilla" 893 0 basechar 0
AnchorPoint: "ogonek" 1004 0 basechar 0
LayerCount: 2
Fore
SplineSet
688 0 m 1,0,-1
 688 43 l 1,1,2
 782 43 782 43 807 68 c 1,3,-1
 692 381 l 1,4,-1
 299 381 l 1,5,-1
 193 80 l 1,6,7
 204 59 204 59 231 51 c 128,-1,8
 258 43 258 43 319 43 c 1,9,-1
 319 0 l 1,10,-1
 -16 0 l 1,11,-1
 -16 43 l 1,12,13
 97 43 97 43 113 86 c 2,14,-1
 510 1198 l 1,15,-1
 608 1198 l 1,16,-1
 1006 86 l 2,17,18
 1021 43 1021 43 1137 43 c 1,19,-1
 1137 0 l 1,20,-1
 688 0 l 1,0,-1
494 926 m 1,21,-1
 324 449 l 1,22,-1
 668 449 l 1,23,-1
 494 926 l 1,21,-1
EndSplineSet
Validated: 1
EndChar

StartChar: B
Encoding: 66 66 35
Width: 1142
Flags: MW
AnchorPoint: "mid" 356 324 basechar 0
AnchorPoint: "below" 504 0 basechar 0
AnchorPoint: "top" 492 1270 basechar 0
LayerCount: 2
Fore
SplineSet
403 594 m 1,0,-1
 403 70 l 1,1,-1
 578 70 l 2,2,3
 804 70 804 70 850 237 c 0,4,5
 864 285 864 285 864 333.5 c 128,-1,6
 864 382 864 382 856 414 c 128,-1,7
 848 446 848 446 826 480 c 128,-1,8
 804 514 804 514 770 538 c 0,9,10
 692 594 692 594 553 594 c 2,11,-1
 403 594 l 1,0,-1
487 653 m 2,12,13
 774 653 774 653 774 913 c 0,14,15
 774 1128 774 1128 463 1128 c 2,16,-1
 403 1128 l 1,17,-1
 403 653 l 1,18,-1
 487 653 l 2,12,13
215 1114 m 1,19,20
 198 1155 198 1155 86 1155 c 1,21,-1
 86 1198 l 1,22,-1
 463 1198 l 2,23,24
 766 1198 766 1198 902 1074 c 0,25,26
 978 1004 978 1004 979 915 c 0,27,28
 979 707 979 707 762 633 c 1,29,30
 987 582 987 582 1051 434 c 0,31,32
 1069 392 1069 392 1069 334 c 0,33,34
 1069 274 1069 274 1040 212 c 0,35,36
 1010 150 1010 150 952 102 c 0,37,38
 828 0 828 0 578 0 c 2,39,-1
 86 0 l 1,40,-1
 86 43 l 1,41,42
 198 43 198 43 215 84 c 1,43,-1
 215 1114 l 1,19,20
EndSplineSet
Validated: 1
EndChar

StartChar: C
Encoding: 67 67 36
Width: 1150
Flags: MW
AnchorPoint: "top" 705 1270 basechar 0
AnchorPoint: "below" 666 0 basechar 0
AnchorPoint: "cedilla" 666 0 basechar 0
LayerCount: 2
Fore
SplineSet
709 1149 m 0,0,1
 532 1149 532 1149 415.5 1003.5 c 128,-1,2
 299 858 299 858 299 627 c 0,3,4
 299 489 299 489 334 377 c 0,5,6
 369 264 369 264 428 194 c 0,7,8
 550 49 550 49 717 49 c 0,9,10
 819 49 819 49 919.5 119.5 c 128,-1,11
 1020 190 1020 190 1049 270 c 1,12,-1
 1098 246 l 1,13,14
 1056 144 1056 144 964 68 c 0,15,16
 857 -20 857 -20 697.5 -20 c 128,-1,17
 538 -20 538 -20 424 30 c 128,-1,18
 310 80 310 80 238 164 c 0,19,20
 86 341 86 341 86 582 c 0,21,22
 86 726 86 726 138 848 c 0,23,24
 190 970 190 970 276 1050 c 0,25,26
 459 1219 459 1219 707 1219 c 0,27,28
 776 1219 776 1219 848 1188 c 128,-1,29
 920 1157 920 1157 934 1157 c 0,30,31
 958 1157 958 1157 958 1198 c 1,32,-1
 1006 1198 l 1,33,-1
 1026 938 l 1,34,-1
 981 938 l 1,35,36
 968 1031 968 1031 900.5 1090 c 128,-1,37
 833 1149 833 1149 709 1149 c 0,0,1
EndSplineSet
Validated: 1
EndChar

StartChar: D
Encoding: 68 68 37
Width: 1251
Flags: MW
AnchorPoint: "top" 549 1270 basechar 0
AnchorPoint: "mid" 365 586 basechar 0
AnchorPoint: "below" 492 0 basechar 0
AnchorPoint: "cedilla" 492 0 basechar 0
LayerCount: 2
Fore
SplineSet
215 1114 m 1,0,1
 198 1155 198 1155 86 1155 c 1,2,-1
 86 1198 l 1,3,-1
 557 1198 l 2,4,5
 830 1198 830 1198 995.5 1033 c 128,-1,6
 1161 868 1161 868 1161 601.5 c 128,-1,7
 1161 335 1161 335 1000 167.5 c 128,-1,8
 839 0 839 0 582 0 c 2,9,-1
 86 0 l 1,10,-1
 86 43 l 1,11,12
 198 43 198 43 215 84 c 1,13,-1
 215 1114 l 1,0,1
403 1139 m 1,14,-1
 403 70 l 1,15,-1
 582 70 l 2,16,17
 692 70 692 70 784 146 c 0,18,19
 956 286 956 286 956 600 c 0,20,21
 956 738 956 738 920 845 c 0,22,23
 884 952 884 952 826 1014 c 0,24,25
 708 1139 708 1139 557 1139 c 2,26,-1
 403 1139 l 1,14,-1
EndSplineSet
Validated: 1
EndChar

StartChar: E
Encoding: 69 69 38
Width: 1038
Flags: MW
AnchorPoint: "top" 549 1270 basechar 0
AnchorPoint: "mid" 315 336 basechar 0
AnchorPoint: "below" 532 0 basechar 0
AnchorPoint: "cedilla" 532 0 basechar 0
AnchorPoint: "ogonek" 831 0 basechar 0
LayerCount: 2
Fore
SplineSet
731 459 m 1,0,1
 731 571 731 571 690 588 c 1,2,-1
 403 588 l 1,3,-1
 403 70 l 1,4,-1
 870 70 l 1,5,6
 921 91 921 91 963 199 c 1,7,-1
 1004 199 l 1,8,-1
 954 0 l 1,9,-1
 86 0 l 1,10,-1
 86 43 l 1,11,12
 198 43 198 43 215 84 c 1,13,-1
 215 1114 l 1,14,15
 198 1155 198 1155 86 1155 c 1,16,-1
 86 1198 l 1,17,-1
 911 1198 l 1,18,-1
 911 999 l 1,19,-1
 868 999 l 1,20,21
 868 1111 868 1111 827 1128 c 1,22,-1
 403 1128 l 1,23,-1
 403 657 l 1,24,-1
 690 657 l 1,25,26
 731 674 731 674 731 786 c 1,27,-1
 774 786 l 1,28,-1
 774 459 l 1,29,-1
 731 459 l 1,0,1
EndSplineSet
Validated: 1
EndChar

StartChar: F
Encoding: 70 70 39
Width: 962
Flags: MW
AnchorPoint: "top" 549 1270 basechar 0
LayerCount: 2
Fore
SplineSet
403 84 m 1,0,1
 420 43 420 43 532 43 c 1,2,-1
 532 0 l 1,3,-1
 86 0 l 1,4,-1
 86 43 l 1,5,6
 198 43 198 43 215 84 c 1,7,-1
 215 1114 l 1,8,9
 198 1155 198 1155 86 1155 c 1,10,-1
 86 1198 l 5,11,-1
 911 1198 l 5,12,-1
 911 999 l 5,13,-1
 868 999 l 5,14,15
 868 1111 868 1111 827 1128 c 5,16,-1
 403 1128 l 5,17,-1
 403 657 l 1,18,-1
 690 657 l 1,19,20
 731 674 731 674 731 786 c 1,21,-1
 774 786 l 1,22,-1
 774 459 l 1,23,-1
 731 459 l 1,24,25
 731 571 731 571 690 588 c 1,26,-1
 403 588 l 1,27,-1
 403 84 l 1,0,1
EndSplineSet
Validated: 1
EndChar

StartChar: G
Encoding: 71 71 40
Width: 1263
Flags: MW
AnchorPoint: "cedilla" 662 0 basechar 0
AnchorPoint: "below" 662 0 basechar 0
AnchorPoint: "top" 700 1270 basechar 0
AnchorPoint: "mid" 1012 362 basechar 0
LayerCount: 2
Fore
SplineSet
1231 549 m 1,0,1
 1119 549 1119 549 1102 508 c 1,2,-1
 1102 164 l 1,3,4
 1070 106 1070 106 999 63 c 0,5,6
 866 -20 866 -20 692 -20 c 0,7,8
 364 -20 364 -20 188 236 c 0,9,10
 82 389 82 389 82 582 c 0,11,12
 82 726 82 726 136 848 c 0,13,14
 192 970 192 970 282 1050 c 0,15,16
 473 1219 473 1219 723 1219 c 0,17,18
 783 1219 783 1219 871.5 1188 c 128,-1,19
 960 1157 960 1157 971 1157 c 0,20,21
 995 1157 995 1157 995 1198 c 1,22,-1
 1042 1198 l 1,23,-1
 1063 938 l 1,24,-1
 1018 938 l 1,25,26
 1005 1028 1005 1028 928 1088.5 c 128,-1,27
 851 1149 851 1149 730.5 1149 c 128,-1,28
 610 1149 610 1149 511 1074 c 128,-1,29
 412 999 412 999 353.5 868.5 c 128,-1,30
 295 738 295 738 295 605 c 128,-1,31
 295 472 295 472 320 378.5 c 128,-1,32
 345 285 345 285 385.5 225 c 128,-1,33
 426 165 426 165 479 124 c 0,34,35
 576 49 576 49 694.5 49 c 128,-1,36
 813 49 813 49 913 88 c 1,37,-1
 913 508 l 1,38,39
 896 549 896 549 784 549 c 1,40,-1
 784 592 l 1,41,-1
 1231 592 l 1,42,-1
 1231 549 l 1,0,1
EndSplineSet
Validated: 1
EndChar

StartChar: H
Encoding: 72 72 41
Width: 1331
Flags: MW
AnchorPoint: "top" 668 1270 basechar 0
AnchorPoint: "mid" 664 860 basechar 0
AnchorPoint: "below" 666 0 basechar 0
AnchorPoint: "cedilla" 666 0 basechar 0
LayerCount: 2
Fore
SplineSet
403 84 m 1,0,1
 420 43 420 43 532 43 c 1,2,-1
 532 0 l 1,3,-1
 86 0 l 1,4,-1
 86 43 l 1,5,6
 198 43 198 43 215 84 c 1,7,-1
 215 1114 l 1,8,9
 198 1155 198 1155 86 1155 c 1,10,-1
 86 1198 l 1,11,-1
 532 1198 l 1,12,-1
 532 1155 l 1,13,14
 420 1155 420 1155 403 1114 c 1,15,-1
 403 657 l 1,16,-1
 928 657 l 1,17,-1
 928 1114 l 1,18,19
 911 1155 911 1155 799 1155 c 1,20,-1
 799 1198 l 1,21,-1
 1245 1198 l 1,22,-1
 1245 1155 l 1,23,24
 1133 1155 1133 1155 1116 1114 c 1,25,-1
 1116 84 l 1,26,27
 1133 43 1133 43 1245 43 c 1,28,-1
 1245 0 l 1,29,-1
 799 0 l 1,30,-1
 799 43 l 1,31,32
 911 43 911 43 928 84 c 1,33,-1
 928 588 l 1,34,-1
 403 588 l 1,35,-1
 403 84 l 1,0,1
EndSplineSet
Validated: 1
EndChar

StartChar: I
Encoding: 73 73 42
Width: 618
Flags: MW
AnchorPoint: "top" 305 1270 basechar 0
AnchorPoint: "below" 305 0 basechar 0
AnchorPoint: "cedilla" 307 0 basechar 0
AnchorPoint: "ogonek" 412 0 basechar 0
AnchorPoint: "mid" 313 602 basechar 0
LayerCount: 2
Fore
SplineSet
403 84 m 1,0,1
 420 43 420 43 532 43 c 1,2,-1
 532 0 l 1,3,-1
 86 0 l 1,4,-1
 86 43 l 1,5,6
 198 43 198 43 215 84 c 1,7,-1
 215 1114 l 1,8,9
 198 1155 198 1155 86 1155 c 1,10,-1
 86 1198 l 1,11,-1
 532 1198 l 1,12,-1
 532 1155 l 1,13,14
 420 1155 420 1155 403 1114 c 1,15,-1
 403 84 l 1,0,1
EndSplineSet
Validated: 1
EndChar

StartChar: J
Encoding: 74 74 43
Width: 843
Flags: MW
AnchorPoint: "top" 569 1270 basechar 0
LayerCount: 2
Fore
SplineSet
791 1155 m 1,0,1
 679 1155 679 1155 662 1114 c 1,2,-1
 662 352 l 2,3,4
 662 76 662 76 460 2 c 0,5,6
 400 -20 400 -20 322 -20 c 0,7,8
 177 -20 177 -20 95.5 38 c 128,-1,9
 14 96 14 96 14 164 c 0,10,11
 14 210 14 210 38 238 c 128,-1,12
 62 266 62 266 100.5 266 c 128,-1,13
 139 266 139 266 167 248 c 128,-1,14
 195 230 195 230 195 195 c 0,15,16
 195 126 195 126 143 109 c 1,17,18
 158 94 158 94 167 86.5 c 128,-1,19
 176 79 176 79 214 66 c 128,-1,20
 252 53 252 53 293.5 53 c 128,-1,21
 335 53 335 53 361.5 62 c 128,-1,22
 388 71 388 71 406 85.5 c 128,-1,23
 424 100 424 100 436.5 127 c 128,-1,24
 449 154 449 154 456 180 c 0,25,26
 463 206 463 206 467 250 c 0,27,28
 473 315 473 315 473 426 c 2,29,-1
 473 1114 l 1,30,31
 456 1155 456 1155 344 1155 c 1,32,-1
 344 1198 l 1,33,-1
 791 1198 l 1,34,-1
 791 1155 l 1,0,1
EndSplineSet
Validated: 1
EndChar

StartChar: K
Encoding: 75 75 44
Width: 1185
Flags: MW
AnchorPoint: "top" 657 1270 basechar 0
AnchorPoint: "cedilla" 639 0 basechar 0
AnchorPoint: "below" 639 0 basechar 0
AnchorPoint: "mid" 309 946 basechar 0
LayerCount: 2
Fore
SplineSet
399 84 m 1,0,1
 416 43 416 43 528 43 c 1,2,-1
 528 0 l 1,3,-1
 86 0 l 1,4,-1
 86 43 l 1,5,6
 198 43 198 43 215 84 c 1,7,-1
 215 1114 l 1,8,9
 198 1155 198 1155 86 1155 c 1,10,-1
 86 1198 l 1,11,-1
 528 1198 l 1,12,-1
 528 1155 l 1,13,14
 416 1155 416 1155 399 1114 c 1,15,-1
 399 84 l 1,0,1
801 0 m 1,16,-1
 801 43 l 1,17,18
 850 43 850 43 877 49 c 1,19,-1
 410 643 l 1,20,-1
 911 1141 l 1,21,22
 883 1155 883 1155 807 1155 c 1,23,-1
 807 1198 l 1,24,-1
 1128 1198 l 1,25,-1
 1128 1155 l 1,26,27
 1052 1155 1052 1155 1022 1129 c 0,28,29
 1012 1121 1012 1121 1001 1108 c 2,30,-1
 590 700 l 1,31,-1
 1071 76 l 1,32,33
 1104 43 1104 43 1200 43 c 1,34,-1
 1200 0 l 1,35,-1
 801 0 l 1,16,-1
EndSplineSet
Validated: 1
EndChar

StartChar: L
Encoding: 76 76 45
Width: 1013
Flags: MW
AnchorPoint: "top" 309 1270 basechar 0
AnchorPoint: "below" 545 0 basechar 0
AnchorPoint: "cedilla" 545 0 basechar 0
AnchorPoint: "mid" 313 698 basechar 0
LayerCount: 2
Fore
SplineSet
532 1155 m 1,0,1
 420 1155 420 1155 403 1114 c 1,2,-1
 403 70 l 1,3,-1
 870 70 l 1,4,5
 921 91 921 91 963 199 c 1,6,-1
 1004 199 l 1,7,-1
 954 0 l 1,8,-1
 86 0 l 1,9,-1
 86 43 l 1,10,11
 198 43 198 43 215 84 c 1,12,-1
 215 1114 l 1,13,14
 198 1155 198 1155 86 1155 c 1,15,-1
 86 1198 l 1,16,-1
 532 1198 l 1,17,-1
 532 1155 l 1,0,1
EndSplineSet
Validated: 1
EndChar

StartChar: M
Encoding: 77 77 46
Width: 1646
Flags: MW
AnchorPoint: "top" 776 1270 basechar 0
AnchorPoint: "cedilla" 768 0 basechar 0
AnchorPoint: "below" 768 0 basechar 0
LayerCount: 2
Fore
SplineSet
285 84 m 1,0,1
 302 43 302 43 414 43 c 1,2,-1
 414 0 l 1,3,-1
 86 0 l 1,4,-1
 86 43 l 1,5,6
 198 43 198 43 215 84 c 1,7,-1
 215 1114 l 1,8,9
 198 1155 198 1155 86 1155 c 1,10,-1
 86 1198 l 1,11,-1
 385 1198 l 1,12,-1
 821 246 l 1,13,-1
 1257 1198 l 1,14,-1
 1561 1198 l 1,15,-1
 1561 1155 l 1,16,17
 1449 1155 1449 1155 1432 1114 c 1,18,-1
 1432 84 l 1,19,20
 1449 43 1449 43 1561 43 c 1,21,-1
 1561 0 l 1,22,-1
 1114 0 l 1,23,-1
 1114 43 l 1,24,25
 1226 43 1226 43 1243 84 c 1,26,-1
 1243 1004 l 1,27,-1
 784 0 l 1,28,-1
 754 0 l 1,29,-1
 285 1016 l 1,30,-1
 285 84 l 1,0,1
EndSplineSet
Validated: 1
EndChar

StartChar: N
Encoding: 78 78 47
Width: 1304
Flags: MW
AnchorPoint: "top" 651 1270 basechar 0
AnchorPoint: "below" 651 0 basechar 0
AnchorPoint: "cedilla" 651 0 basechar 0
AnchorPoint: "mid" 674 676 basechar 0
LayerCount: 2
Fore
SplineSet
285 84 m 1,0,1
 302 43 302 43 414 43 c 1,2,-1
 414 0 l 1,3,-1
 86 0 l 1,4,-1
 86 43 l 1,5,6
 198 43 198 43 215 84 c 1,7,-1
 215 1114 l 1,8,9
 198 1155 198 1155 86 1155 c 1,10,-1
 86 1198 l 1,11,-1
 360 1198 l 1,12,-1
 1038 360 l 1,13,-1
 1038 1114 l 1,14,15
 1021 1155 1021 1155 909 1155 c 1,16,-1
 909 1198 l 1,17,-1
 1237 1198 l 1,18,-1
 1237 1155 l 1,19,20
 1125 1155 1125 1155 1108 1114 c 1,21,-1
 1108 0 l 1,22,-1
 1090 0 l 1,23,-1
 285 1018 l 1,24,-1
 285 84 l 1,0,1
EndSplineSet
Validated: 1
EndChar

StartChar: O
Encoding: 79 79 48
Width: 1312
Flags: MW
AnchorPoint: "top" 657 1270 basechar 0
AnchorPoint: "mid" 670 602 basechar 0
AnchorPoint: "below" 659 0 basechar 0
AnchorPoint: "cedilla" 659 0 basechar 0
AnchorPoint: "ogonek" 719 0 basechar 0
LayerCount: 2
Fore
SplineSet
295 612 m 4,0,1
 295 536 295 536 308.5 458 c 132,-1,2
 322 380 322 380 352 306 c 132,-1,3
 382 232 382 232 424.5 175 c 132,-1,4
 467 118 467 118 529.5 83.5 c 132,-1,5
 592 49 592 49 666 49 c 132,-1,6
 740 49 740 49 801 82 c 132,-1,7
 862 115 862 115 902 168 c 4,8,9
 940 222 940 222 968 292 c 4,10,11
 1020 424 1020 424 1020 582 c 4,12,13
 1020 846 1020 846 888 1022 c 4,14,15
 793 1149 793 1149 649 1149 c 4,16,17
 440 1149 440 1149 346 905 c 4,18,19
 295 775 295 775 295 618 c 4,20,21
 295 615 295 615 295 612 c 4,0,1
159.5 290.5 m 132,-1,23
 90 431 90 431 90 577 c 132,-1,24
 90 723 90 723 131.5 836 c 132,-1,25
 173 949 173 949 246 1034 c 132,-1,26
 319 1119 319 1119 426 1169 c 132,-1,27
 533 1219 533 1219 677 1219 c 128,-1,28
 821 1219 821 1219 952.5 1133.5 c 132,-1,29
 1084 1048 1084 1048 1154.5 906.5 c 132,-1,30
 1225 765 1225 765 1225 598 c 132,-1,31
 1225 431 1225 431 1153.5 290.5 c 132,-1,32
 1082 150 1082 150 951 65 c 132,-1,33
 820 -20 820 -20 655.5 -20 c 132,-1,34
 491 -20 491 -20 360 65 c 132,-1,22
 229 150 229 150 159.5 290.5 c 132,-1,23
EndSplineSet
Validated: 1
EndChar

StartChar: P
Encoding: 80 80 49
Width: 1101
Flags: MW
AnchorPoint: "top" 492 1270 basechar 0
AnchorPoint: "below" 303 0 basechar 0
AnchorPoint: "mid" 309 328 basechar 0
AnchorPoint: "cedilla" 303 0 basechar 0
LayerCount: 2
Fore
SplineSet
403 84 m 1,0,1
 420 43 420 43 532 43 c 1,2,-1
 532 0 l 1,3,-1
 86 0 l 1,4,-1
 86 43 l 1,5,6
 198 43 198 43 215 84 c 1,7,-1
 215 1114 l 1,8,9
 198 1155 198 1155 86 1155 c 1,10,-1
 86 1198 l 1,11,-1
 549 1198 l 2,12,13
 680 1198 680 1198 783.5 1169 c 128,-1,14
 887 1140 887 1140 946 1094 c 0,15,16
 1065 1000 1065 1000 1065 887 c 0,17,18
 1065 733 1065 733 942 639 c 128,-1,19
 819 545 819 545 573 545 c 2,20,-1
 403 545 l 1,21,-1
 403 84 l 1,0,1
403 1128 m 1,22,-1
 403 614 l 1,23,-1
 573 614 l 2,24,25
 730 614 730 614 795 677 c 128,-1,26
 860 740 860 740 860 885 c 0,27,28
 860 1128 860 1128 549 1128 c 2,29,-1
 403 1128 l 1,22,-1
EndSplineSet
Validated: 1
EndChar

StartChar: Q
Encoding: 81 81 50
Width: 1312
Flags: MW
LayerCount: 2
Fore
SplineSet
1176 -135 m 0,0,1
 1276 -135 1276 -135 1339 -41 c 1,2,-1
 1370 -63 l 1,3,4
 1364 -80 1364 -80 1344 -110 c 0,5,6
 1322 -140 1322 -140 1302 -158 c 0,7,8
 1246 -209 1246 -209 1161 -209 c 0,9,10
 1118 -209 1118 -209 1068 -196 c 0,11,12
 947 -164 947 -164 872 -56 c 0,13,14
 853 -28 853 -28 834 8 c 1,15,16
 748 -20 748 -20 657 -20 c 0,17,18
 491 -20 491 -20 360 65 c 128,-1,19
 229 150 229 150 159.5 290.5 c 128,-1,20
 90 431 90 431 90 577 c 128,-1,21
 90 723 90 723 131.5 836 c 128,-1,22
 173 949 173 949 246 1034 c 128,-1,23
 319 1119 319 1119 426 1169 c 128,-1,24
 533 1219 533 1219 677 1219 c 128,-1,25
 821 1219 821 1219 952.5 1133.5 c 128,-1,26
 1084 1048 1084 1048 1154.5 906.5 c 128,-1,27
 1225 765 1225 765 1225 602.5 c 128,-1,28
 1225 440 1225 440 1160.5 304.5 c 128,-1,29
 1096 169 1096 169 981 84 c 1,30,31
 989 69 989 69 1005 38.5 c 128,-1,32
 1021 8 1021 8 1029.5 -7.5 c 128,-1,33
 1038 -23 1038 -23 1052.5 -47 c 128,-1,34
 1067 -71 1067 -71 1078.5 -83.5 c 128,-1,35
 1090 -96 1090 -96 1106 -110 c 0,36,37
 1135 -135 1135 -135 1176 -135 c 0,0,1
473 125 m 1,38,39
 555 49 555 49 666 49 c 0,40,41
 739 49 739 49 799 80 c 1,42,43
 767 145 767 145 739 177 c 128,-1,44
 711 209 711 209 668 209 c 0,45,46
 552 209 552 209 473 125 c 1,38,39
913 186 m 1,47,48
 1020 339 1020 339 1020 582 c 0,49,50
 1020 846 1020 846 888 1022 c 0,51,52
 793 1149 793 1149 649 1149 c 0,53,54
 440 1149 440 1149 346 905 c 0,55,56
 295 775 295 775 295 635 c 0,57,58
 295 632 295 632 295 630 c 0,59,60
 295 330 295 330 438 160 c 1,61,62
 530 299 530 299 676 299 c 128,-1,63
 822 299 822 299 913 186 c 1,47,48
EndSplineSet
Validated: 1
EndChar

StartChar: R
Encoding: 82 82 51
Width: 1189
Flags: MW
AnchorPoint: "cedilla" 659 0 basechar 0
AnchorPoint: "mid" 309 328 basechar 0
AnchorPoint: "below" 659 0 basechar 0
AnchorPoint: "top" 582 1270 basechar 0
LayerCount: 2
Fore
SplineSet
403 84 m 1,0,1
 420 43 420 43 532 43 c 1,2,-1
 532 0 l 1,3,-1
 86 0 l 1,4,-1
 86 43 l 1,5,6
 198 43 198 43 215 84 c 1,7,-1
 215 1114 l 1,8,9
 198 1155 198 1155 86 1155 c 1,10,-1
 86 1198 l 1,11,-1
 549 1198 l 2,12,13
 814 1198 814 1198 946 1098 c 0,14,15
 1066 1007 1066 1007 1066 895 c 0,16,17
 1066 782 1066 782 998 696 c 0,18,19
 931 610 931 610 797 573 c 1,20,-1
 1069 86 l 1,21,22
 1090 43 1090 43 1204 43 c 1,23,-1
 1204 0 l 1,24,-1
 1116 0 l 2,25,26
 972 0 972 0 929 16 c 128,-1,27
 886 32 886 32 844 106 c 2,28,-1
 596 545 l 1,29,-1
 403 545 l 1,30,-1
 403 84 l 1,0,1
403 1128 m 1,31,-1
 403 614 l 1,32,-1
 573 614 l 2,33,34
 737 614 737 614 798.5 677.5 c 128,-1,35
 860 741 860 741 860 873.5 c 128,-1,36
 860 1006 860 1006 792 1067 c 128,-1,37
 724 1128 724 1128 549 1128 c 2,38,-1
 403 1128 l 1,31,-1
EndSplineSet
Validated: 1
EndChar

StartChar: S
Encoding: 83 83 52
Width: 978
Flags: MW
AnchorPoint: "top" 465 1270 basechar 0
AnchorPoint: "mid" 514 602 basechar 0
AnchorPoint: "below" 489 0 basechar 0
AnchorPoint: "cedilla" 489 0 basechar 0
LayerCount: 2
Fore
SplineSet
653.5 0.5 m 132,-1,1
 583 -20 583 -20 509.5 -20 c 132,-1,2
 436 -20 436 -20 367 -5 c 132,-1,3
 298 10 298 10 254 25.5 c 132,-1,4
 210 41 210 41 197 41 c 132,-1,5
 184 41 184 41 168 29 c 132,-1,6
 152 17 152 17 152 0 c 5,7,-1
 104 0 l 5,8,-1
 104 285 l 5,9,-1
 150 285 l 5,10,11
 184 108 184 108 384 62 c 4,12,13
 438 50 438 50 498 49 c 4,14,15
 607 49 607 49 676 98 c 132,-1,16
 745 147 745 147 745 246 c 4,17,18
 745 334 745 334 666 396 c 4,19,20
 606 443 606 443 521.5 488.5 c 132,-1,21
 437 534 437 534 399 557.5 c 132,-1,22
 361 581 361 581 346 590 c 132,-1,23
 331 599 331 599 289.5 627.5 c 132,-1,24
 248 656 248 656 230.5 672 c 132,-1,25
 213 688 213 688 183.5 718.5 c 132,-1,26
 154 749 154 749 141 774 c 4,27,28
 106 841 106 841 106 910.5 c 132,-1,29
 106 980 106 980 157 1054 c 132,-1,30
 208 1128 208 1128 291.5 1173.5 c 132,-1,31
 375 1219 375 1219 450 1219 c 132,-1,32
 525 1219 525 1219 613.5 1188 c 132,-1,33
 702 1157 702 1157 713 1157 c 4,34,35
 737 1157 737 1157 737 1198 c 5,36,-1
 784 1198 l 5,37,-1
 805 938 l 5,38,-1
 760 938 l 5,39,40
 747 1028 747 1028 670 1088.5 c 132,-1,41
 593 1149 593 1149 483 1149 c 132,-1,42
 373 1149 373 1149 316.5 1089 c 132,-1,43
 260 1029 260 1029 260 978.5 c 132,-1,44
 260 928 260 928 279 894.5 c 132,-1,45
 298 861 298 861 337 831.5 c 132,-1,46
 376 802 376 802 411 781 c 132,-1,47
 446 760 446 760 504 730 c 4,48,49
 695 629 695 629 789 546 c 4,50,51
 913 438 913 438 913 303 c 4,52,53
 913 225 913 225 877 161.5 c 132,-1,54
 841 98 841 98 782.5 59.5 c 132,-1,0
 724 21 724 21 653.5 0.5 c 132,-1,1
EndSplineSet
Validated: 1
EndChar

StartChar: T
Encoding: 84 84 53
Width: 1101
Flags: MW
AnchorPoint: "top" 553 1270 basechar 0
AnchorPoint: "mid" 551 647 basechar 0
AnchorPoint: "cedilla" 553 0 basechar 0
AnchorPoint: "below" 553 0 basechar 0
LayerCount: 2
Fore
SplineSet
121 1128 m 1,0,1
 80 1111 80 1111 80 999 c 1,2,-1
 37 999 l 1,3,-1
 37 1198 l 1,4,-1
 1065 1198 l 1,5,-1
 1065 999 l 1,6,-1
 1022 999 l 1,7,8
 1022 1111 1022 1111 981 1128 c 1,9,-1
 645 1128 l 1,10,-1
 645 84 l 1,11,12
 662 43 662 43 774 43 c 1,13,-1
 774 0 l 1,14,-1
 328 0 l 1,15,-1
 328 43 l 1,16,17
 440 43 440 43 457 84 c 1,18,-1
 457 1128 l 1,19,-1
 121 1128 l 1,0,1
EndSplineSet
Validated: 1
EndChar

StartChar: U
Encoding: 85 85 54
Width: 1265
Flags: MW
AnchorPoint: "top" 688 1270 basechar 0
AnchorPoint: "cedilla" 676 0 basechar 0
AnchorPoint: "below" 676 0 basechar 0
AnchorPoint: "ogonek" 676 0 basechar 0
AnchorPoint: "mid" 676 694 basechar 0
LayerCount: 2
Fore
SplineSet
498 1155 m 1,0,1
 386 1155 386 1155 369 1114 c 1,2,-1
 369 479 l 2,3,4
 369 275 369 275 458.5 162 c 128,-1,5
 548 49 548 49 688.5 49 c 128,-1,6
 829 49 829 49 922.5 163.5 c 128,-1,7
 1016 278 1016 278 1016 467 c 2,8,-1
 1016 1114 l 1,9,10
 999 1155 999 1155 887 1155 c 1,11,-1
 887 1198 l 1,12,-1
 1214 1198 l 1,13,-1
 1214 1155 l 1,14,15
 1102 1155 1102 1155 1085 1114 c 1,16,-1
 1085 508 l 2,17,18
 1085 120 1085 120 830 10 c 0,19,20
 758 -20 758 -20 672 -20 c 0,21,22
 180 -20 180 -20 180 508 c 2,23,-1
 180 1114 l 1,24,25
 163 1155 163 1155 51 1155 c 1,26,-1
 51 1198 l 1,27,-1
 498 1198 l 1,28,-1
 498 1155 l 1,0,1
EndSplineSet
Validated: 1
EndChar

StartChar: V
Encoding: 86 86 55
Width: 1114
Flags: MW
AnchorPoint: "top" 610 1270 basechar 0
AnchorPoint: "below" 555 0 basechar 0
AnchorPoint: "cedilla" 555 0 basechar 0
AnchorPoint: "mid" 608 901 basechar 0
LayerCount: 2
Fore
SplineSet
924 1118 m 1,0,1
 904 1155 904 1155 797 1155 c 1,2,-1
 797 1198 l 1,3,-1
 1133 1198 l 1,4,-1
 1133 1155 l 1,5,6
 1019 1155 1019 1155 1008 1122 c 2,7,-1
 606 0 l 1,8,-1
 508 0 l 1,9,-1
 111 1112 l 2,10,11
 96 1155 96 1155 -20 1155 c 1,12,-1
 -20 1198 l 1,13,-1
 428 1198 l 1,14,-1
 428 1155 l 1,15,16
 334 1155 334 1155 309 1130 c 1,17,-1
 623 272 l 1,18,-1
 924 1118 l 1,0,1
EndSplineSet
Validated: 1
EndChar

StartChar: W
Encoding: 87 87 56
Width: 1722
Flags: MW
AnchorPoint: "top" 819 1270 basechar 0
AnchorPoint: "below" 874 0 basechar 0
AnchorPoint: "cedilla" 874 0 basechar 0
AnchorPoint: "ogonek" 1176 0 basechar 0
AnchorPoint: "mid" 862 602 basechar 0
LayerCount: 2
Fore
SplineSet
1532 1118 m 1,0,1
 1512 1155 1512 1155 1405 1155 c 1,2,-1
 1405 1198 l 1,3,-1
 1741 1198 l 1,4,-1
 1741 1155 l 1,5,6
 1628 1155 1628 1155 1612 1112 c 2,7,-1
 1214 0 l 1,8,-1
 1116 0 l 1,9,-1
 860 715 l 1,10,-1
 606 0 l 1,11,-1
 508 0 l 1,12,-1
 111 1112 l 2,13,14
 96 1155 96 1155 -20 1155 c 1,15,-1
 -20 1198 l 1,16,-1
 428 1198 l 1,17,-1
 428 1155 l 1,18,19
 334 1155 334 1155 309 1130 c 1,20,-1
 623 274 l 1,21,-1
 819 829 l 1,22,-1
 719 1112 l 2,23,24
 704 1155 704 1155 588 1155 c 1,25,-1
 588 1198 l 1,26,-1
 1036 1198 l 1,27,-1
 1036 1155 l 1,28,29
 943 1155 943 1155 918 1130 c 1,30,-1
 1231 272 l 1,31,-1
 1532 1118 l 1,0,1
EndSplineSet
Validated: 1
EndChar

StartChar: X
Encoding: 88 88 57
Width: 1062
Flags: MW
LayerCount: 2
Fore
SplineSet
461 1198 m 1,0,-1
 461 1155 l 1,1,2
 364 1155 364 1155 342 1130 c 1,3,-1
 565 739 l 1,4,-1
 809 1122 l 1,5,6
 789 1155 789 1155 684 1155 c 1,7,-1
 684 1198 l 1,8,-1
 1020 1198 l 1,9,-1
 1020 1155 l 1,10,11
 919 1155 919 1155 897 1120 c 2,12,-1
 606 668 l 1,13,-1
 940 86 l 1,14,15
 962 43 962 43 1071 43 c 1,16,-1
 1071 0 l 1,17,-1
 623 0 l 1,18,-1
 623 43 l 1,19,20
 719 43 719 43 741 68 c 1,21,-1
 498 496 l 1,22,-1
 227 76 l 1,23,24
 247 43 247 43 352 43 c 1,25,-1
 352 0 l 1,26,-1
 16 0 l 1,27,-1
 16 43 l 1,28,29
 120 43 120 43 147 88 c 1,30,-1
 455 567 l 1,31,-1
 143 1114 l 2,32,33
 121 1155 121 1155 12 1155 c 1,34,-1
 12 1198 l 1,35,-1
 461 1198 l 1,0,-1
EndSplineSet
Validated: 1
EndChar

StartChar: Y
Encoding: 89 89 58
Width: 1153
Flags: MW
AnchorPoint: "top" 631 1270 basechar 0
AnchorPoint: "below" 594 0 basechar 0
AnchorPoint: "mid" 590 410 basechar 0
AnchorPoint: "cedilla" 598 0 basechar 0
AnchorPoint: "ogonek" 659 0 basechar 0
LayerCount: 2
Fore
SplineSet
362 43 m 1,0,1
 475 43 475 43 492 84 c 1,2,-1
 492 451 l 1,3,-1
 113 1114 l 1,4,5
 86 1155 86 1155 -18 1155 c 1,6,-1
 -18 1198 l 1,7,-1
 430 1198 l 1,8,-1
 430 1155 l 1,9,10
 333 1155 333 1155 311 1130 c 1,11,-1
 629 575 l 1,12,-1
 956 1118 l 1,13,14
 935 1155 935 1155 829 1155 c 1,15,-1
 829 1198 l 1,16,-1
 1165 1198 l 1,17,-1
 1165 1155 l 1,18,19
 1079 1155 1079 1155 1049 1128 c 1,20,-1
 680 516 l 1,21,-1
 680 84 l 1,22,23
 697 43 697 43 809 43 c 1,24,-1
 809 0 l 1,25,-1
 362 0 l 1,26,-1
 362 43 l 1,0,1
EndSplineSet
Validated: 1
EndChar

StartChar: Z
Encoding: 90 90 59
Width: 1024
Flags: MW
AnchorPoint: "top" 506 1270 basechar 0
AnchorPoint: "below" 526 0 basechar 0
AnchorPoint: "cedilla" 526 0 basechar 0
AnchorPoint: "mid" 481 602 basechar 0
LayerCount: 2
Fore
SplineSet
188 1137 m 1,0,1
 147 1120 147 1120 147 1008 c 1,2,-1
 104 1008 l 1,3,-1
 104 1198 l 1,4,-1
 930 1198 l 1,5,-1
 279 61 l 1,6,-1
 836 61 l 1,7,8
 898 87 898 87 930 197 c 1,9,-1
 973 197 l 1,10,-1
 920 0 l 1,11,-1
 35 0 l 1,12,-1
 686 1137 l 1,13,-1
 188 1137 l 1,0,1
EndSplineSet
Validated: 1
EndChar

StartChar: bracketleft
Encoding: 91 91 60
Width: 589
Flags: MW
LayerCount: 2
Fore
SplineSet
315 1186 m 1,0,-1
 315 -246 l 1,1,-1
 553 -246 l 1,2,-1
 553 -319 l 1,3,-1
 152 -319 l 1,4,-1
 152 1260 l 1,5,-1
 553 1260 l 1,6,-1
 553 1186 l 1,7,-1
 315 1186 l 1,0,-1
EndSplineSet
Validated: 1
EndChar

StartChar: backslash
Encoding: 92 92 61
Width: 937
Flags: MW
LayerCount: 2
Fore
SplineSet
897 -20 m 1,0,-1
 838 -57 l 1,1,-1
 41 1217 l 1,2,-1
 100 1253 l 1,3,-1
 897 -20 l 1,0,-1
EndSplineSet
Validated: 1
EndChar

StartChar: bracketright
Encoding: 93 93 62
Width: 589
Flags: MW
LayerCount: 2
Fore
SplineSet
274 -246 m 1,0,-1
 274 1186 l 1,1,-1
 37 1186 l 1,2,-1
 37 1260 l 1,3,-1
 438 1260 l 1,4,-1
 438 -319 l 1,5,-1
 37 -319 l 1,6,-1
 37 -246 l 1,7,-1
 274 -246 l 1,0,-1
EndSplineSet
Validated: 1
EndChar

StartChar: asciicircum
Encoding: 94 94 63
Width: 933
Flags: MW
LayerCount: 2
Fore
SplineSet
494 1106 m 1,0,-1
 831 705 l 1,1,-1
 762 647 l 1,2,-1
 467 999 l 1,3,-1
 172 647 l 1,4,-1
 102 705 l 1,5,-1
 438 1106 l 1,6,-1
 494 1106 l 1,0,-1
EndSplineSet
Validated: 1
EndChar

StartChar: underscore
Encoding: 95 95 64
Width: 917
Flags: MW
LayerCount: 2
Fore
SplineSet
86 -102 m 1,0,-1
 831 -102 l 1,1,-1
 831 -193 l 1,2,-1
 86 -193 l 1,3,-1
 86 -102 l 1,0,-1
EndSplineSet
Validated: 1
EndChar

StartChar: grave
Encoding: 96 96 65
Width: 614
Flags: MW
LayerCount: 2
Fore
SplineSet
340 1356 m 1,0,-1
 492 1024 l 1,1,-1
 438 1024 l 1,2,-1
 123 1356 l 1,3,-1
 340 1356 l 1,0,-1
EndSplineSet
Validated: 1
EndChar

StartChar: a
Encoding: 97 97 66
Width: 989
Flags: MW
AnchorPoint: "top" 455 1055 basechar 0
AnchorPoint: "below" 485 0 basechar 0
AnchorPoint: "cedilla" 406 0 basechar 0
AnchorPoint: "ogonek" 844 0 basechar 0
AnchorPoint: "mid" 446 242 basechar 0
LayerCount: 2
Fore
SplineSet
229 750 m 1,0,1
 258 750 258 750 279.5 729.5 c 128,-1,2
 301 709 301 709 301 670 c 128,-1,3
 301 631 301 631 273.5 612.5 c 128,-1,4
 246 594 246 594 207.5 594 c 128,-1,5
 169 594 169 594 145 622 c 128,-1,6
 121 650 121 650 121 696 c 0,7,8
 121 803 121 803 209.5 862.5 c 128,-1,9
 298 922 298 922 459 922 c 0,10,11
 736 922 736 922 806 712 c 0,12,13
 826 652 826 652 827 578 c 2,14,-1
 827 172 l 2,15,16
 827 107 827 107 849 76 c 128,-1,17
 871 45 871 45 899.5 45 c 128,-1,18
 928 45 928 45 949.5 59 c 128,-1,19
 971 73 971 73 971 94 c 1,20,-1
 1008 94 l 1,21,22
 1008 36 1008 36 965.5 10 c 128,-1,23
 923 -16 923 -16 819.5 -16 c 128,-1,24
 716 -16 716 -16 674 68 c 1,25,26
 553 -20 553 -20 373 -20 c 0,27,28
 147 -20 147 -20 89 107 c 0,29,30
 66 157 66 157 66 212.5 c 128,-1,31
 66 268 66 268 86.5 301 c 128,-1,32
 107 334 107 334 145 359 c 128,-1,33
 183 384 183 384 227 403 c 128,-1,34
 271 422 271 422 329.5 438.5 c 128,-1,35
 388 455 388 455 437 466.5 c 128,-1,36
 486 478 486 478 546.5 492 c 128,-1,37
 607 506 607 506 643 516 c 1,38,39
 643 688 643 688 598 768 c 128,-1,40
 553 848 553 848 451 848 c 128,-1,41
 349 848 349 848 296 827 c 128,-1,42
 243 806 243 806 229 750 c 1,0,1
655 119 m 1,43,44
 643 165 643 165 643 229 c 2,45,-1
 643 471 l 1,46,47
 620 464 620 464 566 449 c 128,-1,48
 512 434 512 434 478 424 c 128,-1,49
 444 414 444 414 397 393.5 c 128,-1,50
 350 373 350 373 323 352 c 0,51,52
 256 300 256 300 256 213 c 0,53,54
 256 49 256 49 408 49 c 0,55,56
 468 49 468 49 537.5 69 c 128,-1,57
 607 89 607 89 655 119 c 1,43,44
EndSplineSet
Validated: 1
EndChar

StartChar: b
Encoding: 98 98 67
Width: 1101
Flags: MW
AnchorPoint: "top" 565 1055 basechar 0
AnchorPoint: "below" 508 0 basechar 0
AnchorPoint: "mid" 270 1044 basechar 0
LayerCount: 2
Fore
SplineSet
139 1145 m 1,0,1
 12 1155 12 1155 10 1155 c 1,2,-1
 10 1202 l 1,3,4
 48 1202 48 1202 162 1246 c 128,-1,5
 276 1290 276 1290 324 1290 c 1,6,-1
 324 834 l 1,7,8
 424 930 424 930 604 930 c 0,9,10
 720 930 720 930 820 870 c 0,11,12
 1022 748 1022 748 1022 455 c 0,13,14
 1022 226 1022 226 894 103 c 128,-1,15
 766 -20 766 -20 559 -20 c 0,16,17
 410 -20 410 -20 315 57 c 1,18,19
 197 -20 197 -20 139 -20 c 1,20,-1
 139 1145 l 1,0,1
324 764 m 1,21,-1
 324 121 l 1,22,23
 405 49 405 49 547 49 c 0,24,25
 660 49 660 49 743.5 156.5 c 128,-1,26
 827 264 827 264 827 450 c 128,-1,27
 827 636 827 636 759.5 748 c 128,-1,28
 692 860 692 860 584 860 c 0,29,30
 411 860 411 860 324 764 c 1,21,-1
EndSplineSet
Validated: 1
EndChar

StartChar: c
Encoding: 99 99 68
Width: 980
Flags: MW
AnchorPoint: "top" 547 1055 basechar 0
AnchorPoint: "below" 539 0 basechar 0
AnchorPoint: "cedilla" 539 0 basechar 0
LayerCount: 2
Fore
SplineSet
557 860 m 0,0,1
 431 860 431 860 352.5 764 c 128,-1,2
 274 668 274 668 274 504 c 0,3,4
 274 390 274 390 319 286 c 128,-1,5
 364 182 364 182 438 119.5 c 128,-1,6
 512 57 512 57 598 57 c 128,-1,7
 684 57 684 57 751.5 88 c 128,-1,8
 819 119 819 119 879 193 c 1,9,-1
 928 168 l 1,10,11
 868 71 868 71 773.5 25.5 c 128,-1,12
 679 -20 679 -20 522 -20 c 0,13,14
 392 -20 392 -20 286 43 c 0,15,16
 160 118 160 118 108 284 c 0,17,18
 80 377 80 377 80 479.5 c 128,-1,19
 80 582 80 582 112 659 c 128,-1,20
 144 736 144 736 202 794 c 0,21,22
 328 922 328 922 537 922 c 0,23,24
 700 922 700 922 787 866.5 c 128,-1,25
 874 811 874 811 874 705 c 0,26,27
 874 659 874 659 850 630.5 c 128,-1,28
 826 602 826 602 787.5 602 c 128,-1,29
 749 602 749 602 721.5 620.5 c 128,-1,30
 694 639 694 639 694 678 c 128,-1,31
 694 717 694 717 715.5 737.5 c 128,-1,32
 737 758 737 758 766 758 c 1,33,34
 740 860 740 860 557 860 c 0,0,1
EndSplineSet
Validated: 1
EndChar

StartChar: d
Encoding: 100 100 69
Width: 1099
Flags: MW
AnchorPoint: "top" 469 1055 basechar 0
AnchorPoint: "below" 518 0 basechar 0
AnchorPoint: "mid" 797 1040 basechar 0
LayerCount: 2
Fore
SplineSet
743 881 m 1,0,-1
 743 1145 l 1,1,2
 616 1155 616 1155 614 1155 c 1,3,-1
 614 1202 l 1,4,5
 652 1202 652 1202 766 1246 c 128,-1,6
 880 1290 880 1290 928 1290 c 1,7,-1
 928 125 l 1,8,9
 1056 115 1056 115 1057 115 c 1,10,-1
 1057 68 l 1,11,12
 1018 68 1018 68 904 24 c 128,-1,13
 790 -20 790 -20 743 -20 c 1,14,-1
 743 47 l 1,15,16
 647 -20 647 -20 498 -20 c 0,17,18
 382 -20 382 -20 282 40 c 0,19,20
 80 162 80 162 80 455 c 0,21,22
 80 684 80 684 208 807 c 128,-1,23
 336 930 336 930 543 930 c 0,24,25
 661 930 661 930 743 881 c 1,0,-1
743 817 m 1,26,27
 670 860 670 860 555 860 c 0,28,29
 446 860 446 860 362 758 c 0,30,31
 274 651 274 651 274 455 c 0,32,33
 274 380 274 380 304 287 c 128,-1,34
 334 194 334 194 392.5 121.5 c 128,-1,35
 451 49 451 49 518 49 c 0,36,37
 653 49 653 49 743 115 c 1,38,-1
 743 817 l 1,26,27
EndSplineSet
Validated: 1
EndChar

StartChar: e
Encoding: 101 101 70
Width: 1009
Flags: MW
AnchorPoint: "top" 500 1055 basechar 0
AnchorPoint: "below" 535 0 basechar 0
AnchorPoint: "cedilla" 535 0 basechar 0
AnchorPoint: "ogonek" 610 0 basechar 0
AnchorPoint: "mid" 510 692 basechar 0
LayerCount: 2
Fore
SplineSet
274 494 m 1,0,1
 276 382 276 382 321 280.5 c 128,-1,2
 366 179 366 179 439.5 118 c 128,-1,3
 513 57 513 57 598.5 57 c 128,-1,4
 684 57 684 57 751.5 88 c 128,-1,5
 819 119 819 119 879 193 c 1,6,-1
 928 168 l 1,7,8
 868 71 868 71 773.5 25.5 c 128,-1,9
 679 -20 679 -20 522 -20 c 0,10,11
 392 -20 392 -20 286 43 c 0,12,13
 160 118 160 118 108 284 c 0,14,15
 80 377 80 377 80 480 c 128,-1,16
 80 583 80 583 108 659.5 c 128,-1,17
 136 736 136 736 188 795 c 0,18,19
 300 922 300 922 502 922 c 0,20,21
 725 922 725 922 833 792 c 0,22,23
 932 672 932 672 932 494 c 1,24,-1
 274 494 l 1,0,1
276 557 m 1,25,-1
 731 557 l 1,26,27
 719 695 719 695 685 755 c 128,-1,28
 651 815 651 815 605.5 837.5 c 128,-1,29
 560 860 560 860 491 860 c 128,-1,30
 422 860 422 860 355.5 775.5 c 128,-1,31
 289 691 289 691 276 557 c 1,25,-1
EndSplineSet
Validated: 1
EndChar

StartChar: f
Encoding: 102 102 71
Width: 555
Flags: MW
AnchorPoint: "top" 436 1341 basechar 0
LayerCount: 2
Fore
SplineSet
53 43 m 1,0,1
 165 43 165 43 182 84 c 1,2,-1
 182 840 l 1,3,-1
 80 840 l 1,4,-1
 80 901 l 1,5,-1
 182 901 l 1,6,-1
 182 971 l 2,7,8
 182 1140 182 1140 251.5 1215 c 128,-1,9
 321 1290 321 1290 439 1290 c 128,-1,10
 557 1290 557 1290 618.5 1252.5 c 128,-1,11
 680 1215 680 1215 680 1175 c 128,-1,12
 680 1135 680 1135 656 1114.5 c 128,-1,13
 632 1094 632 1094 599.5 1094 c 128,-1,14
 567 1094 567 1094 551 1108 c 128,-1,15
 535 1122 535 1122 529 1142 c 128,-1,16
 523 1162 523 1162 518 1182 c 0,17,18
 506 1230 506 1230 463 1230 c 0,19,-1
 462 1230 l 0,20,21
 418 1230 418 1230 392.5 1170.5 c 128,-1,22
 367 1111 367 1111 367 999 c 2,23,-1
 367 901 l 1,24,-1
 494 901 l 1,25,-1
 494 840 l 1,26,-1
 367 840 l 1,27,-1
 367 84 l 1,28,29
 384 43 384 43 496 43 c 1,30,-1
 496 0 l 1,31,-1
 53 0 l 1,32,-1
 53 43 l 1,0,1
EndSplineSet
Validated: 1
EndChar

StartChar: g
Encoding: 103 103 72
Width: 1064
Flags: MW
AnchorPoint: "top" 553 1055 basechar 0
AnchorPoint: "below" 492 0 basechar 0
AnchorPoint: "mid" 840 467 basechar 0
LayerCount: 2
Fore
SplineSet
926 922 m 1,0,-1
 926 59 l 2,1,2
 926 -151 926 -151 824 -280.5 c 128,-1,3
 722 -410 722 -410 538 -410 c 128,-1,4
 354 -410 354 -410 248.5 -350.5 c 128,-1,5
 143 -291 143 -291 143 -225 c 0,6,7
 143 -179 143 -179 167 -151 c 128,-1,8
 191 -123 191 -123 229.5 -123 c 128,-1,9
 268 -123 268 -123 296 -141.5 c 128,-1,10
 324 -160 324 -160 324 -196.5 c 128,-1,11
 324 -233 324 -233 312 -251.5 c 128,-1,12
 300 -270 300 -270 272 -281 c 1,13,14
 298 -307 298 -307 368 -321.5 c 128,-1,15
 438 -336 438 -336 508 -336 c 0,16,17
 608 -336 608 -336 668 -250 c 128,-1,18
 728 -164 728 -164 739 41 c 1,19,20
 647 -20 647 -20 498 -20 c 0,21,22
 382 -20 382 -20 282 37 c 0,23,24
 158 107 158 107 108 255 c 0,25,26
 80 339 80 339 80 446 c 0,27,28
 80 675 80 675 208 798.5 c 128,-1,29
 336 922 336 922 543 922 c 0,30,31
 672 922 672 922 768 856 c 1,32,33
 871 922 871 922 926 922 c 1,0,-1
741 109 m 1,34,-1
 741 809 l 1,35,36
 668 852 668 852 555 852 c 128,-1,37
 442 852 442 852 358 744.5 c 128,-1,38
 274 637 274 637 274 451.5 c 128,-1,39
 274 266 274 266 342 157.5 c 128,-1,40
 410 49 410 49 518 49 c 0,41,42
 654 49 654 49 741 109 c 1,34,-1
EndSplineSet
Validated: 1
Substitution2: "'ss05' Binocular g subtable" g.ss05
EndChar

StartChar: h
Encoding: 104 104 73
Width: 1126
Flags: MW
AnchorPoint: "top" 260 1341 basechar 0
AnchorPoint: "mid" 326 1057 basechar 0
AnchorPoint: "below" 553 0 basechar 0
AnchorPoint: "cedilla" 852 0 basechar 0
LayerCount: 2
Fore
SplineSet
356 84 m 1,0,1
 373 43 373 43 485 43 c 1,2,-1
 485 0 l 1,3,-1
 43 0 l 1,4,-1
 43 43 l 1,5,6
 155 43 155 43 172 84 c 1,7,-1
 172 1145 l 1,8,9
 45 1155 45 1155 43 1155 c 1,10,-1
 43 1202 l 1,11,12
 82 1202 82 1202 195 1246 c 128,-1,13
 308 1290 308 1290 356 1290 c 1,14,-1
 356 827 l 1,15,16
 467 922 467 922 600 922 c 0,17,18
 795 922 795 922 878 858 c 128,-1,19
 961 794 961 794 961 639 c 2,20,-1
 961 84 l 1,21,22
 978 43 978 43 1090 43 c 1,23,-1
 1090 0 l 1,24,-1
 647 0 l 1,25,-1
 647 43 l 1,26,27
 759 43 759 43 776 84 c 1,28,-1
 776 653 l 2,29,30
 776 746 776 746 733.5 799 c 128,-1,31
 691 852 691 852 575 852 c 128,-1,32
 459 852 459 852 356 762 c 1,33,-1
 356 84 l 1,0,1
EndSplineSet
Validated: 1
EndChar

StartChar: i
Encoding: 105 105 74
Width: 548
Flags: MW
AnchorPoint: "top" 279 1270 basechar 0
AnchorPoint: "below" 274 0 basechar 0
AnchorPoint: "cedilla" 274 0 basechar 0
AnchorPoint: "ogonek" 360 0 basechar 0
AnchorPoint: "mid" 287 532 basechar 0
LayerCount: 2
Fore
SplineSet
377 84 m 1,0,1
 394 43 394 43 506 43 c 1,2,-1
 506 0 l 1,3,-1
 63 0 l 1,4,-1
 63 43 l 1,5,6
 176 43 176 43 193 84 c 1,7,-1
 193 776 l 1,8,9
 66 786 66 786 63 786 c 1,10,-1
 63 834 l 1,11,12
 102 834 102 834 216 878 c 128,-1,13
 330 922 330 922 377 922 c 1,14,-1
 377 84 l 1,0,1
357 1087 m 128,-1,16
 327 1053 327 1053 280 1053 c 128,-1,17
 233 1053 233 1053 199.5 1087 c 128,-1,18
 166 1121 166 1121 166 1171 c 128,-1,19
 166 1221 166 1221 195.5 1255.5 c 128,-1,20
 225 1290 225 1290 271.5 1290 c 128,-1,21
 318 1290 318 1290 352.5 1255 c 128,-1,22
 387 1220 387 1220 387 1170.5 c 128,-1,15
 387 1121 387 1121 357 1087 c 128,-1,16
EndSplineSet
Validated: 1
EndChar

StartChar: j
Encoding: 106 106 75
Width: 497
Flags: MW
AnchorPoint: "top" 256 1270 basechar 0
LayerCount: 2
Fore
SplineSet
338.5 1087 m 128,-1,1
 308 1053 308 1053 261 1053 c 128,-1,2
 214 1053 214 1053 180.5 1087 c 128,-1,3
 147 1121 147 1121 147 1171 c 128,-1,4
 147 1221 147 1221 176.5 1255.5 c 128,-1,5
 206 1290 206 1290 253 1290 c 128,-1,6
 300 1290 300 1290 334.5 1255 c 128,-1,7
 369 1220 369 1220 369 1170.5 c 128,-1,0
 369 1121 369 1121 338.5 1087 c 128,-1,1
84 -410 m 0,8,9
 -182 -410 -182 -410 -182 -231 c 0,10,11
 -182 -194 -182 -194 -155 -172 c 128,-1,12
 -128 -150 -128 -150 -95 -150 c 128,-1,13
 -62 -150 -62 -150 -38 -172 c 128,-1,14
 -14 -194 -14 -194 -14 -226 c 128,-1,15
 -14 -258 -14 -258 -35 -279 c 1,16,17
 -35 -313 -35 -313 -6.5 -330.5 c 128,-1,18
 22 -348 22 -348 63.5 -348 c 128,-1,19
 105 -348 105 -348 139.5 -287.5 c 128,-1,20
 174 -227 174 -227 174 -119 c 2,21,-1
 174 776 l 1,22,23
 46 786 46 786 45 786 c 1,24,-1
 45 834 l 1,25,26
 84 834 84 834 197 878 c 128,-1,27
 310 922 310 922 358 922 c 1,28,-1
 358 -90 l 2,29,30
 358 -331 358 -331 186 -393 c 0,31,32
 139 -410 139 -410 84 -410 c 0,8,9
EndSplineSet
Validated: 1
EndChar

StartChar: k
Encoding: 107 107 76
Width: 1026
Flags: MW
AnchorPoint: "top" 260 1341 basechar 0
AnchorPoint: "mid" 258 532 basechar 0
AnchorPoint: "cedilla" 254 0 basechar 0
AnchorPoint: "below" 545 0 basechar 0
LayerCount: 2
Fore
SplineSet
356 84 m 1,0,1
 373 43 373 43 485 43 c 1,2,-1
 485 0 l 1,3,-1
 43 0 l 1,4,-1
 43 43 l 1,5,6
 155 43 155 43 172 84 c 1,7,-1
 172 1145 l 1,8,9
 45 1155 45 1155 43 1155 c 1,10,-1
 43 1202 l 1,11,12
 82 1202 82 1202 195 1246 c 128,-1,13
 308 1290 308 1290 356 1290 c 1,14,-1
 356 84 l 1,0,1
635 0 m 1,15,-1
 635 43 l 1,16,17
 686 43 686 43 713 49 c 1,18,-1
 371 520 l 1,19,-1
 733 846 l 1,20,21
 703 858 703 858 633 858 c 1,22,-1
 633 901 l 1,23,-1
 954 901 l 1,24,-1
 954 858 l 1,25,26
 879 858 879 858 844 831 c 1,27,-1
 553 571 l 1,28,-1
 905 82 l 2,29,30
 920 60 920 60 948 51.5 c 128,-1,31
 976 43 976 43 1034 43 c 1,32,-1
 1034 0 l 1,33,-1
 635 0 l 1,15,-1
EndSplineSet
Validated: 1
EndChar

StartChar: l
Encoding: 108 108 77
Width: 528
Flags: MW
AnchorPoint: "top" 260 1341 basechar 0
AnchorPoint: "cedilla" 258 0 basechar 0
AnchorPoint: "below" 258 0 basechar 0
AnchorPoint: "mid" 260 698 basechar 0
LayerCount: 2
Fore
SplineSet
356 84 m 1,0,1
 373 43 373 43 485 43 c 1,2,-1
 485 0 l 1,3,-1
 43 0 l 1,4,-1
 43 43 l 1,5,6
 155 43 155 43 172 84 c 1,7,-1
 172 1145 l 1,8,9
 45 1155 45 1155 43 1155 c 1,10,-1
 43 1202 l 1,11,12
 82 1202 82 1202 195 1246 c 128,-1,13
 308 1290 308 1290 356 1290 c 1,14,-1
 356 84 l 1,0,1
EndSplineSet
Validated: 1
EndChar

StartChar: m
Encoding: 109 109 78
Width: 1685
Flags: MW
AnchorPoint: "top" 860 1055 basechar 0
AnchorPoint: "below" 856 0 basechar 0
AnchorPoint: "cedilla" 856 0 basechar 0
AnchorPoint: "mid" 856 455 basechar 0
LayerCount: 2
Fore
SplineSet
377 84 m 1,0,1
 394 43 394 43 506 43 c 1,2,-1
 506 0 l 1,3,-1
 63 0 l 1,4,-1
 63 43 l 1,5,6
 176 43 176 43 193 84 c 1,7,-1
 193 776 l 1,8,9
 66 786 66 786 63 786 c 1,10,-1
 63 834 l 1,11,12
 102 834 102 834 216 878 c 128,-1,13
 330 922 330 922 377 922 c 1,14,-1
 377 829 l 1,15,16
 487 922 487 922 604 922 c 0,17,18
 850 922 850 922 920 803 c 1,19,20
 1035 922 1035 922 1176 922 c 0,21,22
 1520 922 1520 922 1520 688 c 2,23,-1
 1520 84 l 1,24,25
 1537 43 1537 43 1649 43 c 1,26,-1
 1649 0 l 1,27,-1
 1206 0 l 1,28,-1
 1206 43 l 1,29,30
 1318 43 1318 43 1335 84 c 1,31,-1
 1335 612 l 2,32,33
 1335 745 1335 745 1295.5 798.5 c 128,-1,34
 1256 852 1256 852 1149 852 c 128,-1,35
 1042 852 1042 852 940 754 c 1,36,37
 948 727 948 727 948 688 c 2,38,-1
 948 84 l 1,39,40
 965 43 965 43 1077 43 c 1,41,-1
 1077 0 l 1,42,-1
 635 0 l 1,43,-1
 635 43 l 1,44,45
 747 43 747 43 764 84 c 1,46,-1
 764 612 l 2,47,48
 764 745 764 745 724.5 798.5 c 128,-1,49
 685 852 685 852 580 852 c 128,-1,50
 475 852 475 852 377 762 c 1,51,-1
 377 84 l 1,0,1
EndSplineSet
Validated: 1
EndChar

StartChar: n
Encoding: 110 110 79
Width: 1144
Flags: MW
AnchorPoint: "top" 590 1057 basechar 0
AnchorPoint: "mid" 582 455 basechar 0
AnchorPoint: "cedilla" 887 0 basechar 0
AnchorPoint: "below" 582 0 basechar 0
LayerCount: 2
Fore
SplineSet
377 84 m 1,0,1
 394 43 394 43 506 43 c 1,2,-1
 506 0 l 1,3,-1
 63 0 l 1,4,-1
 63 43 l 1,5,6
 176 43 176 43 193 84 c 1,7,-1
 193 776 l 1,8,9
 66 786 66 786 63 786 c 1,10,-1
 63 834 l 1,11,12
 102 834 102 834 216 878 c 128,-1,13
 330 922 330 922 377 922 c 1,14,-1
 377 827 l 1,15,16
 488 922 488 922 621 922 c 0,17,18
 812 922 812 922 896.5 851.5 c 128,-1,19
 981 781 981 781 981 631 c 2,20,-1
 981 84 l 1,21,22
 998 43 998 43 1110 43 c 1,23,-1
 1110 0 l 1,24,-1
 668 0 l 1,25,-1
 668 43 l 1,26,27
 780 43 780 43 797 84 c 1,28,-1
 797 645 l 2,29,30
 797 852 797 852 608 852 c 0,31,32
 480 852 480 852 377 762 c 1,33,-1
 377 84 l 1,0,1
EndSplineSet
Validated: 1
EndChar

StartChar: o
Encoding: 111 111 80
Width: 1116
Flags: MW
AnchorPoint: "top" 561 1055 basechar 0
AnchorPoint: "ogonek" 573 0 basechar 0
AnchorPoint: "cedilla" 573 0 basechar 0
AnchorPoint: "below" 573 0 basechar 0
AnchorPoint: "mid" 557 471 basechar 0
LayerCount: 2
Fore
SplineSet
276 508 m 0,0,1
 276 274 276 274 365 157.5 c 128,-1,2
 454 41 454 41 594 41 c 0,3,4
 705 41 705 41 772.5 140 c 128,-1,5
 840 239 840 239 840 395 c 0,6,7
 840 858 840 858 518 858 c 0,8,9
 410 858 410 858 343 754.5 c 128,-1,10
 276 651 276 651 276 508 c 0,0,1
208.5 113.5 m 128,-1,12
 80 247 80 247 80 467 c 0,13,14
 80 656 80 656 188 784 c 0,15,16
 304 922 304 922 549 922 c 128,-1,17
 794 922 794 922 915 793.5 c 128,-1,18
 1036 665 1036 665 1036 442 c 0,19,20
 1036 200 1036 200 878 73 c 0,21,22
 762 -20 762 -20 549.5 -20 c 128,-1,11
 337 -20 337 -20 208.5 113.5 c 128,-1,12
EndSplineSet
Validated: 1
EndChar

StartChar: p
Encoding: 112 112 81
Width: 1101
Flags: MW
AnchorPoint: "top" 596 1055 basechar 0
AnchorPoint: "below" 608 0 basechar 0
AnchorPoint: "mid" 270 446 basechar 0
LayerCount: 2
Fore
SplineSet
358 -309 m 1,0,1
 375 -350 375 -350 487 -350 c 1,2,-1
 487 -393 l 1,3,-1
 45 -393 l 1,4,-1
 45 -350 l 1,5,6
 157 -350 157 -350 174 -309 c 1,7,-1
 174 776 l 1,8,9
 46 786 46 786 45 786 c 1,10,-1
 45 834 l 1,11,12
 84 834 84 834 197 878 c 128,-1,13
 310 922 310 922 358 922 c 1,14,-1
 358 854 l 1,15,16
 455 922 455 922 604 922 c 0,17,18
 720 922 720 922 820 862 c 0,19,20
 1022 740 1022 740 1022 446 c 0,21,22
 1022 218 1022 218 894.5 99 c 128,-1,23
 767 -20 767 -20 559 -20 c 0,24,25
 439 -20 439 -20 358 25 c 1,26,-1
 358 -309 l 1,0,1
358 90 m 1,27,28
 438 49 438 49 549 49 c 128,-1,29
 660 49 660 49 743.5 153.5 c 128,-1,30
 827 258 827 258 827 446 c 0,31,32
 827 521 827 521 797 614 c 128,-1,33
 767 707 767 707 709 779.5 c 128,-1,34
 651 852 651 852 584 852 c 0,35,36
 443 852 443 852 358 786 c 1,37,-1
 358 90 l 1,27,28
EndSplineSet
Validated: 1
EndChar

StartChar: q
Encoding: 113 113 82
Width: 1071
Flags: MW
LayerCount: 2
Fore
SplineSet
932 -309 m 1,0,1
 949 -350 949 -350 1061 -350 c 1,2,-1
 1061 -393 l 1,3,-1
 618 -393 l 1,4,-1
 618 -350 l 1,5,6
 731 -350 731 -350 748 -309 c 1,7,-1
 748 47 l 1,8,9
 652 -20 652 -20 498 -20 c 0,10,11
 382 -20 382 -20 282 37 c 0,12,13
 158 107 158 107 108 255 c 0,14,15
 80 339 80 339 80 446 c 0,16,17
 80 675 80 675 208 798.5 c 128,-1,18
 336 922 336 922 543 922 c 0,19,20
 679 922 679 922 772 854 c 1,21,22
 878 922 878 922 932 922 c 1,23,-1
 932 -309 l 1,0,1
748 113 m 1,24,-1
 748 805 l 1,25,26
 675 852 675 852 558.5 852 c 128,-1,27
 442 852 442 852 358 744.5 c 128,-1,28
 274 637 274 637 274 451.5 c 128,-1,29
 274 266 274 266 342 157.5 c 128,-1,30
 410 49 410 49 518 49 c 0,31,32
 661 49 661 49 748 113 c 1,24,-1
EndSplineSet
Validated: 1
EndChar

StartChar: r
Encoding: 114 114 83
Width: 808
Flags: MW
AnchorPoint: "top" 498 1055 basechar 0
AnchorPoint: "below" 289 0 basechar 0
LayerCount: 2
Fore
SplineSet
377 84 m 1,0,1
 394 43 394 43 506 43 c 1,2,-1
 506 0 l 1,3,-1
 63 0 l 1,4,-1
 63 43 l 1,5,6
 176 43 176 43 193 84 c 1,7,-1
 193 776 l 1,8,9
 66 786 66 786 63 786 c 1,10,-1
 63 834 l 1,11,12
 102 834 102 834 216 878 c 128,-1,13
 330 922 330 922 377 922 c 1,14,-1
 377 831 l 1,15,16
 480 922 480 922 575.5 922 c 128,-1,17
 671 922 671 922 734 886.5 c 128,-1,18
 797 851 797 851 797 812 c 0,19,20
 797 735 797 735 715 735 c 0,21,22
 662 736 662 736 636 794 c 0,23,24
 626 816 626 816 606 834 c 128,-1,25
 586 852 586 852 557 852 c 0,26,27
 478 852 478 852 377 764 c 1,28,-1
 377 84 l 1,0,1
EndSplineSet
Validated: 1
EndChar

StartChar: s
Encoding: 115 115 84
Width: 829
Flags: MW
AnchorPoint: "top" 416 1055 basechar 0
AnchorPoint: "below" 360 0 basechar 0
AnchorPoint: "cedilla" 360 0 basechar 0
AnchorPoint: "mid" 440 471 basechar 0
LayerCount: 2
Fore
SplineSet
616 860 m 4,0,1
 641 860 641 860 641 901 c 5,2,-1
 688 901 l 5,3,-1
 688 655 l 5,4,-1
 643 655 l 5,5,6
 631 740 631 740 560 800 c 132,-1,7
 489 860 489 860 410 860 c 132,-1,8
 331 860 331 860 287.5 829.5 c 132,-1,9
 244 799 244 799 244 745 c 4,10,11
 244 690 244 690 267 665 c 132,-1,12
 290 640 290 640 305 628 c 132,-1,13
 320 616 320 616 348.5 603 c 132,-1,14
 377 590 377 590 395 582 c 4,15,16
 414 574 414 574 450 562 c 4,17,18
 602 510 602 510 682 431.5 c 132,-1,19
 762 353 762 353 762 240.5 c 132,-1,20
 762 128 762 128 661.5 54 c 132,-1,21
 561 -20 561 -20 408 -20 c 4,22,23
 318 -20 318 -20 230 32 c 4,24,25
 200 50 200 50 187 49.5 c 132,-1,26
 174 49 174 49 157.5 33 c 132,-1,27
 141 17 141 17 141 0 c 5,28,-1
 92 0 l 5,29,-1
 92 289 l 5,30,-1
 137 289 l 5,31,32
 151 185 151 185 234 113 c 132,-1,33
 317 41 317 41 424 41 c 4,34,35
 425 41 425 41 427 41 c 4,36,37
 513 41 513 41 578 100 c 4,38,39
 618 136 618 136 618 184 c 132,-1,40
 618 232 618 232 580 274 c 4,41,42
 517 343 517 343 375 393 c 5,43,44
 217 450 217 450 162 512 c 4,45,46
 104 577 104 577 104 683 c 132,-1,47
 104 789 104 789 187.5 855.5 c 132,-1,48
 271 922 271 922 391 922 c 4,49,50
 474 922 474 922 570 876 c 4,51,52
 602 860 602 860 616 860 c 4,0,1
EndSplineSet
Validated: 1
EndChar

StartChar: t
Encoding: 116 116 85
Width: 681
Flags: MWO
AnchorPoint: "top" 324 1270 basechar 0
AnchorPoint: "cedilla" 377 0 basechar 0
AnchorPoint: "below" 377 0 basechar 0
LayerCount: 2
Fore
SplineSet
369 1198 m 1,0,-1
 369 901 l 1,1,-1
 545 901 l 1,2,-1
 545 840 l 1,3,-1
 369 840 l 1,4,-1
 369 188 l 2,5,6
 369 124 369 124 392 90.5 c 128,-1,7
 415 57 415 57 463 57 c 128,-1,8
 511 57 511 57 549.5 93.5 c 128,-1,9
 588 130 588 130 602 193 c 1,10,-1
 651 168 l 1,11,12
 607 -20 607 -20 406 -20 c 0,13,14
 172 -20 172 -20 172 205 c 2,15,-1
 172 840 l 1,16,-1
 29 840 l 1,17,-1
 29 901 l 1,18,19
 126 901 126 901 203.5 981 c 128,-1,20
 281 1061 281 1061 281 1198 c 1,21,-1
 369 1198 l 1,0,-1
EndSplineSet
Validated: 1
EndChar

StartChar: u
Encoding: 117 117 86
Width: 1126
Flags: MW
AnchorPoint: "top" 555 1055 basechar 0
AnchorPoint: "cedilla" 539 0 basechar 0
AnchorPoint: "below" 563 0 basechar 0
AnchorPoint: "ogonek" 795 0 basechar 0
AnchorPoint: "mid" 553 504 basechar 0
LayerCount: 2
Fore
SplineSet
768 817 m 1,0,1
 751 858 751 858 639 858 c 1,2,-1
 639 901 l 1,3,-1
 952 901 l 1,4,-1
 952 125 l 1,5,6
 1080 115 1080 115 1081 115 c 1,7,-1
 1081 68 l 1,8,9
 1042 68 1042 68 929 24 c 128,-1,10
 816 -20 816 -20 768 -20 c 1,11,-1
 768 74 l 1,12,13
 658 -20 658 -20 524 -20 c 0,14,15
 333 -20 333 -20 248.5 50 c 128,-1,16
 164 120 164 120 164 270 c 2,17,-1
 164 817 l 1,18,19
 147 858 147 858 35 858 c 1,20,-1
 35 901 l 1,21,-1
 348 901 l 1,22,-1
 348 256 l 2,23,24
 348 49 348 49 537 49 c 0,25,26
 665 49 665 49 768 139 c 1,27,-1
 768 817 l 1,0,1
EndSplineSet
Validated: 1
EndChar

StartChar: v
Encoding: 118 118 87
Width: 989
Flags: MW
AnchorPoint: "top" 537 1055 basechar 0
AnchorPoint: "below" 492 0 basechar 0
LayerCount: 2
Fore
SplineSet
387 901 m 1,0,-1
 387 858 l 1,1,2
 328 858 328 858 301 850 c 1,3,-1
 545 250 l 1,4,-1
 778 836 l 1,5,6
 750 858 750 858 664 858 c 1,7,-1
 664 901 l 1,8,-1
 999 901 l 1,9,-1
 999 858 l 1,10,11
 886 858 886 858 872 819 c 1,12,-1
 545 0 l 1,13,-1
 444 0 l 1,14,-1
 119 817 l 2,15,16
 102 858 102 858 -10 858 c 1,17,-1
 -10 901 l 1,18,-1
 387 901 l 1,0,-1
EndSplineSet
Validated: 1
EndChar

StartChar: w
Encoding: 119 119 88
Width: 1556
Flags: MW
AnchorPoint: "top" 772 1055 basechar 0
AnchorPoint: "below" 786 0 basechar 0
LayerCount: 2
Fore
SplineSet
387 901 m 1,0,-1
 387 858 l 1,1,2
 328 858 328 858 301 850 c 1,3,-1
 545 250 l 1,4,-1
 729 711 l 1,5,-1
 686 817 l 2,6,7
 669 858 669 858 557 858 c 1,8,-1
 557 901 l 1,9,-1
 954 901 l 1,10,-1
 954 858 l 1,11,12
 895 858 895 858 868 850 c 1,13,-1
 1112 250 l 1,14,-1
 1346 836 l 1,15,16
 1318 858 1318 858 1231 858 c 1,17,-1
 1231 901 l 1,18,-1
 1567 901 l 1,19,-1
 1567 858 l 1,20,21
 1456 858 1456 858 1440 819 c 2,22,-1
 1112 0 l 1,23,-1
 1012 0 l 1,24,-1
 778 586 l 1,25,-1
 545 0 l 1,26,-1
 444 0 l 1,27,-1
 119 817 l 2,28,29
 102 858 102 858 -10 858 c 1,30,-1
 -10 901 l 1,31,-1
 387 901 l 1,0,-1
EndSplineSet
Validated: 1
EndChar

StartChar: x
Encoding: 120 120 89
Width: 956
Flags: MW
LayerCount: 2
Fore
SplineSet
897 901 m 1,0,-1
 897 858 l 1,1,2
 790 858 790 858 760 819 c 1,3,-1
 559 520 l 1,4,-1
 831 82 l 2,5,6
 854 43 854 43 958 43 c 1,7,-1
 958 0 l 1,8,-1
 561 0 l 1,9,-1
 561 43 l 1,10,11
 612 43 612 43 639 49 c 1,12,-1
 449 356 l 1,13,-1
 248 57 l 1,14,15
 273 43 273 43 350 43 c 1,16,-1
 350 0 l 1,17,-1
 14 0 l 1,18,-1
 14 43 l 1,19,20
 124 43 124 43 154 86 c 2,21,-1
 393 442 l 1,22,-1
 156 825 l 2,23,24
 136 858 136 858 35 858 c 1,25,-1
 35 901 l 1,26,-1
 432 901 l 1,27,-1
 432 858 l 1,28,29
 382 858 382 858 352 852 c 1,30,-1
 504 606 l 1,31,-1
 664 844 l 1,32,33
 639 858 639 858 561 858 c 1,34,-1
 561 901 l 1,35,-1
 897 901 l 1,0,-1
EndSplineSet
Validated: 1
EndChar

StartChar: y
Encoding: 121 121 90
Width: 989
Flags: MW
AnchorPoint: "top" 532 1055 basechar 0
AnchorPoint: "ogonek" 692 0 basechar 0
AnchorPoint: "below" 623 0 basechar 0
LayerCount: 2
Fore
SplineSet
387 901 m 1,0,-1
 387 858 l 1,1,2
 328 858 328 858 301 850 c 1,3,-1
 545 250 l 1,4,-1
 778 836 l 1,5,6
 750 858 750 858 664 858 c 1,7,-1
 664 901 l 1,8,-1
 999 901 l 1,9,-1
 999 858 l 1,10,11
 887 858 887 858 872 821 c 2,12,-1
 461 -209 l 2,13,14
 422 -305 422 -305 361 -349 c 128,-1,15
 300 -393 300 -393 247.5 -393 c 128,-1,16
 195 -393 195 -393 165 -366 c 128,-1,17
 135 -339 135 -339 135 -305.5 c 128,-1,18
 135 -272 135 -272 156.5 -247.5 c 128,-1,19
 178 -223 178 -223 207.5 -223 c 128,-1,20
 237 -223 237 -223 261.5 -240.5 c 128,-1,21
 286 -258 286 -258 299 -258 c 0,22,23
 343 -258 343 -258 356 -221 c 1,24,-1
 444 0 l 1,25,-1
 119 817 l 2,26,27
 102 858 102 858 -10 858 c 1,28,-1
 -10 901 l 1,29,-1
 387 901 l 1,0,-1
EndSplineSet
Validated: 1
EndChar

StartChar: z
Encoding: 122 122 91
Width: 870
Flags: MW
AnchorPoint: "top" 442 1053 basechar 0
AnchorPoint: "cedilla" 430 -2 basechar 0
AnchorPoint: "below" 430 -2 basechar 0
AnchorPoint: "mid" 440 481 basechar 0
LayerCount: 2
Fore
SplineSet
709 61 m 1,0,1
 750 78 750 78 750 190 c 1,2,-1
 793 190 l 1,3,-1
 793 0 l 1,4,-1
 35 0 l 1,5,-1
 578 840 l 1,6,-1
 184 840 l 1,7,8
 143 823 143 823 143 711 c 1,9,-1
 100 711 l 1,10,-1
 100 901 l 1,11,-1
 809 901 l 1,12,-1
 266 61 l 1,13,-1
 709 61 l 1,0,1
EndSplineSet
Validated: 1
EndChar

StartChar: braceleft
Encoding: 123 123 92
Width: 536
Flags: MW
LayerCount: 2
Fore
SplineSet
344 289 m 1,0,-1
 322 -143 l 1,1,2
 322 -212 322 -212 360.5 -238 c 128,-1,3
 399 -264 399 -264 479 -264 c 1,4,-1
 479 -313 l 1,5,6
 180 -313 180 -313 180 -125 c 1,7,-1
 199 307 l 1,8,9
 199 377 199 377 161.5 402.5 c 128,-1,10
 124 428 124 428 45 428 c 1,11,-1
 45 475 l 1,12,13
 124 475 124 475 161.5 501.5 c 128,-1,14
 199 528 199 528 199 598 c 1,15,-1
 180 1028 l 1,16,17
 180 1217 180 1217 479 1217 c 1,18,-1
 479 1169 l 1,19,20
 400 1169 400 1169 361 1143 c 128,-1,21
 322 1117 322 1117 322 1047 c 1,22,-1
 344 616 l 1,23,24
 344 497 344 497 221 453 c 1,25,26
 344 409 344 409 344 289 c 1,0,-1
EndSplineSet
Validated: 1
EndChar

StartChar: bar
Encoding: 124 124 93
Width: 385
Flags: MW
LayerCount: 2
Fore
SplineSet
156 1331 m 1,0,-1
 229 1331 l 1,1,-1
 229 -61 l 1,2,-1
 156 -61 l 1,3,-1
 156 1331 l 1,0,-1
EndSplineSet
Validated: 1
EndChar

StartChar: braceright
Encoding: 125 125 94
Width: 536
Flags: MW
LayerCount: 2
Fore
SplineSet
193 614 m 1,0,-1
 215 1047 l 1,1,2
 215 1116 215 1116 176 1141.5 c 128,-1,3
 137 1167 137 1167 57 1167 c 1,4,-1
 57 1217 l 1,5,6
 356 1217 356 1217 356 1028 c 1,7,-1
 338 596 l 1,8,9
 338 526 338 526 375.5 500.5 c 128,-1,10
 413 475 413 475 492 475 c 1,11,-1
 492 428 l 1,12,13
 413 428 413 428 375.5 401.5 c 128,-1,14
 338 375 338 375 338 305 c 1,15,-1
 356 -125 l 1,16,17
 356 -313 356 -313 57 -313 c 1,18,-1
 57 -266 l 1,19,20
 136 -266 136 -266 175.5 -239.5 c 128,-1,21
 215 -213 215 -213 215 -143 c 1,22,-1
 193 287 l 1,23,24
 193 407 193 407 315 451 c 1,25,26
 193 495 193 495 193 614 c 1,0,-1
EndSplineSet
Validated: 1
EndChar

StartChar: asciitilde
Encoding: 126 126 95
Width: 1116
Flags: MW
LayerCount: 2
Fore
SplineSet
791 426 m 0,0,1
 731 426 731 426 539.5 496.5 c 128,-1,2
 348 567 348 567 311 567 c 0,3,4
 233 567 233 567 204.5 532.5 c 128,-1,5
 176 498 176 498 176 426 c 1,6,-1
 123 426 l 1,7,8
 123 696 123 696 332 696 c 0,9,10
 392 696 392 696 584 625.5 c 128,-1,11
 776 555 776 555 813 555 c 0,12,13
 891 555 891 555 919.5 589.5 c 128,-1,14
 948 624 948 624 948 696 c 1,15,-1
 1001 696 l 1,16,17
 1001 426 1001 426 791 426 c 0,0,1
EndSplineSet
Validated: 1
EndChar

StartChar: exclamdown
Encoding: 161 161 97
Width: 477
Flags: MW
LayerCount: 2
Fore
SplineSet
360 961 m 128,-1,1
 360 911 360 911 327 871 c 128,-1,2
 294 831 294 831 244 831 c 128,-1,3
 194 831 194 831 154.5 867.5 c 128,-1,4
 115 904 115 904 115 954 c 128,-1,5
 115 1004 115 1004 149.5 1044.5 c 128,-1,6
 184 1085 184 1085 234 1085 c 128,-1,7
 284 1085 284 1085 322 1048 c 128,-1,0
 360 1011 360 1011 360 961 c 128,-1,1
240 684 m 128,-1,9
 270 684 270 684 287 545 c 0,10,11
 292 504 292 504 316 222 c 0,12,13
 340 -58 340 -58 340 -118 c 128,-1,14
 340 -178 340 -178 312 -201.5 c 128,-1,15
 284 -225 284 -225 240 -225 c 128,-1,16
 196 -225 196 -225 167.5 -201.5 c 128,-1,17
 139 -178 139 -178 139 -118 c 128,-1,18
 139 -58 139 -58 163.5 225 c 128,-1,19
 188 508 188 508 193 545 c 0,20,8
 210 684 210 684 240 684 c 128,-1,9
EndSplineSet
Validated: 1
EndChar

StartChar: cent
Encoding: 162 162 98
Width: 968
Flags: MW
LayerCount: 2
Fore
SplineSet
625 915 m 1,0,1
 858 884 858 884 858 705 c 0,2,3
 858 659 858 659 834 630.5 c 128,-1,4
 810 602 810 602 771.5 602 c 128,-1,5
 733 602 733 602 705.5 620.5 c 128,-1,6
 678 639 678 639 678 678 c 128,-1,7
 678 717 678 717 699.5 737.5 c 128,-1,8
 721 758 721 758 750 758 c 1,9,10
 728 840 728 840 614 856 c 1,11,-1
 479 82 l 1,12,13
 527 57 527 57 597 57 c 0,14,15
 752 57 752 57 862 193 c 1,16,-1
 911 168 l 1,17,18
 851 71 851 71 756.5 25.5 c 128,-1,19
 662 -20 662 -20 506 -20 c 0,20,21
 475 -20 475 -20 461 -18 c 1,22,-1
 418 -262 l 1,23,-1
 342 -248 l 1,24,-1
 385 -6 l 1,25,26
 251 30 251 30 164 136 c 0,27,28
 63 260 63 260 63 496 c 0,29,30
 63 670 63 670 185 794 c 0,31,32
 311 922 311 922 520 922 c 2,33,-1
 549 922 l 1,34,-1
 594 1174 l 1,35,-1
 668 1159 l 1,36,-1
 625 915 l 1,0,1
410 131 m 1,37,-1
 539 860 l 1,38,39
 414 858 414 858 336 762 c 128,-1,40
 258 666 258 666 258 504 c 0,41,42
 258 394 258 394 300 294 c 128,-1,43
 342 194 342 194 410 131 c 1,37,-1
EndSplineSet
Validated: 1
EndChar

StartChar: sterling
Encoding: 163 163 99
Width: 1091
Flags: MW
LayerCount: 2
Fore
SplineSet
506 205 m 1,0,1
 603 147 603 147 689 147 c 128,-1,2
 775 147 775 147 831.5 159.5 c 128,-1,3
 888 172 888 172 918 189 c 128,-1,4
 948 206 948 206 967.5 223.5 c 128,-1,5
 987 241 987 241 997 253.5 c 128,-1,6
 1007 266 1007 266 1012 266 c 0,7,8
 1032 266 1032 266 1032 242 c 0,9,10
 1032 226 1032 226 1010 180.5 c 128,-1,11
 988 135 988 135 962 104 c 128,-1,12
 936 73 936 73 902 46 c 0,13,14
 825 -16 825 -16 703.5 -16 c 128,-1,15
 582 -16 582 -16 457 92 c 1,16,17
 383 -20 383 -20 274 -20 c 128,-1,18
 165 -20 165 -20 112 35.5 c 128,-1,19
 59 91 59 91 59 158.5 c 128,-1,20
 59 226 59 226 115 279 c 128,-1,21
 171 332 171 332 230.5 332 c 128,-1,22
 290 332 290 332 354 301 c 1,23,-1
 354 311 l 2,24,25
 354 373 354 373 339 496.5 c 128,-1,26
 324 620 324 620 322 707 c 1,27,-1
 182 707 l 1,28,-1
 182 797 l 1,29,-1
 322 797 l 1,30,31
 329 1018 329 1018 402 1118.5 c 128,-1,32
 475 1219 475 1219 612.5 1219 c 128,-1,33
 750 1219 750 1219 836 1172 c 128,-1,34
 922 1125 922 1125 922 1040 c 0,35,36
 922 1003 922 1003 895 980.5 c 128,-1,37
 868 958 868 958 835 958 c 128,-1,38
 802 958 802 958 778 980.5 c 128,-1,39
 754 1003 754 1003 754 1035 c 128,-1,40
 754 1067 754 1067 774 1087 c 1,41,42
 774 1120 774 1120 727.5 1138.5 c 128,-1,43
 681 1157 681 1157 627 1157 c 0,44,45
 508 1157 508 1157 506 797 c 1,46,-1
 723 797 l 1,47,-1
 723 707 l 1,48,-1
 508 707 l 1,49,50
 510 658 510 658 518 548 c 128,-1,51
 526 438 526 438 526 356.5 c 128,-1,52
 526 275 526 275 506 205 c 1,0,1
348 197 m 1,53,54
 283 262 283 262 237.5 262 c 128,-1,55
 192 262 192 262 160.5 233.5 c 128,-1,56
 129 205 129 205 129 159.5 c 128,-1,57
 129 114 129 114 165 81.5 c 128,-1,58
 201 49 201 49 256 49 c 0,59,60
 330 49 330 49 348 197 c 1,53,54
EndSplineSet
Validated: 1
EndChar

StartChar: currency
Encoding: 164 164 100
Width: 1046
Flags: MW
LayerCount: 2
Fore
SplineSet
231 537 m 128,-1,1
 231 416 231 416 316.5 330 c 128,-1,2
 402 244 402 244 524 244 c 128,-1,3
 646 244 646 244 731.5 330 c 128,-1,4
 817 416 817 416 817 537 c 128,-1,5
 817 658 817 658 731.5 743.5 c 128,-1,6
 646 829 646 829 524 829 c 128,-1,7
 402 829 402 829 316.5 743.5 c 128,-1,0
 231 658 231 658 231 537 c 128,-1,1
219 301 m 1,8,9
 139 409 139 409 139 538 c 0,10,11
 139 667 139 667 223 776 c 1,12,-1
 109 889 l 1,13,-1
 174 954 l 1,14,-1
 287 840 l 1,15,16
 392 922 392 922 522 922 c 0,17,18
 652 922 652 922 760 842 c 1,19,-1
 870 954 l 1,20,-1
 936 889 l 1,21,-1
 825 778 l 1,22,23
 909 673 909 673 909 539 c 0,24,25
 909 405 909 405 827 299 c 1,26,-1
 936 193 l 1,27,-1
 870 127 l 1,28,-1
 764 236 l 1,29,30
 656 152 656 152 522 152 c 0,31,32
 388 152 388 152 283 236 c 1,33,-1
 174 127 l 1,34,-1
 109 193 l 1,35,-1
 219 301 l 1,8,9
EndSplineSet
Validated: 1
EndChar

StartChar: yen
Encoding: 165 165 101
Width: 1107
Flags: MW
LayerCount: 2
Fore
SplineSet
336 43 m 1,0,1
 448 43 448 43 465 84 c 1,2,-1
 465 156 l 1,3,-1
 287 156 l 1,4,-1
 287 246 l 1,5,-1
 465 246 l 1,6,-1
 465 360 l 1,7,-1
 287 360 l 1,8,-1
 287 451 l 1,9,-1
 442 451 l 1,10,-1
 178 1114 l 2,11,12
 161 1155 161 1155 49 1155 c 1,13,-1
 49 1198 l 1,14,-1
 446 1198 l 1,15,-1
 446 1155 l 1,16,17
 387 1155 387 1155 360 1147 c 1,18,-1
 604 547 l 1,19,-1
 838 1133 l 1,20,21
 810 1155 810 1155 723 1155 c 1,22,-1
 723 1198 l 1,23,-1
 1059 1198 l 1,24,-1
 1059 1155 l 1,25,26
 946 1155 946 1155 932 1116 c 1,27,-1
 666 451 l 1,28,-1
 827 451 l 1,29,-1
 827 360 l 1,30,-1
 653 360 l 1,31,-1
 653 246 l 1,32,-1
 827 246 l 1,33,-1
 827 156 l 1,34,-1
 653 156 l 1,35,-1
 653 84 l 1,36,37
 670 43 670 43 782 43 c 1,38,-1
 782 0 l 1,39,-1
 336 0 l 1,40,-1
 336 43 l 1,0,1
EndSplineSet
Validated: 1
EndChar

StartChar: brokenbar
Encoding: 166 166 102
Width: 393
Flags: MW
LayerCount: 2
Fore
SplineSet
160 1331 m 1,0,-1
 233 1331 l 1,1,-1
 233 741 l 1,2,-1
 160 741 l 1,3,-1
 160 1331 l 1,0,-1
160 528 m 1,4,-1
 233 528 l 1,5,-1
 233 -61 l 1,6,-1
 160 -61 l 1,7,-1
 160 528 l 1,4,-1
EndSplineSet
Validated: 1
EndChar

StartChar: section
Encoding: 167 167 103
Width: 839
Flags: MW
LayerCount: 2
Fore
SplineSet
686.5 962.5 m 128,-1,1
 668 938 668 938 637 938 c 128,-1,2
 606 938 606 938 583.5 961 c 128,-1,3
 561 984 561 984 561 1028.5 c 128,-1,4
 561 1073 561 1073 528.5 1126.5 c 128,-1,5
 496 1180 496 1180 433.5 1180 c 128,-1,6
 371 1180 371 1180 331 1154 c 128,-1,7
 291 1128 291 1128 291 1057 c 0,8,9
 292 998 292 998 456 834 c 0,10,11
 524 766 524 766 593 694 c 0,12,13
 758 521 758 521 758 406 c 0,14,15
 758 154 758 154 557 86 c 1,16,17
 705 -58 705 -58 705 -172 c 0,18,19
 705 -252 705 -252 611 -318.5 c 128,-1,20
 517 -385 517 -385 383 -385 c 0,21,22
 291 -385 291 -385 213 -311.5 c 128,-1,23
 135 -238 135 -238 135 -184 c 0,24,25
 135 -151 135 -151 153.5 -126.5 c 128,-1,26
 172 -102 172 -102 203 -102 c 128,-1,27
 234 -102 234 -102 256.5 -125 c 128,-1,28
 279 -148 279 -148 279 -192.5 c 128,-1,29
 279 -237 279 -237 311.5 -290.5 c 128,-1,30
 344 -344 344 -344 406 -344 c 128,-1,31
 468 -344 468 -344 508.5 -318 c 128,-1,32
 549 -292 549 -292 549 -221 c 0,33,34
 548 -162 548 -162 384 2 c 0,35,36
 316 70 316 70 247 142 c 0,37,38
 82 315 82 315 82 430 c 0,39,40
 82 682 82 682 283 750 c 1,41,42
 135 894 135 894 135 1008 c 0,43,44
 135 1088 135 1088 229 1154.5 c 128,-1,45
 323 1221 323 1221 457 1221 c 0,46,47
 549 1221 549 1221 627 1147.5 c 128,-1,48
 705 1074 705 1074 705 1020 c 0,49,0
 705 987 705 987 686.5 962.5 c 128,-1,1
500 141 m 1,50,51
 562 160 562 160 598.5 198 c 128,-1,52
 635 236 635 236 635 275.5 c 128,-1,53
 635 315 635 315 627 344 c 128,-1,54
 619 373 619 373 609 396.5 c 128,-1,55
 599 420 599 420 577 450.5 c 128,-1,56
 555 481 555 481 540 500 c 128,-1,57
 525 519 525 519 492.5 551 c 128,-1,58
 460 583 460 583 444.5 597.5 c 128,-1,59
 429 612 429 612 391 647 c 128,-1,60
 353 682 353 682 340 694 c 1,61,62
 278 675 278 675 241.5 637.5 c 128,-1,63
 205 600 205 600 205 560.5 c 128,-1,64
 205 521 205 521 213 491.5 c 128,-1,65
 221 462 221 462 231 439 c 128,-1,66
 241 416 241 416 263.5 385 c 128,-1,67
 286 354 286 354 300 336 c 128,-1,68
 314 318 314 318 348 284 c 0,69,70
 382 252 382 252 396 238 c 0,71,72
 446 192 446 192 500 141 c 1,50,51
EndSplineSet
Validated: 1
EndChar

StartChar: dieresis
Encoding: 168 168 104
Width: 823
Flags: MW
LayerCount: 2
Fore
SplineSet
500 1124 m 128,-1,1
 500 1165 500 1165 529.5 1195 c 128,-1,2
 559 1225 559 1225 600 1225 c 128,-1,3
 641 1225 641 1225 670.5 1195 c 128,-1,4
 700 1165 700 1165 700 1124 c 128,-1,5
 700 1083 700 1083 670.5 1053.5 c 128,-1,6
 641 1024 641 1024 600 1024 c 128,-1,7
 559 1024 559 1024 529.5 1053.5 c 128,-1,0
 500 1083 500 1083 500 1124 c 128,-1,1
123 1124 m 128,-1,9
 123 1165 123 1165 152.5 1195 c 128,-1,10
 182 1225 182 1225 223 1225 c 128,-1,11
 264 1225 264 1225 294 1195 c 128,-1,12
 324 1165 324 1165 324 1124 c 128,-1,13
 324 1083 324 1083 294 1053.5 c 128,-1,14
 264 1024 264 1024 223 1024 c 128,-1,15
 182 1024 182 1024 152.5 1053.5 c 128,-1,8
 123 1083 123 1083 123 1124 c 128,-1,9
EndSplineSet
Validated: 1
EndChar

StartChar: copyright
Encoding: 169 169 105
Width: 1312
Flags: MW
LayerCount: 2
Fore
SplineSet
147 549 m 128,-1,1
 147 411 147 411 215.5 293.5 c 128,-1,2
 284 176 284 176 401.5 107.5 c 128,-1,3
 519 39 519 39 657 39 c 128,-1,4
 795 39 795 39 912.5 107.5 c 128,-1,5
 1030 176 1030 176 1098.5 293.5 c 128,-1,6
 1167 411 1167 411 1167 549 c 128,-1,7
 1167 687 1167 687 1098.5 804.5 c 128,-1,8
 1030 922 1030 922 912.5 990.5 c 128,-1,9
 795 1059 795 1059 657 1059 c 128,-1,10
 519 1059 519 1059 401.5 990.5 c 128,-1,11
 284 922 284 922 215.5 804.5 c 128,-1,0
 147 687 147 687 147 549 c 128,-1,1
92 549 m 128,-1,13
 92 702 92 702 168 832 c 128,-1,14
 244 962 244 962 374 1038 c 128,-1,15
 504 1114 504 1114 657 1114 c 128,-1,16
 810 1114 810 1114 940.5 1038 c 128,-1,17
 1071 962 1071 962 1147 832 c 128,-1,18
 1223 702 1223 702 1223 549 c 128,-1,19
 1223 396 1223 396 1147 266 c 128,-1,20
 1071 136 1071 136 940.5 60 c 128,-1,21
 810 -16 810 -16 657 -16 c 128,-1,22
 504 -16 504 -16 374 60 c 128,-1,23
 244 136 244 136 168 266 c 128,-1,12
 92 396 92 396 92 549 c 128,-1,13
772 795.5 m 128,-1,25
 743 823 743 823 670 823 c 128,-1,26
 597 823 597 823 543 752 c 128,-1,27
 489 681 489 681 489 559.5 c 128,-1,28
 489 438 489 438 548 365.5 c 128,-1,29
 607 293 607 293 673.5 293 c 128,-1,30
 740 293 740 293 786.5 329.5 c 128,-1,31
 833 366 833 366 848 408 c 1,32,-1
 891 387 l 1,33,34
 833 238 833 238 666 238 c 0,35,36
 570 238 570 238 499 284 c 0,37,38
 362 373 362 373 362 549 c 0,39,40
 362 649 362 649 408 726 c 0,41,42
 500 879 500 879 682 879 c 0,43,44
 730 879 730 879 761 863.5 c 128,-1,45
 792 848 792 848 794.5 848 c 128,-1,46
 797 848 797 848 797 868 c 1,47,-1
 842 868 l 1,48,-1
 852 717 l 1,49,-1
 811 717 l 1,50,24
 801 768 801 768 772 795.5 c 128,-1,25
EndSplineSet
Validated: 1
EndChar

StartChar: ordfeminine
Encoding: 170 170 106
Width: 743
Flags: MW
LayerCount: 2
Fore
SplineSet
131 317 m 1,0,-1
 623 317 l 1,1,-1
 623 264 l 1,2,-1
 131 264 l 1,3,-1
 131 317 l 1,0,-1
238 844 m 1,4,5
 270 836 270 836 270 792 c 128,-1,6
 270 748 270 748 213 748 c 0,7,8
 187 748 187 748 173.5 766.5 c 128,-1,9
 160 785 160 785 160 809 c 0,10,11
 160 870 160 870 208.5 901 c 128,-1,12
 257 932 257 932 347.5 932 c 128,-1,13
 438 932 438 932 485 881 c 128,-1,14
 532 830 532 830 532 750 c 2,15,-1
 532 547 l 2,16,17
 532 494 532 494 559 494 c 0,18,19
 576 494 576 494 580 499.5 c 128,-1,20
 584 505 584 505 584 518 c 1,21,-1
 623 518 l 1,22,23
 623 476 623 476 599.5 459 c 128,-1,24
 576 442 576 442 521 442 c 128,-1,25
 466 442 466 442 442 479 c 1,26,27
 379 440 379 440 295 440 c 0,28,29
 131 440 131 440 131 575 c 0,30,31
 131 636 131 636 208 668 c 0,32,33
 275 695 275 695 340 709 c 128,-1,34
 405 723 405 723 420 727 c 1,35,36
 418 810 418 810 398.5 842 c 128,-1,37
 379 874 379 874 317.5 874 c 128,-1,38
 256 874 256 874 238 844 c 1,4,5
424 524 m 1,39,40
 420 547 420 547 420 575 c 2,41,-1
 420 682 l 1,42,43
 412 679 412 679 385.5 671.5 c 128,-1,44
 359 664 359 664 349 660.5 c 128,-1,45
 339 657 339 657 318 649.5 c 128,-1,46
 297 642 297 642 288 636 c 0,47,48
 279 630 279 630 267 620 c 0,49,50
 246 603 246 603 246 564.5 c 128,-1,51
 246 526 246 526 262 511 c 128,-1,52
 278 496 278 496 324 496 c 128,-1,53
 370 496 370 496 424 524 c 1,39,40
EndSplineSet
Validated: 1
EndChar

StartChar: guillemotleft
Encoding: 171 171 107
Width: 894
Flags: MW
LayerCount: 2
Fore
SplineSet
106 664 m 2,0,-1
 438 856 l 1,1,-1
 438 803 l 1,2,-1
 260 612 l 1,3,-1
 438 422 l 1,4,-1
 438 369 l 1,5,-1
 106 561 l 2,6,7
 80 574 80 574 80 612 c 0,8,9
 80 650 80 650 106 664 c 2,0,-1
434 664 m 2,10,-1
 766 856 l 1,11,-1
 766 803 l 1,12,-1
 588 612 l 1,13,-1
 766 422 l 1,14,-1
 766 369 l 1,15,-1
 434 561 l 2,16,17
 408 574 408 574 408 612 c 0,18,19
 408 650 408 650 434 664 c 2,10,-1
EndSplineSet
Validated: 1
EndChar

StartChar: logicalnot
Encoding: 172 172 108
Width: 868
Flags: MW
LayerCount: 2
Fore
SplineSet
645 606 m 1,0,-1
 133 606 l 1,1,-1
 133 696 l 1,2,-1
 731 696 l 1,3,-1
 731 426 l 1,4,-1
 645 426 l 1,5,-1
 645 606 l 1,0,-1
EndSplineSet
Validated: 1
EndChar

StartChar: uni00AD
Encoding: 173 173 109
Width: 794
Flags: MW
LayerCount: 2
Fore
SplineSet
127 696 m 1,0,-1
 668 696 l 1,1,-1
 668 606 l 1,2,-1
 127 606 l 1,3,-1
 127 696 l 1,0,-1
EndSplineSet
Validated: 1
EndChar

StartChar: registered
Encoding: 174 174 110
Width: 1312
Flags: MW
LayerCount: 2
Fore
SplineSet
147 549 m 128,-1,1
 147 411 147 411 215.5 293.5 c 128,-1,2
 284 176 284 176 401.5 107.5 c 128,-1,3
 519 39 519 39 657 39 c 128,-1,4
 795 39 795 39 912.5 107.5 c 128,-1,5
 1030 176 1030 176 1098.5 293.5 c 128,-1,6
 1167 411 1167 411 1167 549 c 128,-1,7
 1167 687 1167 687 1098.5 804.5 c 128,-1,8
 1030 922 1030 922 912.5 990.5 c 128,-1,9
 795 1059 795 1059 657 1059 c 128,-1,10
 519 1059 519 1059 401.5 990.5 c 128,-1,11
 284 922 284 922 215.5 804.5 c 128,-1,0
 147 687 147 687 147 549 c 128,-1,1
92 549 m 128,-1,13
 92 702 92 702 168 832 c 128,-1,14
 244 962 244 962 374 1038 c 128,-1,15
 504 1114 504 1114 657 1114 c 128,-1,16
 810 1114 810 1114 940.5 1038 c 128,-1,17
 1071 962 1071 962 1147 832 c 128,-1,18
 1223 702 1223 702 1223 549 c 128,-1,19
 1223 396 1223 396 1147 266 c 128,-1,20
 1071 136 1071 136 940.5 60 c 128,-1,21
 810 -16 810 -16 657 -16 c 128,-1,22
 504 -16 504 -16 374 60 c 128,-1,23
 244 136 244 136 168 266 c 128,-1,12
 92 396 92 396 92 549 c 128,-1,13
895 709 m 0,24,25
 895 586 895 586 766 541 c 1,26,-1
 897 307 l 1,27,28
 902 291 902 291 965 291 c 1,29,-1
 965 250 l 1,30,-1
 911 250 l 2,31,32
 838 250 838 250 813 260.5 c 128,-1,33
 788 271 788 271 766 309 c 2,34,-1
 645 522 l 1,35,-1
 565 522 l 1,36,-1
 565 305 l 1,37,38
 571 291 571 291 629 291 c 1,39,-1
 629 250 l 1,40,-1
 387 250 l 1,41,-1
 387 291 l 1,42,43
 442 291 442 291 451 305 c 1,44,-1
 451 815 l 1,45,46
 445 827 445 827 387 827 c 1,47,-1
 387 868 l 1,48,-1
 629 868 l 2,49,50
 761 868 761 868 828 820 c 128,-1,51
 895 772 895 772 895 709 c 0,24,25
565 815 m 1,52,-1
 565 578 l 1,53,-1
 641 578 l 2,54,55
 721 578 721 578 746.5 606 c 128,-1,56
 772 634 772 634 772 697.5 c 128,-1,57
 772 761 772 761 741.5 788 c 128,-1,58
 711 815 711 815 629 815 c 2,59,-1
 565 815 l 1,52,-1
EndSplineSet
Validated: 1
EndChar

StartChar: macron
Encoding: 175 175 111
Width: 786
Flags: MW
LayerCount: 2
Fore
SplineSet
123 1143 m 1,0,-1
 664 1143 l 1,1,-1
 664 1053 l 1,2,-1
 123 1053 l 1,3,-1
 123 1143 l 1,0,-1
EndSplineSet
Validated: 1
EndChar

StartChar: degree
Encoding: 176 176 112
Width: 638
Flags: MW
LayerCount: 2
Fore
SplineSet
170 1057 m 128,-1,1
 170 996 170 996 213.5 952.5 c 128,-1,2
 257 909 257 909 319 909 c 128,-1,3
 381 909 381 909 425 952.5 c 128,-1,4
 469 996 469 996 469 1057 c 128,-1,5
 469 1118 469 1118 425 1162 c 0,6,7
 382 1206 382 1206 320 1206 c 128,-1,8
 258 1206 258 1206 214 1162 c 128,-1,0
 170 1118 170 1118 170 1057 c 128,-1,1
86 1057 m 128,-1,10
 86 1152 86 1152 155 1221 c 128,-1,11
 224 1290 224 1290 319 1290 c 128,-1,12
 414 1290 414 1290 483.5 1221 c 128,-1,13
 553 1152 553 1152 553 1057 c 128,-1,14
 553 962 553 962 483.5 893.5 c 128,-1,15
 414 825 414 825 319 825 c 128,-1,16
 224 825 224 825 155 893.5 c 128,-1,9
 86 962 86 962 86 1057 c 128,-1,10
EndSplineSet
Validated: 1
EndChar

StartChar: plusminus
Encoding: 177 177 113
Width: 851
Flags: MW
LayerCount: 2
Fore
SplineSet
133 365 m 1,0,-1
 719 365 l 1,1,-1
 719 274 l 1,2,-1
 133 274 l 1,3,-1
 133 365 l 1,0,-1
471 713 m 1,4,-1
 471 506 l 1,5,-1
 381 506 l 1,6,-1
 381 713 l 1,7,-1
 133 713 l 1,8,-1
 133 803 l 1,9,-1
 381 803 l 1,10,-1
 381 1010 l 1,11,-1
 471 1010 l 1,12,-1
 471 803 l 1,13,-1
 719 803 l 1,14,-1
 719 713 l 1,15,-1
 471 713 l 1,4,-1
EndSplineSet
Validated: 1
EndChar

StartChar: uni00B2
Encoding: 178 178 114
Width: 737
Flags: MW
LayerCount: 2
Fore
SplineSet
109 1118 m 0,0,1
 88 1118 88 1118 88 1141 c 0,2,3
 88 1177 88 1177 118 1220 c 0,4,5
 148 1264 148 1264 176 1290 c 0,6,7
 244 1352 244 1352 368 1352 c 128,-1,8
 492 1352 492 1352 557.5 1295.5 c 128,-1,9
 623 1239 623 1239 623 1141 c 0,10,11
 623 1086 623 1086 572.5 1011 c 128,-1,12
 522 936 522 936 461.5 878 c 128,-1,13
 401 820 401 820 338.5 762 c 128,-1,14
 276 704 276 704 264 688 c 1,15,-1
 539 688 l 1,16,17
 561 696 561 696 583 720 c 128,-1,18
 605 744 605 744 616 776 c 1,19,-1
 662 776 l 1,20,-1
 604 573 l 1,21,-1
 74 573 l 1,22,-1
 74 584 l 2,23,24
 74 614 74 614 213 741 c 0,25,26
 272 794 272 794 330 854 c 0,27,28
 469 997 469 997 469 1123 c 0,29,30
 469 1179 469 1179 436 1214 c 0,31,32
 402 1250 402 1250 344 1250 c 0,33,-1
 342 1250 l 0,34,35
 282 1250 282 1250 241 1236 c 128,-1,36
 200 1222 200 1222 180.5 1203 c 128,-1,37
 161 1184 161 1184 149 1164.5 c 128,-1,38
 137 1145 137 1145 128 1131.5 c 128,-1,39
 119 1118 119 1118 109 1118 c 0,0,1
EndSplineSet
Validated: 1
EndChar

StartChar: uni00B3
Encoding: 179 179 115
Width: 724
Flags: MW
LayerCount: 2
Fore
SplineSet
379 950 m 1,0,-1
 311 942 l 1,1,2
 297 942 297 942 285.5 951 c 128,-1,3
 274 960 274 960 274 968 c 128,-1,4
 274 976 274 976 278 980 c 0,5,6
 285 988 285 988 331.5 1001 c 128,-1,7
 378 1014 378 1014 405 1031 c 0,8,9
 463 1068 463 1068 463 1128 c 0,10,11
 463 1249 463 1249 326 1249 c 0,12,-1
 324 1249 l 0,13,14
 230 1249 230 1249 194 1211 c 0,15,16
 178 1195 178 1195 168.5 1179 c 128,-1,17
 159 1163 159 1163 151.5 1152 c 128,-1,18
 144 1141 144 1141 135 1141 c 128,-1,19
 126 1141 126 1141 121 1146 c 0,20,21
 113 1154 113 1154 113 1166.5 c 128,-1,22
 113 1179 113 1179 120.5 1200.5 c 128,-1,23
 128 1222 128 1222 146.5 1248.5 c 128,-1,24
 165 1275 165 1275 190 1298 c 0,25,26
 249 1352 249 1352 340 1352 c 0,27,28
 600 1352 600 1352 600 1153 c 0,29,30
 600 1067 600 1067 500 1006 c 1,31,32
 562 981 562 981 599.5 931.5 c 128,-1,33
 637 882 637 882 637 824 c 0,34,35
 637 768 637 768 624 724 c 0,36,37
 612 680 612 680 580 642 c 0,38,39
 516 565 516 565 348 565 c 0,40,41
 346 565 346 565 344 565 c 0,42,43
 180 565 180 565 95 655 c 0,44,45
 76 675 76 675 76 688 c 0,46,47
 76 734 76 734 88.5 753 c 128,-1,48
 101 772 101 772 126.5 772 c 128,-1,49
 152 772 152 772 164 757 c 128,-1,50
 176 742 176 742 186 721 c 128,-1,51
 196 700 196 700 210 678 c 0,52,53
 244 627 244 627 333 627 c 0,54,55
 335 627 335 627 336 627 c 0,56,57
 504 627 504 627 504 795 c 0,58,59
 504 851 504 851 472.5 900.5 c 128,-1,60
 441 950 441 950 379 950 c 1,0,-1
EndSplineSet
Validated: 1
EndChar

StartChar: acute
Encoding: 180 180 116
Width: 614
Flags: MW
LayerCount: 2
Fore
SplineSet
274 1356 m 1,0,-1
 492 1356 l 1,1,-1
 176 1024 l 1,2,-1
 123 1024 l 1,3,-1
 274 1356 l 1,0,-1
EndSplineSet
Validated: 1
EndChar

StartChar: uni00B5
Encoding: 181 181 117
Width: 1187
Flags: MW
LayerCount: 2
Fore
SplineSet
958 901 m 1,0,-1
 958 170 l 2,1,2
 958 105 958 105 980 73 c 128,-1,3
 1002 41 1002 41 1030.5 41 c 128,-1,4
 1059 41 1059 41 1080.5 56 c 128,-1,5
 1102 71 1102 71 1102 92 c 1,6,-1
 1139 92 l 1,7,8
 1139 33 1139 33 1096 6.5 c 128,-1,9
 1053 -20 1053 -20 950 -20 c 0,10,11
 816 -20 816 -20 784 125 c 1,12,13
 667 -20 667 -20 497.5 -20 c 128,-1,14
 328 -20 328 -20 244 49 c 1,15,-1
 244 -68 l 2,16,17
 244 -160 244 -160 292 -198 c 0,18,19
 312 -214 312 -214 332 -228 c 0,20,21
 380 -262 380 -262 380 -310 c 0,22,23
 380 -360 380 -360 348 -386 c 0,24,25
 317 -410 317 -410 275 -410 c 128,-1,26
 233 -410 233 -410 195.5 -377.5 c 128,-1,27
 158 -345 158 -345 158 -274 c 2,28,-1
 158 901 l 1,29,-1
 342 901 l 1,30,-1
 342 256 l 2,31,32
 342 49 342 49 530 49 c 0,33,34
 660 49 660 49 774 197 c 1,35,-1
 774 901 l 1,36,-1
 958 901 l 1,0,-1
EndSplineSet
Validated: 1
EndChar

StartChar: paragraph
Encoding: 182 182 118
Width: 1089
Flags: MW
LayerCount: 2
Fore
SplineSet
870 84 m 1,0,1
 887 43 887 43 999 43 c 1,2,-1
 999 0 l 1,3,-1
 682 0 l 1,4,-1
 682 1128 l 1,5,-1
 578 1128 l 1,6,-1
 578 0 l 1,7,-1
 260 0 l 1,8,-1
 260 43 l 1,9,10
 372 43 372 43 389 84 c 1,11,-1
 389 549 l 1,12,13
 234 564 234 564 147.5 651 c 128,-1,14
 61 738 61 738 61 875 c 0,15,16
 61 966 61 966 122 1046 c 0,17,18
 238 1198 238 1198 508 1198 c 2,19,-1
 999 1198 l 1,20,-1
 999 1155 l 1,21,22
 887 1155 887 1155 870 1114 c 1,23,-1
 870 84 l 1,0,1
EndSplineSet
Validated: 1
EndChar

StartChar: periodcentered
Encoding: 183 183 119
Width: 466
Flags: MW
LayerCount: 2
Fore
SplineSet
111 616 m 128,-1,1
 111 666 111 666 144 706 c 0,2,3
 178 746 178 746 227 746 c 0,4,-1
 228 746 l 0,5,6
 278 746 278 746 317 709 c 0,7,8
 356 674 356 674 356 624 c 128,-1,9
 356 574 356 574 322 533 c 0,10,11
 286 492 286 492 236 492 c 128,-1,12
 186 492 186 492 148.5 529 c 128,-1,0
 111 566 111 566 111 616 c 128,-1,1
EndSplineSet
Validated: 1
EndChar

StartChar: cedilla
Encoding: 184 184 120
Width: 622
Flags: MW
LayerCount: 2
Fore
SplineSet
254 25 m 1,0,-1
 332 25 l 1,1,-1
 295 -113 l 1,2,3
 392 -113 392 -113 460 -169 c 0,4,5
 500 -202 500 -202 500 -240 c 0,6,7
 500 -278 500 -278 490 -304 c 0,8,9
 482 -330 482 -330 458 -354 c 0,10,11
 407 -408 407 -408 274 -408 c 0,12,13
 212 -408 212 -408 123 -393 c 1,14,-1
 123 -358 l 1,15,16
 159 -362 159 -362 174 -362 c 0,17,18
 253 -362 253 -362 287.5 -332.5 c 128,-1,19
 322 -303 322 -303 322 -266 c 0,20,21
 322 -176 322 -176 197 -176 c 1,22,-1
 254 25 l 1,0,-1
EndSplineSet
Validated: 1
EndChar

StartChar: uni00B9
Encoding: 185 185 121
Width: 495
Flags: MW
LayerCount: 2
Fore
SplineSet
82 1040 m 1,0,1
 88 1050 88 1050 118 1104 c 128,-1,2
 148 1158 148 1158 166 1188 c 128,-1,3
 184 1218 184 1218 210 1260 c 0,4,5
 261 1341 261 1341 288 1341 c 0,6,-1
 289 1341 l 2,7,-1
 326 1341 l 1,8,-1
 326 641 l 1,9,10
 336 621 336 621 414 621 c 1,11,-1
 414 573 l 1,12,-1
 94 573 l 1,13,-1
 94 621 l 1,14,15
 168 621 168 621 180 641 c 1,16,-1
 180 1085 l 1,17,18
 167 1078 167 1078 156.5 1066.5 c 128,-1,19
 146 1055 146 1055 141.5 1050.5 c 128,-1,20
 137 1046 137 1046 128.5 1035.5 c 128,-1,21
 120 1025 120 1025 117 1022 c 1,22,-1
 82 1040 l 1,0,1
EndSplineSet
Validated: 1
EndChar

StartChar: ordmasculine
Encoding: 186 186 122
Width: 751
Flags: MW
LayerCount: 2
Fore
SplineSet
127 317 m 1,0,-1
 625 317 l 1,1,-1
 625 264 l 1,2,-1
 127 264 l 1,3,-1
 127 317 l 1,0,-1
506 657 m 0,4,5
 506 879 506 879 356 879 c 0,6,7
 307 879 307 879 276.5 830 c 128,-1,8
 246 781 246 781 246 690 c 128,-1,9
 246 599 246 599 287 545.5 c 128,-1,10
 328 492 328 492 386.5 492 c 128,-1,11
 445 492 445 492 475.5 538 c 128,-1,12
 506 584 506 584 506 657 c 0,4,5
564 508.5 m 128,-1,14
 503 440 503 440 382 440 c 128,-1,15
 261 440 261 440 194 511 c 128,-1,16
 127 582 127 582 127 690 c 128,-1,17
 127 798 127 798 189 865 c 128,-1,18
 251 932 251 932 375 932 c 128,-1,19
 499 932 499 932 562 863.5 c 128,-1,20
 625 795 625 795 625 686 c 128,-1,13
 625 577 625 577 564 508.5 c 128,-1,14
EndSplineSet
Validated: 1
EndChar

StartChar: guillemotright
Encoding: 187 187 123
Width: 894
Flags: MW
LayerCount: 2
Fore
SplineSet
461 561 m 2,0,-1
 129 369 l 1,1,-1
 129 422 l 1,2,-1
 307 612 l 1,3,-1
 129 803 l 1,4,-1
 129 856 l 1,5,-1
 461 664 l 2,6,7
 487 650 487 650 487 612 c 0,8,9
 487 574 487 574 461 561 c 2,0,-1
788 561 m 2,10,-1
 457 369 l 1,11,-1
 457 422 l 1,12,-1
 635 612 l 1,13,-1
 457 803 l 1,14,-1
 457 856 l 1,15,-1
 788 664 l 2,16,17
 815 648 815 648 815 612 c 0,18,19
 815 576 815 576 788 561 c 2,10,-1
EndSplineSet
Validated: 1
EndChar

StartChar: onequarter
Encoding: 188 188 124
Width: 1331
Flags: W
LayerCount: 2
Back
SplineSet
213 -20 m 1
 1010 1253 l 1
 1069 1217 l 1
 272 -57 l 1
 213 -20 l 1
1159 768 m 1
 1159 274 l 1
 1272 274 l 1
 1272 215 l 1
 1159 215 l 1
 1159 68 l 1
 1167 54 1195.67 47 1245 47 c 1
 1245 0 l 1
 930 0 l 1
 930 47 l 1
 980.669 47 1009.34 54 1016 68 c 1
 1016 215 l 1
 686 215 l 1
 1073 768 l 1
 1159 768 l 1
1016 274 m 1
 1016 582 l 1
 801 274 l 1
 1016 274 l 1
70 1040 m 1
 178 1240.67 246.667 1341 276 1341 c 2
 313 1341 l 1
 313 641 l 1
 319.667 627.667 349 621 401 621 c 1
 401 573 l 1
 82 573 l 1
 82 621 l 1
 131.333 621 160 627.667 168 641 c 1
 168 1085 l 1
 154.667 1077 133.333 1056 104 1022 c 1
 70 1040 l 1
EndSplineSet
Fore
Refer: 817 8324 N 1 0 0 1 652 256 2
Refer: 121 185 N 1 0 0 1 -12 0 2
Refer: 16 47 N 1 0 0 1 171 0 2
Validated: 1
EndChar

StartChar: onehalf
Encoding: 189 189 125
Width: 1388
Flags: W
LayerCount: 2
Back
SplineSet
168 -20 m 1
 965 1253 l 1
 1024 1217 l 1
 227 -57 l 1
 168 -20 l 1
1206 115 m 1
 1220.67 120.333 1235.5 131 1250.5 147 c 128
 1265.5 163 1276.67 181.667 1284 203 c 1
 1329 203 l 1
 1272 0 l 1
 741 0 l 1
 741 10 l 2
 741 23.3333 754.667 44 782 72 c 128
 809.333 100 842.333 131.833 881 167.5 c 128
 919.668 203.167 958.335 241 997 281 c 128
 1035.67 321 1068.67 365 1096 413 c 128
 1123.33 461 1137 505 1137 545 c 128
 1137 585 1125.83 616.833 1103.5 640.5 c 128
 1081.17 664.167 1050 676 1010 676 c 128
 970 676 936.333 671.5 909 662.5 c 128
 881.667 653.5 861.5 642.5 848.5 629.5 c 128
 835.5 616.5 824.833 603.667 816.5 591 c 128
 808.167 578.333 801 567.5 795 558.5 c 128
 789 549.5 782.667 545 776 545 c 0
 762.667 545 756 552.333 756 567 c 0
 756 591 766 617.333 786 646 c 0
 806 675.333 825.333 698.667 844 716 c 0
 889.333 757.333 953.333 778 1036 778 c 128
 1118.67 778 1181.67 759.167 1225 721.5 c 128
 1268.33 683.833 1290 632.333 1290 567 c 0
 1290 530.333 1273.17 487 1239.5 437 c 128
 1205.83 387 1168.83 342.667 1128.5 304 c 128
 1088.17 265.333 1047.33 226.833 1006 188.5 c 128
 964.667 150.167 940 125.667 932 115 c 1
 1206 115 l 1
74 1040 m 1
 78 1046.67 90 1068 110 1104 c 128
 130 1140 146 1168 158 1188 c 128
 170 1208 184.667 1232 202 1260 c 0
 236 1314 262 1341 280 1341 c 0
 281 1341 l 2
 317 1341 l 1
 317 641 l 1
 323.667 627.667 353.333 621 406 621 c 1
 406 573 l 1
 86 573 l 1
 86 621 l 1
 135.333 621 164 627.667 172 641 c 1
 172 1085 l 1
 163.333 1080.3 155.5 1074.13 148.5 1066.5 c 128
 141.5 1058.83 136.5 1053.5 133.5 1050.5 c 128
 130.5 1047.5 126.167 1042.5 120.5 1035.5 c 128
 114.833 1028.5 111 1024 109 1022 c 1
 74 1040 l 1
EndSplineSet
Fore
Refer: 815 8322 N 1 0 0 1 667 256 2
Refer: 16 47 N 1 0 0 1 128 0 2
Refer: 121 185 N 1 0 0 1 -12 0 2
Validated: 1
EndChar

StartChar: threequarters
Encoding: 190 190 126
Width: 1406
Flags: W
LayerCount: 2
Back
SplineSet
307 -20 m 1
 1104 1253 l 1
 1163 1217 l 1
 367 -57 l 1
 307 -20 l 1
1233 768 m 1
 1233 274 l 1
 1346 274 l 1
 1346 215 l 1
 1233 215 l 1
 1233 68 l 1
 1241 54 1269.67 47 1319 47 c 1
 1319 0 l 1
 1004 0 l 1
 1004 47 l 1
 1054.67 47 1083.33 54 1090 68 c 1
 1090 215 l 1
 760 215 l 1
 1147 768 l 1
 1233 768 l 1
1090 274 m 1
 1090 582 l 1
 874 274 l 1
 1090 274 l 1
362 950 m 1
 295 942 l 1
 285.667 942 277.167 945 269.5 951 c 128
 261.833 957 258 962.667 258 968 c 128
 258 973.333 259.333 977.333 262 980 c 0
 266.667 985.333 284.333 992.333 315 1001 c 128
 345.667 1009.67 370 1019.67 388 1031 c 0
 426.667 1055.67 446 1088 446 1128 c 0
 446 1208.67 400.333 1249 309 1249 c 0
 307 1249 l 0
 244.333 1249 201 1236.33 177 1211 c 0
 167 1200.32 158.833 1189.65 152.5 1179 c 128
 146.167 1168.33 140.5 1159.33 135.5 1152 c 128
 130.5 1144.67 124.667 1141 118 1141 c 0
 103.333 1141 96 1149 96 1165 c 0
 96 1193 109 1223.33 135 1256 c 0
 185 1320 248 1352 324 1352 c 0
 497.333 1352 584 1285.67 584 1153 c 0
 584 1095.67 550.333 1046.67 483 1006 c 1
 524.333 989.333 557.667 964.5 583 931.5 c 128
 608.333 898.5 621 862.667 621 824 c 0
 621 786.665 616.667 753.332 608 724 c 0
 600 694.664 585.333 667.331 564 642 c 0
 521.333 590.667 444 565 332 565 c 0
 330 565 330 565 328 565 c 0
 220 565 136.667 595 78 655 c 0
 65.3333 667.667 58.9999 678.334 59 687 c 0
 59 718.333 63.3333 740.333 72 753 c 128
 80.6667 765.667 93.5 772 110.5 772 c 128
 127.5 772 140 767 148 757 c 128
 156 747 163.167 735 169.5 721 c 128
 175.833 707 183.667 692.667 193 678 c 0
 215 644 256 627 316 627 c 0
 318 627 318 627 319 627 c 0
 431 627 487 683 487 795 c 0
 487 832.333 476.5 867.5 455.5 900.5 c 128
 434.5 933.5 403.333 950 362 950 c 1
EndSplineSet
Fore
Refer: 115 179 N 1 0 0 1 -18 0 2
Refer: 16 47 N 1 0 0 1 267 0 2
Refer: 817 8324 N 1 0 0 1 725 256 2
Validated: 1
EndChar

StartChar: questiondown
Encoding: 191 191 127
Width: 806
Flags: MW
LayerCount: 2
Fore
SplineSet
557 961 m 128,-1,1
 557 911 557 911 523.5 871 c 128,-1,2
 490 831 490 831 439.5 831 c 128,-1,3
 389 831 389 831 350 867.5 c 128,-1,4
 311 904 311 904 311 953.5 c 128,-1,5
 311 1003 311 1003 345.5 1044 c 128,-1,6
 380 1085 380 1085 430.5 1085 c 128,-1,7
 481 1085 481 1085 519 1048 c 128,-1,0
 557 1011 557 1011 557 961 c 128,-1,1
465 652 m 0,8,9
 465 538 465 538 390 425 c 0,10,11
 358 378 358 378 326 328 c 0,12,13
 250 210 250 210 250 81 c 128,-1,14
 250 -48 250 -48 295 -106 c 128,-1,15
 340 -164 340 -164 431.5 -164 c 128,-1,16
 523 -164 523 -164 574 -116.5 c 128,-1,17
 625 -69 625 -69 625 -18 c 0,18,19
 625 7 625 7 609.5 34 c 128,-1,20
 594 61 594 61 594 88 c 128,-1,21
 594 115 594 115 613.5 134.5 c 128,-1,22
 633 154 633 154 665 154 c 128,-1,23
 697 154 697 154 722.5 128 c 128,-1,24
 748 102 748 102 748 52 c 128,-1,25
 748 2 748 2 728.5 -45 c 128,-1,26
 709 -92 709 -92 671 -133 c 0,27,28
 586 -225 586 -225 424 -225 c 0,29,30
 326 -225 326 -225 252 -195 c 0,31,32
 178 -165 178 -165 140 -116 c 0,33,34
 66 -21 66 -21 66 92 c 0,35,36
 66 202 66 202 156 308 c 0,37,38
 219 382 219 382 290 456 c 128,-1,39
 361 530 361 530 386.5 573.5 c 128,-1,40
 412 617 412 617 412 641 c 128,-1,41
 412 665 412 665 421 674.5 c 128,-1,42
 430 684 430 684 438 684 c 128,-1,43
 446 684 446 684 455.5 674.5 c 128,-1,44
 465 665 465 665 465 652 c 0,8,9
EndSplineSet
Validated: 1
EndChar

StartChar: Agrave
Encoding: 192 192 128
Width: 1118
Flags: MW
LayerCount: 2
Back
SplineSet
466.944 1601.54 m 1
 618.496 1269.76 l 1
 565.248 1269.76 l 1
 249.856 1601.54 l 1
 466.944 1601.54 l 1
688.128 0 m 1
 688.128 43.0078 l 1
 755.712 43.0078 790.528 51.2002 806.912 67.584 c 1
 692.224 380.928 l 1
 299.008 380.928 l 1
 192.512 79.8721 l 1
 206.848 53.248 237.568 43.0078 319.488 43.0078 c 1
 319.488 0 l 1
 -16.3838 0 l 1
 -16.3838 43.0078 l 1
 69.6318 43.0078 102.4 57.3438 112.64 86.0156 c 2
 509.952 1198.08 l 1
 608.256 1198.08 l 1
 1005.57 86.0156 l 2
 1015.81 57.3438 1050.62 43.0078 1136.64 43.0078 c 1
 1136.64 0 l 1
 688.128 0 l 1
493.568 925.696 m 1
 323.584 448.512 l 1
 667.648 448.512 l 1
 493.568 925.696 l 1
EndSplineSet
Fore
Refer: 510 715 S 1 0 0 1 127 246 2
Refer: 34 65 N 1 0 0 1 0 0 3
Validated: 1
EndChar

StartChar: Aacute
Encoding: 193 193 129
Width: 1118
Flags: MW
LayerCount: 2
Back
SplineSet
690.176 1601.54 m 1
 907.264 1601.54 l 1
 591.872 1269.76 l 1
 538.624 1269.76 l 1
 690.176 1601.54 l 1
688.128 0 m 1
 688.128 43.0078 l 1
 755.712 43.0078 790.528 51.2002 806.912 67.584 c 1
 692.224 380.928 l 1
 299.008 380.928 l 1
 192.512 79.8721 l 1
 206.848 53.248 237.568 43.0078 319.488 43.0078 c 1
 319.488 0 l 1
 -16.3838 0 l 1
 -16.3838 43.0078 l 1
 69.6318 43.0078 102.4 57.3438 112.64 86.0156 c 2
 509.952 1198.08 l 1
 608.256 1198.08 l 1
 1005.57 86.0156 l 2
 1015.81 57.3438 1050.62 43.0078 1136.64 43.0078 c 1
 1136.64 0 l 1
 688.128 0 l 1
493.568 925.696 m 1
 323.584 448.512 l 1
 667.648 448.512 l 1
 493.568 925.696 l 1
EndSplineSet
Fore
Refer: 509 714 N 1 0 0 1 416 246 2
Refer: 34 65 N 1 0 0 1 0 0 3
Validated: 1
EndChar

StartChar: Acircumflex
Encoding: 194 194 130
Width: 1118
Flags: W
HStem: 1266 336
VStem: 261 607
LayerCount: 2
Back
SplineSet
616.448 1601.54 m 1
 808.96 1269.76 l 1
 755.712 1269.76 l 1
 565.248 1447.94 l 1
 374.784 1269.76 l 1
 321.536 1269.76 l 1
 514.048 1601.54 l 1
 616.448 1601.54 l 1
688.128 0 m 1
 688.128 43.0078 l 1
 755.712 43.0078 790.528 51.2002 806.912 67.584 c 1
 692.224 380.928 l 1
 299.008 380.928 l 1
 192.512 79.8721 l 1
 206.848 53.248 237.568 43.0078 319.488 43.0078 c 1
 319.488 0 l 1
 -16.3838 0 l 1
 -16.3838 43.0078 l 1
 69.6318 43.0078 102.4 57.3438 112.64 86.0156 c 2
 509.952 1198.08 l 1
 608.256 1198.08 l 1
 1005.57 86.0156 l 2
 1015.81 57.3438 1050.62 43.0078 1136.64 43.0078 c 1
 1136.64 0 l 1
 688.128 0 l 1
493.568 925.696 m 1
 323.584 448.512 l 1
 667.648 448.512 l 1
 493.568 925.696 l 1
EndSplineSet
Fore
Refer: 549 770 S 1 0 0 1 1085 246 2
Refer: 34 65 N 1 0 0 1 0 0 3
Validated: 1
EndChar

StartChar: Atilde
Encoding: 195 195 131
Width: 1118
Flags: MW
LayerCount: 2
Back
SplineSet
718.848 1269.76 m 0
 634.88 1269.76 462.848 1390.59 401.408 1390.59 c 0
 319.488 1390.59 299.008 1345.54 299.008 1269.76 c 1
 260.096 1269.76 l 1
 260.096 1462.27 337.92 1499.14 415.744 1499.14 c 0
 499.712 1499.14 673.792 1378.3 735.232 1378.3 c 0
 817.152 1378.3 837.632 1423.36 837.632 1499.14 c 1
 876.544 1499.14 l 1
 876.544 1306.62 796.672 1269.76 718.848 1269.76 c 0
688.128 0 m 1
 688.128 43.0078 l 1
 755.712 43.0078 790.528 51.2002 806.912 67.584 c 1
 692.224 380.928 l 1
 299.008 380.928 l 1
 192.512 79.8721 l 1
 206.848 53.248 237.568 43.0078 319.488 43.0078 c 1
 319.488 0 l 1
 -16.3838 0 l 1
 -16.3838 43.0078 l 1
 69.6318 43.0078 102.4 57.3438 112.64 86.0156 c 2
 509.952 1198.08 l 1
 608.256 1198.08 l 1
 1005.57 86.0156 l 2
 1015.81 57.3438 1050.62 43.0078 1136.64 43.0078 c 1
 1136.64 0 l 1
 688.128 0 l 1
493.568 925.696 m 1
 323.584 448.512 l 1
 667.648 448.512 l 1
 493.568 925.696 l 1
EndSplineSet
Fore
Refer: 527 732 S 1 0 0 1 137 246 2
Refer: 34 65 N 1 0 0 1 0 0 3
Validated: 1
EndChar

StartChar: Adieresis
Encoding: 196 196 132
Width: 1118
Flags: MW
LayerCount: 2
Back
SplineSet
653.312 1370.11 m 0
 653.312 1425.41 698.368 1470.46 753.664 1470.46 c 0
 808.96 1470.46 854.016 1425.41 854.016 1370.11 c 0
 854.016 1314.82 808.96 1269.76 753.664 1269.76 c 0
 698.368 1269.76 653.312 1314.82 653.312 1370.11 c 0
276.48 1370.11 m 0
 276.48 1425.41 321.536 1470.46 376.832 1470.46 c 0
 432.128 1470.46 477.184 1425.41 477.184 1370.11 c 0
 477.184 1314.82 432.128 1269.76 376.832 1269.76 c 0
 321.536 1269.76 276.48 1314.82 276.48 1370.11 c 0
688.128 0 m 1
 688.128 43.0078 l 1
 755.712 43.0078 790.528 51.2002 806.912 67.584 c 1
 692.224 380.928 l 1
 299.008 380.928 l 1
 192.512 79.8721 l 1
 206.848 53.248 237.568 43.0078 319.488 43.0078 c 1
 319.488 0 l 1
 -16.3838 0 l 1
 -16.3838 43.0078 l 1
 69.6318 43.0078 102.4 57.3438 112.64 86.0156 c 2
 509.952 1198.08 l 1
 608.256 1198.08 l 1
 1005.57 86.0156 l 2
 1015.81 57.3438 1050.62 43.0078 1136.64 43.0078 c 1
 1136.64 0 l 1
 688.128 0 l 1
493.568 925.696 m 1
 323.584 448.512 l 1
 667.648 448.512 l 1
 493.568 925.696 l 1
EndSplineSet
Fore
Refer: 104 168 N 1 0 0 1 154 246 2
Refer: 34 65 N 1 0 0 1 0 0 3
Validated: 1
EndChar

StartChar: Aring
Encoding: 197 197 133
Width: 1118
Flags: MW
LayerCount: 2
Back
SplineSet
468.992 1411.07 m 0
 468.992 1357.82 512 1314.82 565.248 1314.82 c 0
 618.496 1314.82 661.504 1357.82 661.504 1411.07 c 0
 661.504 1464.32 618.496 1507.33 565.248 1507.33 c 0
 512 1507.33 468.992 1464.32 468.992 1411.07 c 0
380.928 1411.07 m 0
 380.928 1515.52 460.8 1595.39 565.248 1595.39 c 0
 669.696 1595.39 749.568 1515.52 749.568 1411.07 c 0
 749.568 1306.62 669.696 1226.75 565.248 1226.75 c 0
 460.8 1226.75 380.928 1306.62 380.928 1411.07 c 0
688.128 0 m 1
 688.128 43.0078 l 1
 755.712 43.0078 790.528 51.2002 806.912 67.584 c 1
 692.224 380.928 l 1
 299.008 380.928 l 1
 192.512 79.8721 l 1
 206.848 53.248 237.568 43.0078 319.488 43.0078 c 1
 319.488 0 l 1
 -16.3838 0 l 1
 -16.3838 43.0078 l 1
 69.6318 43.0078 102.4 57.3438 112.64 86.0156 c 2
 509.952 1198.08 l 1
 608.256 1198.08 l 1
 1005.57 86.0156 l 2
 1015.81 57.3438 1050.62 43.0078 1136.64 43.0078 c 1
 1136.64 0 l 1
 688.128 0 l 1
493.568 925.696 m 1
 323.584 448.512 l 1
 667.648 448.512 l 1
 493.568 925.696 l 1
EndSplineSet
Fore
Refer: 525 730 N 1 0 0 1 332 246 2
Refer: 34 65 N 1 0 0 1 0 0 3
Validated: 1
EndChar

StartChar: AE
Encoding: 198 198 134
Width: 1550
Flags: MW
AnchorPoint: "top" 827 1270 basechar 0
LayerCount: 2
Fore
SplineSet
164 80 m 1,0,1
 184 43 184 43 291 43 c 1,2,-1
 291 0 l 1,3,-1
 -45 0 l 1,4,-1
 -45 43 l 1,5,6
 61 43 61 43 84 84 c 2,7,-1
 672 1133 l 1,8,9
 647 1155 647 1155 555 1155 c 1,10,-1
 555 1198 l 1,11,-1
 1423 1198 l 1,12,-1
 1423 999 l 1,13,-1
 1380 999 l 1,14,15
 1380 1111 1380 1111 1339 1128 c 1,16,-1
 915 1128 l 1,17,-1
 915 657 l 1,18,-1
 1202 657 l 1,19,20
 1243 674 1243 674 1243 786 c 1,21,-1
 1286 786 l 1,22,-1
 1286 459 l 1,23,-1
 1243 459 l 1,24,25
 1243 571 1243 571 1202 588 c 1,26,-1
 915 588 l 1,27,-1
 915 70 l 1,28,-1
 1382 70 l 1,29,30
 1433 91 1433 91 1475 199 c 1,31,-1
 1516 199 l 1,32,-1
 1466 0 l 1,33,-1
 598 0 l 1,34,-1
 598 43 l 1,35,36
 710 43 710 43 727 84 c 1,37,-1
 727 381 l 1,38,-1
 332 381 l 1,39,-1
 164 80 l 1,0,1
371 449 m 1,40,-1
 727 449 l 1,41,-1
 727 1085 l 1,42,-1
 371 449 l 1,40,-1
EndSplineSet
Validated: 1
EndChar

StartChar: Ccedilla
Encoding: 199 199 135
Width: 1150
UnlinkRmOvrlpSave: 1
Flags: MW
LayerCount: 2
Back
SplineSet
938 1157 m 0
 954.667 1157 963 1170.67 963 1198 c 1
 1010 1198 l 1
 1030 938 l 1
 985 938 l 1
 976.333 1000 949.5 1050.67 904.5 1090 c 128
 859.5 1129.33 795.667 1149 713 1149 c 1
 711 1151 l 1
 593 1151 495.167 1102.5 417.5 1005.5 c 128
 339.833 908.5 301 783 301 629 c 0
 301 537 312.667 453.667 336 379 c 0
 359.334 303.667 390.667 242.667 430 196 c 0
 511.333 99.3333 607.667 51 719 51 c 0
 787 51 854.5 74.5 921.5 121.5 c 128
 988.502 168.5 1031.67 218.667 1051 272 c 1
 1100 248 l 1
 1072.67 181.333 1030 123.333 972 74 c 0
 904.667 16.6667 814.667 -14 702 -18 c 1
 678 -111 l 1
 742.667 -111 797.667 -129.667 843 -167 c 0
 869.667 -189 883 -212.833 883 -238.5 c 128
 883 -264.167 879.833 -285.5 873.5 -302.5 c 128
 867.167 -319.5 856 -336 840 -352 c 0
 806 -388 745 -406 657 -406 c 0
 615 -406 564.667 -401 506 -391 c 1
 506 -356 l 1
 530 -358.667 547 -360 557 -360 c 0
 609.667 -360 647.5 -350.167 670.5 -330.5 c 128
 693.5 -310.833 705 -288.667 705 -264 c 0
 705 -204 663.333 -174 580 -174 c 1
 625 -16 l 1
 541 -9.33333 464.667 11.6667 396 47 c 128
 327.333 82.3333 271 127.333 227 182 c 0
 135.667 296 90 429.333 90 582 c 0
 90 678 107.333 766.667 142 848 c 128
 176.667 929.333 222.667 996.667 280 1050 c 0
 402 1162.67 545.667 1219 711 1219 c 0
 757 1219 804 1208.67 852 1188 c 128
 900 1167.33 928.667 1157 938 1157 c 0
EndSplineSet
Fore
Refer: 586 807 S 1 0 0 1 1190 0 2
Refer: 36 67 N 1 0 0 1 0 0 2
EndChar

StartChar: Egrave
Encoding: 200 200 136
Width: 1038
Flags: MW
LayerCount: 2
Back
SplineSet
450.56 1601.54 m 1x05
 602.112 1269.76 l 1
 548.864 1269.76 l 1
 233.472 1601.54 l 1
 450.56 1601.54 l 1x05
86.0156 0 m 1xa2c0
 86.0156 43.0078 l 1
 172.032 43.0078 202.752 55.2959 215.04 83.9678 c 1
 215.04 1114.11 l 1
 202.752 1142.78 172.032 1155.07 86.0156 1155.07 c 1
 86.0156 1198.08 l 1
 911.36 1198.08 l 1xaac0
 911.36 999.424 l 1
 868.352 999.424 l 1
 868.352 1085.44 856.064 1116.16 827.392 1128.45 c 1
 403.456 1128.45 l 1
 403.456 657.408 l 1
 690.176 657.408 l 1
 718.848 669.696 731.136 700.416 731.136 786.432 c 1
 774.145 786.432 l 1
 774.145 458.752 l 1
 731.136 458.752 l 1
 731.136 544.768 718.848 575.488 690.176 587.776 c 1
 403.456 587.776 l 1
 403.456 69.6318 l 1
 870.4 69.6318 l 1x72c0
 899.072 81.9199 933.888 124.928 962.561 198.656 c 1
 1003.52 198.656 l 1
 954.368 0 l 1
 86.0156 0 l 1xa2c0
EndSplineSet
Fore
Refer: 510 715 N 1 0 0 1 111 246 2
Refer: 38 69 N 1 0 0 1 0 0 3
Validated: 1
EndChar

StartChar: Eacute
Encoding: 201 201 137
Width: 1038
Flags: MW
LayerCount: 2
Back
SplineSet
673.792 1601.54 m 1x05
 890.88 1601.54 l 1
 575.488 1269.76 l 1
 522.24 1269.76 l 1
 673.792 1601.54 l 1x05
86.0156 0 m 1xa2c0
 86.0156 43.0078 l 1
 172.032 43.0078 202.752 55.2959 215.04 83.9678 c 1
 215.04 1114.11 l 1
 202.752 1142.78 172.032 1155.07 86.0156 1155.07 c 1
 86.0156 1198.08 l 1
 911.36 1198.08 l 1xaac0
 911.36 999.424 l 1
 868.352 999.424 l 1
 868.352 1085.44 856.064 1116.16 827.392 1128.45 c 1
 403.456 1128.45 l 1
 403.456 657.408 l 1
 690.176 657.408 l 1
 718.848 669.696 731.136 700.416 731.136 786.432 c 1
 774.145 786.432 l 1
 774.145 458.752 l 1
 731.136 458.752 l 1
 731.136 544.768 718.848 575.488 690.176 587.776 c 1
 403.456 587.776 l 1
 403.456 69.6318 l 1
 870.4 69.6318 l 1x72c0
 899.072 81.9199 933.888 124.928 962.561 198.656 c 1
 1003.52 198.656 l 1
 954.368 0 l 1
 86.0156 0 l 1xa2c0
EndSplineSet
Fore
Refer: 509 714 N 1 0 0 1 399 246 2
Refer: 38 69 N 1 0 0 1 0 0 3
Validated: 1
EndChar

StartChar: Ecircumflex
Encoding: 202 202 138
Width: 1038
Flags: W
HStem: 1266 336
VStem: 245 607
LayerCount: 2
Back
SplineSet
600.064 1601.54 m 1x05
 792.576 1269.76 l 1
 739.328 1269.76 l 1
 548.864 1447.94 l 1
 358.4 1269.76 l 1
 305.152 1269.76 l 1
 497.664 1601.54 l 1
 600.064 1601.54 l 1x05
86.0156 0 m 1xa2c0
 86.0156 43.0078 l 1
 172.032 43.0078 202.752 55.2959 215.04 83.9678 c 1
 215.04 1114.11 l 1
 202.752 1142.78 172.032 1155.07 86.0156 1155.07 c 1
 86.0156 1198.08 l 1
 911.36 1198.08 l 1xaac0
 911.36 999.424 l 1
 868.352 999.424 l 1
 868.352 1085.44 856.064 1116.16 827.392 1128.45 c 1
 403.456 1128.45 l 1
 403.456 657.408 l 1
 690.176 657.408 l 1
 718.848 669.696 731.136 700.416 731.136 786.432 c 1
 774.145 786.432 l 1
 774.145 458.752 l 1
 731.136 458.752 l 1
 731.136 544.768 718.848 575.488 690.176 587.776 c 1
 403.456 587.776 l 1
 403.456 69.6318 l 1
 870.4 69.6318 l 1x72c0
 899.072 81.9199 933.888 124.928 962.561 198.656 c 1
 1003.52 198.656 l 1
 954.368 0 l 1
 86.0156 0 l 1xa2c0
EndSplineSet
Fore
Refer: 549 770 N 1 0 0 1 1069 246 2
Refer: 38 69 N 1 0 0 1 0 0 3
Validated: 1
EndChar

StartChar: Edieresis
Encoding: 203 203 139
Width: 1038
Flags: MW
LayerCount: 2
Back
SplineSet
636.928 1370.11 m 0x0580
 636.928 1425.41 681.984 1470.46 737.28 1470.46 c 0
 792.576 1470.46 837.632 1425.41 837.632 1370.11 c 0
 837.632 1314.82 792.576 1269.76 737.28 1269.76 c 0
 681.984 1269.76 636.928 1314.82 636.928 1370.11 c 0x0580
260.096 1370.11 m 0
 260.096 1425.41 305.152 1470.46 360.448 1470.46 c 0
 415.744 1470.46 460.8 1425.41 460.8 1370.11 c 0
 460.8 1314.82 415.744 1269.76 360.448 1269.76 c 0
 305.152 1269.76 260.096 1314.82 260.096 1370.11 c 0
86.0156 0 m 1xa260
 86.0156 43.0078 l 1
 172.032 43.0078 202.752 55.2959 215.04 83.9678 c 1
 215.04 1114.11 l 1
 202.752 1142.78 172.032 1155.07 86.0156 1155.07 c 1
 86.0156 1198.08 l 1
 911.36 1198.08 l 1xaa60
 911.36 999.424 l 1
 868.352 999.424 l 1
 868.352 1085.44 856.064 1116.16 827.392 1128.45 c 1
 403.456 1128.45 l 1
 403.456 657.408 l 1
 690.176 657.408 l 1
 718.848 669.696 731.136 700.416 731.136 786.432 c 1
 774.145 786.432 l 1
 774.145 458.752 l 1
 731.136 458.752 l 1
 731.136 544.768 718.848 575.488 690.176 587.776 c 1
 403.456 587.776 l 1
 403.456 69.6318 l 1
 870.4 69.6318 l 1x7260
 899.072 81.9199 933.888 124.928 962.561 198.656 c 1
 1003.52 198.656 l 1
 954.368 0 l 1
 86.0156 0 l 1xa260
EndSplineSet
Fore
Refer: 104 168 N 1 0 0 1 137 246 2
Refer: 38 69 N 1 0 0 1 0 0 3
Validated: 1
EndChar

StartChar: Igrave
Encoding: 204 204 140
Width: 618
Flags: MW
LayerCount: 2
Back
SplineSet
206.848 1601.54 m 1x30
 358.4 1269.76 l 1
 305.152 1269.76 l 1
 -10.2402 1601.54 l 1
 206.848 1601.54 l 1x30
86.0156 0 m 1xc8
 86.0156 43.0078 l 1
 172.032 43.0078 202.752 55.2959 215.04 83.9678 c 1
 215.04 1114.11 l 1
 202.752 1142.78 172.032 1155.07 86.0156 1155.07 c 1
 86.0156 1198.08 l 1
 532.48 1198.08 l 1
 532.48 1155.07 l 1
 446.464 1155.07 415.744 1142.78 403.456 1114.11 c 1
 403.456 83.9678 l 1
 415.744 55.2959 446.464 43.0078 532.48 43.0078 c 1
 532.48 0 l 1
 86.0156 0 l 1xc8
EndSplineSet
Fore
Refer: 510 715 N 1 0 0 1 -133 246 2
Refer: 42 73 N 1 0 0 1 0 0 3
Validated: 1
EndChar

StartChar: Iacute
Encoding: 205 205 141
Width: 618
Flags: MW
LayerCount: 2
Back
SplineSet
430.08 1601.54 m 1x28
 647.168 1601.54 l 1
 331.776 1269.76 l 1
 278.528 1269.76 l 1
 430.08 1601.54 l 1x28
86.0156 0 m 1xd0
 86.0156 43.0078 l 1
 172.032 43.0078 202.752 55.2959 215.04 83.9678 c 1
 215.04 1114.11 l 1
 202.752 1142.78 172.032 1155.07 86.0156 1155.07 c 1
 86.0156 1198.08 l 1
 532.48 1198.08 l 1
 532.48 1155.07 l 1
 446.464 1155.07 415.744 1142.78 403.456 1114.11 c 1
 403.456 83.9678 l 1
 415.744 55.2959 446.464 43.0078 532.48 43.0078 c 1
 532.48 0 l 1
 86.0156 0 l 1xd0
EndSplineSet
Fore
Refer: 509 714 N 1 0 0 1 156 246 2
Refer: 42 73 N 1 0 0 1 0 0 3
Validated: 1
EndChar

StartChar: Icircumflex
Encoding: 206 206 142
Width: 618
Flags: W
HStem: 1266 336
VStem: 1 607
LayerCount: 2
Back
SplineSet
356.352 1601.54 m 1x30
 548.864 1269.76 l 1
 495.616 1269.76 l 1
 305.152 1447.94 l 1
 114.688 1269.76 l 1
 61.4404 1269.76 l 1
 253.952 1601.54 l 1
 356.352 1601.54 l 1x30
86.0156 0 m 1xc8
 86.0156 43.0078 l 1
 172.032 43.0078 202.752 55.2959 215.04 83.9678 c 1
 215.04 1114.11 l 1
 202.752 1142.78 172.032 1155.07 86.0156 1155.07 c 1
 86.0156 1198.08 l 1
 532.48 1198.08 l 1
 532.48 1155.07 l 1
 446.464 1155.07 415.744 1142.78 403.456 1114.11 c 1
 403.456 83.9678 l 1
 415.744 55.2959 446.464 43.0078 532.48 43.0078 c 1
 532.48 0 l 1
 86.0156 0 l 1xc8
EndSplineSet
Fore
Refer: 549 770 N 1 0 0 1 825 246 2
Refer: 42 73 N 1 0 0 1 0 0 3
Validated: 1
EndChar

StartChar: Idieresis
Encoding: 207 207 143
Width: 618
Flags: MW
LayerCount: 2
Back
SplineSet
393.216 1370.11 m 0x34
 393.216 1425.41 438.272 1470.46 493.568 1470.46 c 0
 548.864 1470.46 593.92 1425.41 593.92 1370.11 c 0
 593.92 1314.82 548.864 1269.76 493.568 1269.76 c 0
 438.272 1269.76 393.216 1314.82 393.216 1370.11 c 0x34
16.3838 1370.11 m 0
 16.3838 1425.41 61.4404 1470.46 116.736 1470.46 c 0
 172.032 1470.46 217.088 1425.41 217.088 1370.11 c 0
 217.088 1314.82 172.032 1269.76 116.736 1269.76 c 0
 61.4404 1269.76 16.3838 1314.82 16.3838 1370.11 c 0
86.0156 0 m 1xc8
 86.0156 43.0078 l 1
 172.032 43.0078 202.752 55.2959 215.04 83.9678 c 1
 215.04 1114.11 l 1
 202.752 1142.78 172.032 1155.07 86.0156 1155.07 c 1
 86.0156 1198.08 l 1
 532.48 1198.08 l 1
 532.48 1155.07 l 1
 446.464 1155.07 415.744 1142.78 403.456 1114.11 c 1
 403.456 83.9678 l 1
 415.744 55.2959 446.464 43.0078 532.48 43.0078 c 1
 532.48 0 l 1
 86.0156 0 l 1xc8
EndSplineSet
Fore
Refer: 104 168 N 1 0 0 1 -106 246 2
Refer: 42 73 N 1 0 0 1 0 0 3
Validated: 1
EndChar

StartChar: Eth
Encoding: 208 208 144
Width: 1243
Flags: MW
LayerCount: 2
Fore
SplineSet
113 1137 m 1,0,1
 72 1120 72 1120 72 1008 c 1,2,-1
 29 1008 l 1,3,-1
 29 1198 l 1,4,-1
 313 1198 l 1,5,-1
 313 1341 l 1,6,-1
 395 1341 l 1,7,-1
 395 1198 l 1,8,-1
 549 1198 l 2,9,10
 822 1198 822 1198 987.5 1032 c 128,-1,11
 1153 866 1153 866 1153 599.5 c 128,-1,12
 1153 333 1153 333 991.5 165.5 c 128,-1,13
 830 -2 830 -2 573 -2 c 2,14,-1
 78 -2 l 1,15,-1
 78 41 l 1,16,17
 190 41 190 41 207 82 c 1,18,-1
 207 315 l 2,19,20
 208 747 208 747 560 877 c 0,21,22
 690 925 690 925 872 936 c 1,23,24
 816 1037 816 1037 730 1087 c 128,-1,25
 644 1137 644 1137 549 1137 c 2,26,-1
 395 1137 l 1,27,-1
 395 963 l 1,28,-1
 313 963 l 1,29,-1
 313 1137 l 1,30,-1
 113 1137 l 1,0,1
901 874 m 1,31,32
 516 849 516 849 422 569 c 0,33,34
 395 489 395 489 395 393 c 2,35,-1
 395 68 l 1,36,-1
 573 68 l 2,37,38
 683 68 683 68 776 144 c 0,39,40
 948 283 948 283 948 598 c 0,41,42
 948 754 948 754 901 874 c 1,31,32
EndSplineSet
Validated: 1
Substitution2: "'ss09' D with stroke through bowl subtable" Eth.ss09
Substitution2: "'locl' Localized Eth Forms subtable" Dafrican
EndChar

StartChar: Ntilde
Encoding: 209 209 145
Width: 1304
Flags: MW
LayerCount: 2
Back
SplineSet
804.864 1269.76 m 0
 720.896 1269.76 548.864 1390.59 487.424 1390.59 c 0
 405.504 1390.59 385.024 1345.54 385.024 1269.76 c 1
 346.112 1269.76 l 1
 346.112 1462.27 423.936 1499.14 501.76 1499.14 c 0
 585.729 1499.14 759.808 1378.3 821.248 1378.3 c 0
 903.168 1378.3 923.648 1423.36 923.648 1499.14 c 1
 962.561 1499.14 l 1
 962.561 1306.62 882.688 1269.76 804.864 1269.76 c 0
86.0156 0 m 1
 86.0156 43.0078 l 1
 172.032 43.0078 202.752 55.2959 215.04 83.9678 c 1
 215.04 1114.11 l 1
 202.752 1142.78 172.032 1155.07 86.0156 1155.07 c 1
 86.0156 1198.08 l 1
 360.448 1198.08 l 1
 1038.34 360.448 l 1
 1038.34 1114.11 l 1
 1026.05 1142.78 995.328 1155.07 909.312 1155.07 c 1
 909.312 1198.08 l 1
 1236.99 1198.08 l 1
 1236.99 1155.07 l 1
 1150.98 1155.07 1120.26 1142.78 1107.97 1114.11 c 1
 1107.97 0 l 1
 1089.54 0 l 1
 284.672 1017.86 l 1
 284.672 83.9678 l 1
 296.96 55.2959 327.68 43.0078 413.696 43.0078 c 1
 413.696 0 l 1
 86.0156 0 l 1
EndSplineSet
Fore
Refer: 527 732 S 1 0 0 1 223 246 2
Refer: 47 78 N 1 0 0 1 0 0 3
Validated: 1
EndChar

StartChar: Ograve
Encoding: 210 210 146
Width: 1312
Flags: MW
LayerCount: 2
Back
SplineSet
559.104 1601.54 m 1
 710.656 1269.76 l 1
 657.408 1269.76 l 1
 342.016 1601.54 l 1
 559.104 1601.54 l 1
294.912 614.4 m 0
 294.912 362.496 409.6 49.1523 665.6 49.1523 c 0
 921.6 49.1523 1019.9 344.064 1019.9 581.632 c 0
 1019.9 833.536 901.12 1148.93 649.216 1148.93 c 0
 393.216 1148.93 294.912 851.968 294.912 614.4 c 0
90.1123 598.016 m 0
 90.1123 931.84 319.488 1218.56 657.408 1218.56 c 0
 995.328 1218.56 1224.7 931.84 1224.7 598.016 c 0
 1224.7 264.192 991.232 -20.4805 657.408 -20.4805 c 0
 315.392 -20.4805 90.1123 264.192 90.1123 598.016 c 0
EndSplineSet
Fore
Refer: 510 715 S 1 0 0 1 219 246 2
Refer: 48 79 N 1 0 0 1 0 0 3
Validated: 1
EndChar

StartChar: Oacute
Encoding: 211 211 147
Width: 1312
Flags: MW
LayerCount: 2
Back
SplineSet
782.336 1601.54 m 1
 999.424 1601.54 l 1
 684.032 1269.76 l 1
 630.784 1269.76 l 1
 782.336 1601.54 l 1
294.912 614.4 m 0
 294.912 362.496 409.6 49.1523 665.6 49.1523 c 0
 921.6 49.1523 1019.9 344.064 1019.9 581.632 c 0
 1019.9 833.536 901.12 1148.93 649.216 1148.93 c 0
 393.216 1148.93 294.912 851.968 294.912 614.4 c 0
90.1123 598.016 m 0
 90.1123 931.84 319.488 1218.56 657.408 1218.56 c 0
 995.328 1218.56 1224.7 931.84 1224.7 598.016 c 0
 1224.7 264.192 991.232 -20.4805 657.408 -20.4805 c 0
 315.392 -20.4805 90.1123 264.192 90.1123 598.016 c 0
EndSplineSet
Fore
Refer: 509 714 N 1 0 0 1 508 246 2
Refer: 48 79 N 1 0 0 1 0 0 3
Validated: 1
EndChar

StartChar: Ocircumflex
Encoding: 212 212 148
Width: 1312
Flags: W
HStem: 1266 336
VStem: 353 607
LayerCount: 2
Back
SplineSet
708.608 1601.54 m 1
 901.12 1269.76 l 1
 847.872 1269.76 l 1
 657.408 1447.94 l 1
 466.944 1269.76 l 1
 413.696 1269.76 l 1
 606.208 1601.54 l 1
 708.608 1601.54 l 1
294.912 614.4 m 0
 294.912 362.496 409.6 49.1523 665.6 49.1523 c 0
 921.6 49.1523 1019.9 344.064 1019.9 581.632 c 0
 1019.9 833.536 901.12 1148.93 649.216 1148.93 c 0
 393.216 1148.93 294.912 851.968 294.912 614.4 c 0
90.1123 598.016 m 0
 90.1123 931.84 319.488 1218.56 657.408 1218.56 c 0
 995.328 1218.56 1224.7 931.84 1224.7 598.016 c 0
 1224.7 264.192 991.232 -20.4805 657.408 -20.4805 c 0
 315.392 -20.4805 90.1123 264.192 90.1123 598.016 c 0
EndSplineSet
Fore
Refer: 549 770 N 1 0 0 1 1177 246 2
Refer: 48 79 N 1 0 0 1 0 0 3
Validated: 1
EndChar

StartChar: Otilde
Encoding: 213 213 149
Width: 1312
Flags: MW
LayerCount: 2
Back
SplineSet
811.008 1269.76 m 0
 727.04 1269.76 555.008 1390.59 493.568 1390.59 c 0
 411.648 1390.59 391.168 1345.54 391.168 1269.76 c 1
 352.256 1269.76 l 1
 352.256 1462.27 430.08 1499.14 507.904 1499.14 c 0
 591.872 1499.14 765.952 1378.3 827.392 1378.3 c 0
 909.312 1378.3 929.792 1423.36 929.792 1499.14 c 1
 968.704 1499.14 l 1
 968.704 1306.62 888.832 1269.76 811.008 1269.76 c 0
294.912 614.4 m 0
 294.912 362.496 409.6 49.1523 665.6 49.1523 c 0
 921.6 49.1523 1019.9 344.064 1019.9 581.632 c 0
 1019.9 833.536 901.12 1148.93 649.216 1148.93 c 0
 393.216 1148.93 294.912 851.968 294.912 614.4 c 0
90.1123 598.016 m 0
 90.1123 931.84 319.488 1218.56 657.408 1218.56 c 0
 995.328 1218.56 1224.7 931.84 1224.7 598.016 c 0
 1224.7 264.192 991.232 -20.4805 657.408 -20.4805 c 0
 315.392 -20.4805 90.1123 264.192 90.1123 598.016 c 0
EndSplineSet
Fore
Refer: 527 732 S 1 0 0 1 229 246 2
Refer: 48 79 N 1 0 0 1 0 0 3
Validated: 1
EndChar

StartChar: Odieresis
Encoding: 214 214 150
Width: 1312
Flags: MW
LayerCount: 2
Back
SplineSet
745.472 1370.11 m 0
 745.472 1425.41 790.528 1470.46 845.824 1470.46 c 0
 901.12 1470.46 946.176 1425.41 946.176 1370.11 c 0
 946.176 1314.82 901.12 1269.76 845.824 1269.76 c 0
 790.528 1269.76 745.472 1314.82 745.472 1370.11 c 0
368.64 1370.11 m 0
 368.64 1425.41 413.696 1470.46 468.992 1470.46 c 0
 524.288 1470.46 569.344 1425.41 569.344 1370.11 c 0
 569.344 1314.82 524.288 1269.76 468.992 1269.76 c 0
 413.696 1269.76 368.64 1314.82 368.64 1370.11 c 0
294.912 614.4 m 0
 294.912 362.496 409.6 49.1523 665.6 49.1523 c 0
 921.6 49.1523 1019.9 344.064 1019.9 581.632 c 0
 1019.9 833.536 901.12 1148.93 649.216 1148.93 c 0
 393.216 1148.93 294.912 851.968 294.912 614.4 c 0
90.1123 598.016 m 0
 90.1123 931.84 319.488 1218.56 657.408 1218.56 c 0
 995.328 1218.56 1224.7 931.84 1224.7 598.016 c 0
 1224.7 264.192 991.232 -20.4805 657.408 -20.4805 c 0
 315.392 -20.4805 90.1123 264.192 90.1123 598.016 c 0
EndSplineSet
Fore
Refer: 104 168 N 1 0 0 1 246 246 2
Refer: 48 79 N 1 0 0 1 0 0 3
Validated: 1
EndChar

StartChar: multiply
Encoding: 215 215 151
Width: 860
Flags: MW
LayerCount: 2
Fore
SplineSet
494 651 m 1,0,-1
 756 389 l 1,1,-1
 692 326 l 1,2,-1
 430 588 l 1,3,-1
 168 326 l 1,4,-1
 104 389 l 1,5,-1
 367 651 l 1,6,-1
 104 913 l 1,7,-1
 168 977 l 1,8,-1
 430 715 l 1,9,-1
 692 977 l 1,10,-1
 756 913 l 1,11,-1
 494 651 l 1,0,-1
EndSplineSet
Validated: 1
EndChar

StartChar: Oslash
Encoding: 216 216 152
Width: 1312
UnlinkRmOvrlpSave: 1
Flags: MW
AnchorPoint: "ogonek" 719 0 basechar 0
AnchorPoint: "cedilla" 659 0 basechar 0
AnchorPoint: "below" 659 0 basechar 0
AnchorPoint: "top" 657 1270 basechar 0
LayerCount: 2
Fore
SplineSet
289 -57 m 1
 229 -20 l 1
 1026 1253 l 1
 1085 1217 l 1
 289 -57 l 1
EndSplineSet
Refer: 48 79 N 1 0 0 1 0 0 2
EndChar

StartChar: Ugrave
Encoding: 217 217 153
Width: 1265
Flags: MW
LayerCount: 2
Back
SplineSet
589.824 1601.54 m 1
 741.376 1269.76 l 1
 688.128 1269.76 l 1
 372.736 1601.54 l 1
 589.824 1601.54 l 1
692.224 49.1523 m 0
 870.4 49.1523 1015.81 208.896 1015.81 466.944 c 2
 1015.81 1114.11 l 1
 1003.52 1142.78 972.8 1155.07 886.784 1155.07 c 1
 886.784 1198.08 l 1
 1214.46 1198.08 l 1
 1214.46 1155.07 l 1
 1128.45 1155.07 1097.73 1142.78 1085.44 1114.11 c 1
 1085.44 507.904 l 2
 1085.44 131.072 890.88 -20.4805 671.744 -20.4805 c 0
 395.264 -20.4805 180.224 106.496 180.224 507.904 c 2
 180.224 1114.11 l 1
 167.936 1142.78 137.216 1155.07 51.2002 1155.07 c 1
 51.2002 1198.08 l 1
 497.664 1198.08 l 1
 497.664 1155.07 l 1
 411.648 1155.07 380.928 1142.78 368.64 1114.11 c 1
 368.64 479.232 l 2
 368.64 200.704 505.856 49.1523 692.224 49.1523 c 0
EndSplineSet
Fore
Refer: 510 715 N 1 0 0 1 250 246 2
Refer: 54 85 N 1 0 0 1 0 0 3
Validated: 1
EndChar

StartChar: Uacute
Encoding: 218 218 154
Width: 1265
Flags: MW
LayerCount: 2
Back
SplineSet
813.056 1601.54 m 1x28
 1030.14 1601.54 l 1
 714.752 1269.76 l 1
 661.504 1269.76 l 1
 813.056 1601.54 l 1x28
692.224 49.1523 m 0xd4
 870.4 49.1523 1015.81 208.896 1015.81 466.944 c 2
 1015.81 1114.11 l 1
 1003.52 1142.78 972.8 1155.07 886.784 1155.07 c 1
 886.784 1198.08 l 1
 1214.46 1198.08 l 1
 1214.46 1155.07 l 1
 1128.45 1155.07 1097.73 1142.78 1085.44 1114.11 c 1
 1085.44 507.904 l 2
 1085.44 131.072 890.88 -20.4805 671.744 -20.4805 c 0
 395.264 -20.4805 180.224 106.496 180.224 507.904 c 2
 180.224 1114.11 l 1
 167.936 1142.78 137.216 1155.07 51.2002 1155.07 c 1
 51.2002 1198.08 l 1
 497.664 1198.08 l 1
 497.664 1155.07 l 1
 411.648 1155.07 380.928 1142.78 368.64 1114.11 c 1
 368.64 479.232 l 2
 368.64 200.704 505.856 49.1523 692.224 49.1523 c 0xd4
EndSplineSet
Fore
Refer: 509 714 S 1 0 0 1 539 246 2
Refer: 54 85 N 1 0 0 1 0 0 3
Validated: 1
EndChar

StartChar: Ucircumflex
Encoding: 219 219 155
Width: 1265
Flags: W
HStem: 1266 336
VStem: 384 607
LayerCount: 2
Back
SplineSet
739.328 1601.54 m 1
 931.84 1269.76 l 1
 878.592 1269.76 l 1
 688.128 1447.94 l 1
 497.664 1269.76 l 1
 444.416 1269.76 l 1
 636.928 1601.54 l 1
 739.328 1601.54 l 1
692.224 49.1523 m 0
 870.4 49.1523 1015.81 208.896 1015.81 466.944 c 2
 1015.81 1114.11 l 1
 1003.52 1142.78 972.8 1155.07 886.784 1155.07 c 1
 886.784 1198.08 l 1
 1214.46 1198.08 l 1
 1214.46 1155.07 l 1
 1128.45 1155.07 1097.73 1142.78 1085.44 1114.11 c 1
 1085.44 507.904 l 2
 1085.44 131.072 890.88 -20.4805 671.744 -20.4805 c 0
 395.264 -20.4805 180.224 106.496 180.224 507.904 c 2
 180.224 1114.11 l 1
 167.936 1142.78 137.216 1155.07 51.2002 1155.07 c 1
 51.2002 1198.08 l 1
 497.664 1198.08 l 1
 497.664 1155.07 l 1
 411.648 1155.07 380.928 1142.78 368.64 1114.11 c 1
 368.64 479.232 l 2
 368.64 200.704 505.856 49.1523 692.224 49.1523 c 0
EndSplineSet
Fore
Refer: 549 770 N 1 0 0 1 1208 246 2
Refer: 54 85 N 1 0 0 1 0 0 3
Validated: 1
EndChar

StartChar: Udieresis
Encoding: 220 220 156
Width: 1265
Flags: MW
LayerCount: 2
Back
SplineSet
776.192 1370.11 m 0
 776.192 1425.41 821.248 1470.46 876.544 1470.46 c 0
 931.84 1470.46 976.896 1425.41 976.896 1370.11 c 0
 976.896 1314.82 931.84 1269.76 876.544 1269.76 c 0
 821.248 1269.76 776.192 1314.82 776.192 1370.11 c 0
399.36 1370.11 m 0
 399.36 1425.41 444.416 1470.46 499.712 1470.46 c 0
 555.008 1470.46 600.064 1425.41 600.064 1370.11 c 0
 600.064 1314.82 555.008 1269.76 499.712 1269.76 c 0
 444.416 1269.76 399.36 1314.82 399.36 1370.11 c 0
692.224 49.1523 m 0
 870.4 49.1523 1015.81 208.896 1015.81 466.944 c 2
 1015.81 1114.11 l 1
 1003.52 1142.78 972.8 1155.07 886.784 1155.07 c 1
 886.784 1198.08 l 1
 1214.46 1198.08 l 1
 1214.46 1155.07 l 1
 1128.45 1155.07 1097.73 1142.78 1085.44 1114.11 c 1
 1085.44 507.904 l 2
 1085.44 131.072 890.88 -20.4805 671.744 -20.4805 c 0
 395.264 -20.4805 180.224 106.496 180.224 507.904 c 2
 180.224 1114.11 l 1
 167.936 1142.78 137.216 1155.07 51.2002 1155.07 c 1
 51.2002 1198.08 l 1
 497.664 1198.08 l 1
 497.664 1155.07 l 1
 411.648 1155.07 380.928 1142.78 368.64 1114.11 c 1
 368.64 479.232 l 2
 368.64 200.704 505.856 49.1523 692.224 49.1523 c 0
EndSplineSet
Fore
Refer: 104 168 S 1 0 0 1 276 246 2
Refer: 54 85 N 1 0 0 1 0 0 3
Validated: 1
EndChar

StartChar: Yacute
Encoding: 221 221 157
Width: 1153
Flags: MW
LayerCount: 2
Back
SplineSet
755.712 1601.54 m 1x28
 972.8 1601.54 l 1
 657.408 1269.76 l 1
 604.16 1269.76 l 1
 755.712 1601.54 l 1x28
430.08 1198.08 m 1xd0
 430.08 1155.07 l 1
 362.496 1155.07 327.68 1148.93 311.296 1130.5 c 1
 628.736 575.488 l 1
 956.416 1118.21 l 1
 942.08 1142.78 909.312 1155.07 829.44 1155.07 c 1
 829.44 1198.08 l 1
 1165.31 1198.08 l 1
 1165.31 1155.07 l 1
 1099.78 1155.07 1067.01 1144.83 1048.58 1128.45 c 1
 679.936 516.096 l 1
 679.936 83.9678 l 1
 692.224 55.2959 722.944 43.0078 808.96 43.0078 c 1
 808.96 0 l 1
 362.496 0 l 1
 362.496 43.0078 l 1
 448.512 43.0078 479.232 55.2959 491.52 83.9678 c 1
 491.52 450.56 l 1
 112.64 1114.11 l 1
 94.208 1140.74 61.4404 1155.07 -18.4316 1155.07 c 1
 -18.4316 1198.08 l 1
 430.08 1198.08 l 1xd0
EndSplineSet
Fore
Refer: 509 714 S 1 0 0 1 481 246 2
Refer: 58 89 N 1 0 0 1 0 0 3
Validated: 1
EndChar

StartChar: Thorn
Encoding: 222 222 158
Width: 1069
Flags: MW
LayerCount: 2
Fore
SplineSet
403 84 m 1,0,1
 420 43 420 43 532 43 c 1,2,-1
 532 0 l 1,3,-1
 86 0 l 1,4,-1
 86 43 l 1,5,6
 198 43 198 43 215 84 c 1,7,-1
 215 1114 l 1,8,9
 198 1155 198 1155 86 1155 c 1,10,-1
 86 1198 l 1,11,-1
 532 1198 l 1,12,-1
 532 1155 l 1,13,14
 420 1155 420 1155 403 1114 c 1,15,-1
 403 942 l 1,16,-1
 510 942 l 2,17,18
 891 942 891 942 996 750 c 0,19,20
 1026 695 1026 695 1026 631 c 0,21,22
 1026 476 1026 476 903.5 382.5 c 128,-1,23
 781 289 781 289 535 289 c 2,24,-1
 403 289 l 1,25,-1
 403 84 l 1,0,1
403 872 m 1,26,-1
 403 358 l 1,27,-1
 535 358 l 2,28,29
 692 358 692 358 756.5 421 c 128,-1,30
 821 484 821 484 821 633 c 0,31,32
 821 746 821 746 760 806 c 0,33,34
 693 872 693 872 510 872 c 2,35,-1
 403 872 l 1,26,-1
EndSplineSet
Validated: 1
EndChar

StartChar: germandbls
Encoding: 223 223 159
Width: 1052
Flags: MW
LayerCount: 2
Fore
SplineSet
43 43 m 1,0,1
 155 43 155 43 172 84 c 1,2,-1
 172 971 l 2,3,4
 172 1207 172 1207 365 1273 c 0,5,6
 415 1290 415 1290 492 1290 c 128,-1,7
 569 1290 569 1290 637 1272 c 0,8,9
 705 1252 705 1252 743 1216 c 0,10,11
 813 1149 813 1149 813 1024 c 0,12,13
 813 938 813 938 757 857.5 c 128,-1,14
 701 777 701 777 614 735 c 1,15,16
 766 709 766 709 879.5 605.5 c 128,-1,17
 993 502 993 502 993 389 c 0,18,19
 993 201 993 201 906 90.5 c 128,-1,20
 819 -20 819 -20 662 -20 c 0,21,22
 596 -20 596 -20 545 0.5 c 128,-1,23
 494 21 494 21 468 50 c 0,24,25
 416 108 416 108 416 158.5 c 128,-1,26
 416 209 416 209 431.5 233.5 c 128,-1,27
 447 258 447 258 478.5 258 c 128,-1,28
 510 258 510 258 520 235.5 c 128,-1,29
 530 213 530 213 534.5 181.5 c 128,-1,30
 539 150 539 150 547 118 c 128,-1,31
 555 86 555 86 580.5 63.5 c 128,-1,32
 606 41 606 41 649 41 c 0,33,34
 717 41 717 41 770 128 c 128,-1,35
 823 215 823 215 823 322.5 c 128,-1,36
 823 430 823 430 777 512.5 c 128,-1,37
 731 595 731 595 652.5 650 c 128,-1,38
 574 705 574 705 489 705 c 2,39,-1
 485 705 l 2,40,41
 453 705 453 705 453 724.5 c 128,-1,42
 453 744 453 744 485 754 c 1,43,44
 541 775 541 775 595 860 c 128,-1,45
 649 945 649 945 649 1022 c 0,46,47
 649 1118 649 1118 588 1188 c 0,48,49
 552 1230 552 1230 500 1230 c 0,50,-1
 498 1230 l 0,51,52
 444 1230 444 1230 400 1169 c 128,-1,53
 356 1108 356 1108 356 999 c 2,54,-1
 356 0 l 1,55,-1
 43 0 l 1,56,-1
 43 43 l 1,0,1
EndSplineSet
Validated: 1
EndChar

StartChar: agrave
Encoding: 224 224 160
Width: 989
Flags: MW
LayerCount: 2
Back
SplineSet
356.352 1386.5 m 1x09
 507.904 1054.72 l 1
 454.656 1054.72 l 1
 139.264 1386.5 l 1
 356.352 1386.5 l 1x09
229.376 749.568 m 1xf4c0
 262.144 749.568 301.056 729.088 301.056 665.6 c 0
 301.056 614.4 251.904 593.92 208.896 593.92 c 0
 155.648 593.92 120.832 634.88 120.832 696.32 c 0xf2c0
 120.832 839.68 243.712 921.6 458.752 921.6 c 0
 727.04 921.6 827.392 768 827.392 577.536 c 2
 827.392 172.032 l 2
 827.392 77.8242 866.304 45.0557 901.12 45.0557 c 0
 935.936 45.0557 970.752 65.5361 970.752 94.208 c 1
 1007.62 94.208 l 1
 1007.62 18.4316 960.512 -16.3838 819.2 -16.3838 c 0
 759.808 -16.3838 706.561 2.04785 673.792 67.584 c 1
 614.4 24.5762 516.096 -20.4805 372.736 -20.4805 c 0
 200.704 -20.4805 65.5361 32.7676 65.5361 229.376 c 0
 65.5361 419.84 436.224 456.704 643.072 516.096 c 1
 643.072 735.232 598.016 847.872 438.272 847.872 c 0
 331.776 847.872 249.856 829.44 229.376 749.568 c 1xf4c0
655.36 118.784 m 1
 647.168 149.504 643.072 186.368 643.072 229.376 c 2
 643.072 471.04 l 1
 499.712 425.984 256 391.168 256 225.28 c 0xf4c0
 256 86.0156 315.392 49.1523 407.552 49.1523 c 0
 489.472 49.1523 591.872 79.8721 655.36 118.784 c 1
EndSplineSet
Fore
Refer: 510 715 S 1 0 0 1 16 31 2
Refer: 66 97 N 1 0 0 1 0 0 3
Validated: 1
EndChar

StartChar: aacute
Encoding: 225 225 161
Width: 989
Flags: MW
LayerCount: 2
Back
SplineSet
579.584 1386.5 m 1x09
 796.672 1386.5 l 1
 481.28 1054.72 l 1
 428.032 1054.72 l 1
 579.584 1386.5 l 1x09
229.376 749.568 m 1xf4c0
 262.144 749.568 301.056 729.088 301.056 665.6 c 0
 301.056 614.4 251.904 593.92 208.896 593.92 c 0
 155.648 593.92 120.832 634.88 120.832 696.32 c 0xf2c0
 120.832 839.68 243.712 921.6 458.752 921.6 c 0
 727.04 921.6 827.392 768 827.392 577.536 c 2
 827.392 172.032 l 2
 827.392 77.8242 866.304 45.0557 901.12 45.0557 c 0
 935.936 45.0557 970.752 65.5361 970.752 94.208 c 1
 1007.62 94.208 l 1
 1007.62 18.4316 960.512 -16.3838 819.2 -16.3838 c 0
 759.808 -16.3838 706.561 2.04785 673.792 67.584 c 1
 614.4 24.5762 516.096 -20.4805 372.736 -20.4805 c 0
 200.704 -20.4805 65.5361 32.7676 65.5361 229.376 c 0
 65.5361 419.84 436.224 456.704 643.072 516.096 c 1
 643.072 735.232 598.016 847.872 438.272 847.872 c 0
 331.776 847.872 249.856 829.44 229.376 749.568 c 1xf4c0
655.36 118.784 m 1
 647.168 149.504 643.072 186.368 643.072 229.376 c 2
 643.072 471.04 l 1
 499.712 425.984 256 391.168 256 225.28 c 0xf4c0
 256 86.0156 315.392 49.1523 407.552 49.1523 c 0
 489.472 49.1523 591.872 79.8721 655.36 118.784 c 1
EndSplineSet
Fore
Refer: 509 714 S 1 0 0 1 305 31 2
Refer: 66 97 N 1 0 0 1 0 0 3
Validated: 1
EndChar

StartChar: acircumflex
Encoding: 226 226 162
Width: 989
Flags: MW
LayerCount: 2
Back
SplineSet
505.856 1386.5 m 1x09
 698.368 1054.72 l 1
 645.12 1054.72 l 1
 454.656 1232.9 l 1
 264.192 1054.72 l 1
 210.944 1054.72 l 1
 403.456 1386.5 l 1
 505.856 1386.5 l 1x09
229.376 749.568 m 1xf4c0
 262.144 749.568 301.056 729.088 301.056 665.6 c 0
 301.056 614.4 251.904 593.92 208.896 593.92 c 0
 155.648 593.92 120.832 634.88 120.832 696.32 c 0xf2c0
 120.832 839.68 243.712 921.6 458.752 921.6 c 0
 727.04 921.6 827.392 768 827.392 577.536 c 2
 827.392 172.032 l 2
 827.392 77.8242 866.304 45.0557 901.12 45.0557 c 0
 935.936 45.0557 970.752 65.5361 970.752 94.208 c 1
 1007.62 94.208 l 1
 1007.62 18.4316 960.512 -16.3838 819.2 -16.3838 c 0
 759.808 -16.3838 706.561 2.04785 673.792 67.584 c 1
 614.4 24.5762 516.096 -20.4805 372.736 -20.4805 c 0
 200.704 -20.4805 65.5361 32.7676 65.5361 229.376 c 0
 65.5361 419.84 436.224 456.704 643.072 516.096 c 1
 643.072 735.232 598.016 847.872 438.272 847.872 c 0
 331.776 847.872 249.856 829.44 229.376 749.568 c 1xf4c0
655.36 118.784 m 1
 647.168 149.504 643.072 186.368 643.072 229.376 c 2
 643.072 471.04 l 1
 499.712 425.984 256 391.168 256 225.28 c 0xf4c0
 256 86.0156 315.392 49.1523 407.552 49.1523 c 0
 489.472 49.1523 591.872 79.8721 655.36 118.784 c 1
EndSplineSet
Fore
Refer: 549 770 S 1 0 0 1 975 31 2
Refer: 66 97 N 1 0 0 1 0 0 3
Validated: 1
EndChar

StartChar: atilde
Encoding: 227 227 163
Width: 989
Flags: MW
AnchorPoint: "mid" 446 242 basechar 0
AnchorPoint: "ogonek" 844 0 basechar 0
AnchorPoint: "cedilla" 406 0 basechar 0
AnchorPoint: "below" 485 0 basechar 0
AnchorPoint: "top" 479 1306 basechar 0
LayerCount: 2
Back
SplineSet
608.256 1054.72 m 0x0ca0
 524.288 1054.72 352.256 1175.55 290.816 1175.55 c 0
 208.896 1175.55 188.416 1130.5 188.416 1054.72 c 1
 149.504 1054.72 l 1
 149.504 1247.23 227.328 1284.1 305.152 1284.1 c 0
 389.12 1284.1 563.2 1163.26 624.64 1163.26 c 0
 706.561 1163.26 727.04 1208.32 727.04 1284.1 c 1
 765.952 1284.1 l 1
 765.952 1091.58 686.08 1054.72 608.256 1054.72 c 0x0ca0
229.376 749.568 m 1xf250
 262.144 749.568 301.056 729.088 301.056 665.6 c 0
 301.056 614.4 251.904 593.92 208.896 593.92 c 0
 155.648 593.92 120.832 634.88 120.832 696.32 c 0xf150
 120.832 839.68 243.712 921.6 458.752 921.6 c 0
 727.04 921.6 827.392 768 827.392 577.536 c 2
 827.392 172.032 l 2
 827.392 77.8242 866.304 45.0557 901.12 45.0557 c 0
 935.936 45.0557 970.752 65.5361 970.752 94.208 c 1
 1007.62 94.208 l 1
 1007.62 18.4316 960.512 -16.3838 819.2 -16.3838 c 0
 759.808 -16.3838 706.561 2.04785 673.792 67.584 c 1
 614.4 24.5762 516.096 -20.4805 372.736 -20.4805 c 0
 200.704 -20.4805 65.5361 32.7676 65.5361 229.376 c 0
 65.5361 419.84 436.224 456.704 643.072 516.096 c 1
 643.072 735.232 598.016 847.872 438.272 847.872 c 0
 331.776 847.872 249.856 829.44 229.376 749.568 c 1xf250
655.36 118.784 m 1
 647.168 149.504 643.072 186.368 643.072 229.376 c 2
 643.072 471.04 l 1
 499.712 425.984 256 391.168 256 225.28 c 0xf250
 256 86.0156 315.392 49.1523 407.552 49.1523 c 0
 489.472 49.1523 591.872 79.8721 655.36 118.784 c 1
EndSplineSet
Fore
Refer: 527 732 S 1 0 0 1 27 31 2
Refer: 66 97 N 1 0 0 1 0 0 3
Validated: 1
EndChar

StartChar: adieresis
Encoding: 228 228 164
Width: 989
Flags: MW
AnchorPoint: "mid" 446 242 basechar 0
AnchorPoint: "ogonek" 844 0 basechar 0
AnchorPoint: "cedilla" 406 0 basechar 0
AnchorPoint: "below" 485 0 basechar 0
AnchorPoint: "top" 459 1306 basechar 0
LayerCount: 2
Back
SplineSet
542.72 1155.07 m 0x0980
 542.72 1210.37 587.776 1255.42 643.072 1255.42 c 0
 698.368 1255.42 743.424 1210.37 743.424 1155.07 c 0
 743.424 1099.78 698.368 1054.72 643.072 1054.72 c 0
 587.776 1054.72 542.72 1099.78 542.72 1155.07 c 0x0980
165.888 1155.07 m 0
 165.888 1210.37 210.944 1255.42 266.24 1255.42 c 0
 321.536 1255.42 366.592 1210.37 366.592 1155.07 c 0
 366.592 1099.78 321.536 1054.72 266.24 1054.72 c 0
 210.944 1054.72 165.888 1099.78 165.888 1155.07 c 0
229.376 749.568 m 1xf460
 262.144 749.568 301.056 729.088 301.056 665.6 c 0
 301.056 614.4 251.904 593.92 208.896 593.92 c 0
 155.648 593.92 120.832 634.88 120.832 696.32 c 0xf260
 120.832 839.68 243.712 921.6 458.752 921.6 c 0
 727.04 921.6 827.392 768 827.392 577.536 c 2
 827.392 172.032 l 2
 827.392 77.8242 866.304 45.0557 901.12 45.0557 c 0
 935.936 45.0557 970.752 65.5361 970.752 94.208 c 1
 1007.62 94.208 l 1
 1007.62 18.4316 960.512 -16.3838 819.2 -16.3838 c 0
 759.808 -16.3838 706.561 2.04785 673.792 67.584 c 1
 614.4 24.5762 516.096 -20.4805 372.736 -20.4805 c 0
 200.704 -20.4805 65.5361 32.7676 65.5361 229.376 c 0
 65.5361 419.84 436.224 456.704 643.072 516.096 c 1
 643.072 735.232 598.016 847.872 438.272 847.872 c 0
 331.776 847.872 249.856 829.44 229.376 749.568 c 1xf460
655.36 118.784 m 1
 647.168 149.504 643.072 186.368 643.072 229.376 c 2
 643.072 471.04 l 1
 499.712 425.984 256 391.168 256 225.28 c 0xf460
 256 86.0156 315.392 49.1523 407.552 49.1523 c 0
 489.472 49.1523 591.872 79.8721 655.36 118.784 c 1
EndSplineSet
Fore
Refer: 104 168 N 1 0 0 1 43 31 2
Refer: 66 97 N 1 0 0 1 0 0 3
Validated: 1
EndChar

StartChar: aring
Encoding: 229 229 165
Width: 989
Flags: MW
LayerCount: 2
Back
SplineSet
358.4 1196.03 m 0x0cc0
 358.4 1142.78 401.408 1099.78 454.656 1099.78 c 0
 507.904 1099.78 550.912 1142.78 550.912 1196.03 c 0
 550.912 1249.28 507.904 1292.29 454.656 1292.29 c 0
 401.408 1292.29 358.4 1249.28 358.4 1196.03 c 0x0cc0
270.336 1196.03 m 0
 270.336 1300.48 350.208 1380.35 454.656 1380.35 c 0
 559.104 1380.35 638.976 1300.48 638.976 1196.03 c 0
 638.976 1091.58 559.104 1011.71 454.656 1011.71 c 0
 350.208 1011.71 270.336 1091.58 270.336 1196.03 c 0
229.376 749.568 m 1xf230
 262.144 749.568 301.056 729.088 301.056 665.6 c 0
 301.056 614.4 251.904 593.92 208.896 593.92 c 0
 155.648 593.92 120.832 634.88 120.832 696.32 c 0xf130
 120.832 839.68 243.712 921.6 458.752 921.6 c 0
 727.04 921.6 827.392 768 827.392 577.536 c 2
 827.392 172.032 l 2
 827.392 77.8242 866.304 45.0557 901.12 45.0557 c 0
 935.936 45.0557 970.752 65.5361 970.752 94.208 c 1
 1007.62 94.208 l 1
 1007.62 18.4316 960.512 -16.3838 819.2 -16.3838 c 0
 759.808 -16.3838 706.561 2.04785 673.792 67.584 c 1
 614.4 24.5762 516.096 -20.4805 372.736 -20.4805 c 0
 200.704 -20.4805 65.5361 32.7676 65.5361 229.376 c 0
 65.5361 419.84 436.224 456.704 643.072 516.096 c 1
 643.072 735.232 598.016 847.872 438.272 847.872 c 0
 331.776 847.872 249.856 829.44 229.376 749.568 c 1xf230
655.36 118.784 m 1
 647.168 149.504 643.072 186.368 643.072 229.376 c 2
 643.072 471.04 l 1
 499.712 425.984 256 391.168 256 225.28 c 0xf230
 256 86.0156 315.392 49.1523 407.552 49.1523 c 0
 489.472 49.1523 591.872 79.8721 655.36 118.784 c 1
EndSplineSet
Fore
Refer: 525 730 N 1 0 0 1 221 31 2
Refer: 66 97 N 1 0 0 1 0 0 3
Validated: 1
EndChar

StartChar: ae
Encoding: 230 230 166
Width: 1449
Flags: MW
AnchorPoint: "below" 696 0 basechar 0
AnchorPoint: "top" 711 1055 basechar 0
LayerCount: 2
Fore
SplineSet
610 506 m 1,0,1
 610 687 610 687 573 767.5 c 128,-1,2
 536 848 536 848 442.5 848 c 128,-1,3
 349 848 349 848 296 827 c 128,-1,4
 243 806 243 806 229 750 c 1,5,6
 258 750 258 750 279.5 729.5 c 128,-1,7
 301 709 301 709 301 670 c 128,-1,8
 301 631 301 631 273.5 612.5 c 128,-1,9
 246 594 246 594 207.5 594 c 128,-1,10
 169 594 169 594 145 622 c 128,-1,11
 121 650 121 650 121 696 c 0,12,13
 121 803 121 803 209.5 862.5 c 128,-1,14
 298 922 298 922 469.5 922 c 128,-1,15
 641 922 641 922 727 809 c 1,16,17
 826 922 826 922 987 922 c 0,18,19
 1276 922 1276 922 1351 656 c 0,20,21
 1372 582 1372 582 1372 494 c 1,22,-1
 803 494 l 1,23,-1
 803 451 l 2,24,25
 803 57 803 57 1077 57 c 0,26,27
 1152 57 1152 57 1204.5 86.5 c 128,-1,28
 1257 116 1257 116 1319 193 c 1,29,-1
 1368 168 l 1,30,31
 1328 101 1328 101 1284 62 c 0,32,33
 1193 -20 1193 -20 1004 -20 c 128,-1,34
 815 -20 815 -20 713 94 c 1,35,36
 572 -20 572 -20 373 -20 c 0,37,38
 147 -20 147 -20 89 107 c 0,39,40
 66 157 66 157 66 212 c 128,-1,41
 66 267 66 267 84 298.5 c 128,-1,42
 102 330 102 330 138 354 c 128,-1,43
 174 378 174 378 212.5 396.5 c 128,-1,44
 251 415 251 415 308 431.5 c 128,-1,45
 365 448 365 448 409 458.5 c 128,-1,46
 453 469 453 469 514.5 483 c 128,-1,47
 576 497 576 497 610 506 c 1,0,1
610 463 m 1,48,49
 599 460 599 460 565.5 451 c 128,-1,50
 532 442 532 442 517 437.5 c 128,-1,51
 502 433 502 433 470.5 423 c 128,-1,52
 439 413 439 413 422.5 406 c 128,-1,53
 406 399 406 399 379.5 386.5 c 128,-1,54
 353 374 353 374 338.5 363 c 128,-1,55
 324 352 324 352 305.5 336.5 c 128,-1,56
 287 321 287 321 278 305 c 0,57,58
 256 266 256 266 256 225 c 0,59,60
 256 127 256 127 294.5 88 c 128,-1,61
 333 49 333 49 401.5 49 c 128,-1,62
 470 49 470 49 550.5 74 c 128,-1,63
 631 99 631 99 684 133 c 1,64,65
 610 253 610 253 610 442 c 2,66,-1
 610 463 l 1,48,49
809 557 m 1,67,-1
 1171 557 l 1,68,69
 1156 746 1156 746 1110 804 c 0,70,71
 1065 860 1065 860 977 860 c 0,72,73
 923 860 923 860 874 779 c 128,-1,74
 825 698 825 698 809 557 c 1,67,-1
EndSplineSet
Validated: 1
EndChar

StartChar: ccedilla
Encoding: 231 231 167
Width: 980
UnlinkRmOvrlpSave: 1
Flags: MW
LayerCount: 2
Back
SplineSet
557 860 m 0
 473 860 404.833 828 352.5 764 c 128
 300.167 700 274 613.333 274 504 c 0
 274 428 289 355.333 319 286 c 128
 349 216.667 388.667 161.167 438 119.5 c 128
 487.333 77.8333 540.667 57 598 57 c 128
 655.333 57 706.5 67.3333 751.5 88 c 128
 796.5 108.667 839 143.667 879 193 c 1
 928 168 l 1
 891.333 108 845 63 789 33 c 128
 733 3 660.333 -14 571 -18 c 1
 547 -113 l 1
 611.667 -113 666.667 -131.667 712 -169 c 0
 738.667 -191 752 -214.667 752 -240 c 128
 752 -265.333 748.667 -286.667 742 -304 c 0
 736.667 -321.333 726 -338 710 -354 c 0
 676 -390 614.667 -408 526 -408 c 0
 484.667 -408 434.333 -403 375 -393 c 1
 375 -358 l 1
 399 -360.667 416 -362 426 -362 c 0
 478.667 -362 516.333 -352.167 539 -332.5 c 128
 561.667 -312.833 573 -290.667 573 -266 c 0
 573 -206 531.667 -176 449 -176 c 1
 494 -20 l 1
 355.333 -12.6667 248 43 172 147 c 0
 110.667 232.333 80 348.667 80 496 c 0
 80 612 120.667 711.333 202 794 c 0
 286 879.333 397.667 922 537 922 c 0
 645.667 922 729 903.5 787 866.5 c 128
 845 829.5 874 775.667 874 705 c 0
 874 674.333 866 649.5 850 630.5 c 128
 834 611.5 813.167 602 787.5 602 c 128
 761.833 602 739.833 608.167 721.5 620.5 c 128
 703.167 632.833 694 652 694 678 c 128
 694 704 701.167 723.833 715.5 737.5 c 128
 729.833 751.167 746.667 758 766 758 c 1
 748.667 826 679 860 557 860 c 0
EndSplineSet
Fore
Refer: 586 807 S 1 0 0 1 1059 0 2
Refer: 68 99 N 1 0 0 1 0 0 2
EndChar

StartChar: egrave
Encoding: 232 232 168
Width: 1009
Flags: MW
LayerCount: 2
Back
SplineSet
401.408 1386.5 m 1x14
 552.96 1054.72 l 1
 499.712 1054.72 l 1
 184.32 1386.5 l 1
 401.408 1386.5 l 1x14
274.432 493.568 m 1xe8
 278.528 264.192 430.08 57.3438 591.872 57.3438 c 0
 710.656 57.3438 796.672 90.1123 878.592 192.512 c 1
 927.744 167.936 l 1
 849.92 40.96 735.232 -20.4805 522.24 -20.4805 c 0
 333.824 -20.4805 79.8721 81.9199 79.8721 495.616 c 0
 79.8721 724.992 227.328 921.6 501.76 921.6 c 0
 808.96 921.6 931.84 718.848 931.84 493.568 c 1
 274.432 493.568 l 1xe8
276.48 557.056 m 1
 731.136 557.056 l 1
 716.8 727.04 675.84 860.16 493.568 860.16 c 0
 403.456 860.16 294.912 745.472 276.48 557.056 c 1
EndSplineSet
Fore
Refer: 510 715 S 1 0 0 1 61 31 2
Refer: 70 101 N 1 0 0 1 0 0 3
Validated: 1
EndChar

StartChar: eacute
Encoding: 233 233 169
Width: 1009
Flags: MW
LayerCount: 2
Back
SplineSet
624.64 1386.5 m 1
 841.729 1386.5 l 1
 526.336 1054.72 l 1
 473.088 1054.72 l 1
 624.64 1386.5 l 1
274.432 493.568 m 1
 278.528 264.192 430.08 57.3438 591.872 57.3438 c 0
 710.656 57.3438 796.672 90.1123 878.592 192.512 c 1
 927.744 167.936 l 1
 849.92 40.96 735.232 -20.4805 522.24 -20.4805 c 0
 333.824 -20.4805 79.8721 81.9199 79.8721 495.616 c 0
 79.8721 724.992 227.328 921.6 501.76 921.6 c 0
 808.96 921.6 931.84 718.848 931.84 493.568 c 1
 274.432 493.568 l 1
276.48 557.056 m 1
 731.136 557.056 l 1
 716.8 727.04 675.84 860.16 493.568 860.16 c 0
 403.456 860.16 294.912 745.472 276.48 557.056 c 1
EndSplineSet
Fore
Refer: 509 714 S 1 0 0 1 350 31 2
Refer: 70 101 N 1 0 0 1 0 0 3
Validated: 1
EndChar

StartChar: ecircumflex
Encoding: 234 234 170
Width: 1009
Flags: W
HStem: 1051 336
VStem: 196 607
LayerCount: 2
Back
SplineSet
550.912 1386.5 m 1x14
 743.424 1054.72 l 1
 690.176 1054.72 l 1
 499.712 1232.9 l 1
 309.248 1054.72 l 1
 256 1054.72 l 1
 448.512 1386.5 l 1
 550.912 1386.5 l 1x14
274.432 493.568 m 1xe8
 278.528 264.192 430.08 57.3438 591.872 57.3438 c 0
 710.656 57.3438 796.672 90.1123 878.592 192.512 c 1
 927.744 167.936 l 1
 849.92 40.96 735.232 -20.4805 522.24 -20.4805 c 0
 333.824 -20.4805 79.8721 81.9199 79.8721 495.616 c 0
 79.8721 724.992 227.328 921.6 501.76 921.6 c 0
 808.96 921.6 931.84 718.848 931.84 493.568 c 1
 274.432 493.568 l 1xe8
276.48 557.056 m 1
 731.136 557.056 l 1
 716.8 727.04 675.84 860.16 493.568 860.16 c 0
 403.456 860.16 294.912 745.472 276.48 557.056 c 1
EndSplineSet
Fore
Refer: 549 770 N 1 0 0 1 1020 31 2
Refer: 70 101 N 1 0 0 1 0 0 3
Validated: 1
EndChar

StartChar: edieresis
Encoding: 235 235 171
Width: 1009
Flags: MW
AnchorPoint: "mid" 510 692 basechar 0
AnchorPoint: "ogonek" 610 0 basechar 0
AnchorPoint: "cedilla" 535 0 basechar 0
AnchorPoint: "below" 535 0 basechar 0
AnchorPoint: "top" 504 1306 basechar 0
LayerCount: 2
Back
SplineSet
587.776 1155.07 m 0x16
 587.776 1210.37 632.832 1255.42 688.128 1255.42 c 0
 743.424 1255.42 788.48 1210.37 788.48 1155.07 c 0
 788.48 1099.78 743.424 1054.72 688.128 1054.72 c 0
 632.832 1054.72 587.776 1099.78 587.776 1155.07 c 0x16
210.944 1155.07 m 0
 210.944 1210.37 256 1255.42 311.296 1255.42 c 0
 366.592 1255.42 411.648 1210.37 411.648 1155.07 c 0
 411.648 1099.78 366.592 1054.72 311.296 1054.72 c 0
 256 1054.72 210.944 1099.78 210.944 1155.07 c 0
274.432 493.568 m 1xe8
 278.528 264.192 430.08 57.3438 591.872 57.3438 c 0
 710.656 57.3438 796.672 90.1123 878.592 192.512 c 1
 927.744 167.936 l 1
 849.92 40.96 735.232 -20.4805 522.24 -20.4805 c 0
 333.824 -20.4805 79.8721 81.9199 79.8721 495.616 c 0
 79.8721 724.992 227.328 921.6 501.76 921.6 c 0
 808.96 921.6 931.84 718.848 931.84 493.568 c 1
 274.432 493.568 l 1xe8
276.48 557.056 m 1
 731.136 557.056 l 1
 716.8 727.04 675.84 860.16 493.568 860.16 c 0
 403.456 860.16 294.912 745.472 276.48 557.056 c 1
EndSplineSet
Fore
Refer: 104 168 N 1 0 0 1 88 31 2
Refer: 70 101 N 1 0 0 1 0 0 3
Validated: 1
EndChar

StartChar: igrave
Encoding: 236 236 172
Width: 548
Flags: MW
LayerCount: 2
Back
SplineSet
190.464 1386.5 m 1x18
 342.016 1054.72 l 1
 288.768 1054.72 l 1
 -26.624 1386.5 l 1
 190.464 1386.5 l 1x18
63.4883 0 m 1xe4
 63.4883 43.0078 l 1
 149.504 43.0078 180.224 55.2959 192.512 83.9678 c 1
 192.512 776.192 l 1
 141.312 780.288 94.208 786.432 63.4883 786.432 c 1
 63.4883 833.536 l 1
 143.36 833.536 284.672 921.6 376.832 921.6 c 1
 376.832 83.9678 l 1
 389.12 55.2959 419.84 43.0078 505.856 43.0078 c 1
 505.856 0 l 1
 63.4883 0 l 1xe4
EndSplineSet
Fore
Refer: 510 715 S 1 0 0 1 -150 31 2
Refer: 241 305 N 1 0 0 1 0 0 3
Validated: 1
EndChar

StartChar: iacute
Encoding: 237 237 173
Width: 548
Flags: MW
LayerCount: 2
Back
SplineSet
413.696 1386.5 m 1x14
 630.784 1386.5 l 1
 315.392 1054.72 l 1
 262.144 1054.72 l 1
 413.696 1386.5 l 1x14
63.4883 0 m 1xe8
 63.4883 43.0078 l 1
 149.504 43.0078 180.224 55.2959 192.512 83.9678 c 1
 192.512 776.192 l 1
 141.312 780.288 94.208 786.432 63.4883 786.432 c 1
 63.4883 833.536 l 1
 143.36 833.536 284.672 921.6 376.832 921.6 c 1
 376.832 83.9678 l 1
 389.12 55.2959 419.84 43.0078 505.856 43.0078 c 1
 505.856 0 l 1
 63.4883 0 l 1xe8
EndSplineSet
Fore
Refer: 509 714 S 1 0 0 1 139 31 2
Refer: 241 305 N 1 0 0 1 0 0 3
Validated: 1
EndChar

StartChar: icircumflex
Encoding: 238 238 174
Width: 548
Flags: W
HStem: 1051 336
VStem: -15 607
LayerCount: 2
Back
SplineSet
339.968 1386.5 m 1x18
 532.48 1054.72 l 1
 479.232 1054.72 l 1
 288.768 1232.9 l 1
 98.3037 1054.72 l 1
 45.0557 1054.72 l 1
 237.568 1386.5 l 1
 339.968 1386.5 l 1x18
63.4883 0 m 1xe4
 63.4883 43.0078 l 1
 149.504 43.0078 180.224 55.2959 192.512 83.9678 c 1
 192.512 776.192 l 1
 141.312 780.288 94.208 786.432 63.4883 786.432 c 1
 63.4883 833.536 l 1
 143.36 833.536 284.672 921.6 376.832 921.6 c 1
 376.832 83.9678 l 1
 389.12 55.2959 419.84 43.0078 505.856 43.0078 c 1
 505.856 0 l 1
 63.4883 0 l 1xe4
EndSplineSet
Fore
Refer: 549 770 S 1 0 0 1 809 31 2
Refer: 241 305 N 1 0 0 1 0 0 3
Validated: 1
EndChar

StartChar: idieresis
Encoding: 239 239 175
Width: 548
Flags: MW
AnchorPoint: "mid" 287 532 basechar 0
AnchorPoint: "ogonek" 360 0 basechar 0
AnchorPoint: "cedilla" 274 0 basechar 0
AnchorPoint: "below" 274 0 basechar 0
AnchorPoint: "top" 304 1306 basechar 0
LayerCount: 2
Back
SplineSet
376.832 1155.07 m 0x1a
 376.832 1210.37 421.888 1255.42 477.184 1255.42 c 0
 532.48 1255.42 577.536 1210.37 577.536 1155.07 c 0
 577.536 1099.78 532.48 1054.72 477.184 1054.72 c 0
 421.888 1054.72 376.832 1099.78 376.832 1155.07 c 0x1a
0 1155.07 m 0
 0 1210.37 45.0557 1255.42 100.352 1255.42 c 0
 155.648 1255.42 200.704 1210.37 200.704 1155.07 c 0
 200.704 1099.78 155.648 1054.72 100.352 1054.72 c 0
 45.0557 1054.72 0 1099.78 0 1155.07 c 0
63.4883 0 m 1xe4
 63.4883 43.0078 l 1
 149.504 43.0078 180.224 55.2959 192.512 83.9678 c 1
 192.512 776.192 l 1
 141.312 780.288 94.208 786.432 63.4883 786.432 c 1
 63.4883 833.536 l 1
 143.36 833.536 284.672 921.6 376.832 921.6 c 1
 376.832 83.9678 l 1
 389.12 55.2959 419.84 43.0078 505.856 43.0078 c 1
 505.856 0 l 1
 63.4883 0 l 1xe4
EndSplineSet
Fore
Refer: 104 168 N 1 0 0 1 -123 31 2
Refer: 241 305 N 1 0 0 1 0 0 3
Validated: 1
EndChar

StartChar: eth
Encoding: 240 240 176
Width: 1079
Flags: MW
LayerCount: 2
Fore
SplineSet
608 1139 m 1,0,1
 995 857 995 857 995 442 c 0,2,3
 994 247 994 247 898 121 c 0,4,5
 790 -20 790 -20 554.5 -20 c 128,-1,6
 319 -20 319 -20 199.5 112 c 128,-1,7
 80 244 80 244 80 467 c 0,8,9
 80 812 80 812 355 898 c 0,10,11
 433 922 433 922 517 922 c 128,-1,12
 601 922 601 922 668 909 c 1,13,14
 610 1002 610 1002 522 1090 c 1,15,-1
 350 991 l 1,16,-1
 315 1051 l 1,17,-1
 469 1139 l 1,18,19
 391 1208 391 1208 328 1242 c 1,20,-1
 307 1253 l 1,21,-1
 330 1290 l 1,22,23
 424 1256 424 1256 543 1182 c 1,24,-1
 723 1286 l 1,25,-1
 758 1227 l 1,26,-1
 608 1139 l 1,0,1
356 156.5 m 128,-1,28
 436 41 436 41 573 41 c 0,29,30
 682 41 682 41 740.5 138.5 c 128,-1,31
 799 236 799 236 799 395 c 0,32,33
 799 637 799 637 726 747.5 c 128,-1,34
 653 858 653 858 498 858 c 0,35,36
 426 858 426 858 374 808 c 0,37,38
 276 711 276 711 276 491.5 c 128,-1,27
 276 272 276 272 356 156.5 c 128,-1,28
EndSplineSet
Validated: 1
Substitution2: "'ss09' D with stroke through bowl subtable" eth.ss09
EndChar

StartChar: ntilde
Encoding: 241 241 177
Width: 1144
Flags: MW
LayerCount: 2
Back
SplineSet
743.424 1056.77 m 0x1a80
 659.456 1056.77 487.424 1177.6 425.984 1177.6 c 0
 344.064 1177.6 323.584 1132.54 323.584 1056.77 c 1
 284.672 1056.77 l 1
 284.672 1249.28 362.496 1286.14 440.32 1286.14 c 0
 524.288 1286.14 698.368 1165.31 759.808 1165.31 c 0
 841.729 1165.31 862.208 1210.37 862.208 1286.14 c 1
 901.12 1286.14 l 1
 901.12 1093.63 821.248 1056.77 743.424 1056.77 c 0x1a80
63.4883 0 m 1xe5
 63.4883 43.0078 l 1
 149.504 43.0078 180.224 55.2959 192.512 83.9678 c 1
 192.512 776.192 l 1
 141.312 780.288 94.208 786.432 63.4883 786.432 c 1
 63.4883 833.536 l 1
 143.36 833.536 284.672 921.6 376.832 921.6 c 1
 376.832 827.392 l 1
 432.128 874.496 514.048 921.6 620.544 921.6 c 0
 878.592 921.6 980.992 827.392 980.992 630.784 c 2
 980.992 83.9678 l 1
 993.28 55.2959 1024 43.0078 1110.02 43.0078 c 1
 1110.02 0 l 1
 667.648 0 l 1
 667.648 43.0078 l 1
 753.664 43.0078 784.384 55.2959 796.672 83.9678 c 1
 796.672 645.12 l 2
 796.672 757.76 755.712 851.968 608.256 851.968 c 0
 501.76 851.968 425.984 804.864 376.832 761.856 c 1
 376.832 83.9678 l 1
 389.12 55.2959 419.84 43.0078 505.856 43.0078 c 1
 505.856 0 l 1
 63.4883 0 l 1xe5
EndSplineSet
Fore
Refer: 527 732 N 1 0 0 1 162 33 2
Refer: 79 110 N 1 0 0 1 0 0 3
Validated: 1
EndChar

StartChar: ograve
Encoding: 242 242 178
Width: 1116
Flags: MW
LayerCount: 2
Back
SplineSet
462.848 1386.5 m 1x28
 614.4 1054.72 l 1
 561.152 1054.72 l 1
 245.76 1386.5 l 1
 462.848 1386.5 l 1x28
276.48 507.904 m 0xd4
 276.48 180.224 419.84 40.96 593.92 40.96 c 0
 743.424 40.96 839.68 190.464 839.68 395.264 c 0
 839.68 720.896 722.944 858.112 518.145 858.112 c 0
 368.64 858.112 276.48 690.176 276.48 507.904 c 0xd4
567.296 -20.4805 m 0
 253.952 -20.4805 79.8721 180.224 79.8721 466.944 c 0
 79.8721 708.608 212.992 921.6 552.96 921.6 c 0
 884.736 921.6 1036.29 729.088 1036.29 442.368 c 0
 1036.29 200.704 905.216 -20.4805 567.296 -20.4805 c 0
EndSplineSet
Fore
Refer: 510 715 S 1 0 0 1 123 31 2
Refer: 80 111 N 1 0 0 1 0 0 3
Validated: 1
EndChar

StartChar: oacute
Encoding: 243 243 179
Width: 1116
Flags: MW
LayerCount: 2
Back
SplineSet
686.08 1386.5 m 1x28
 903.168 1386.5 l 1
 587.776 1054.72 l 1
 534.528 1054.72 l 1
 686.08 1386.5 l 1x28
276.48 507.904 m 0xd4
 276.48 180.224 419.84 40.96 593.92 40.96 c 0
 743.424 40.96 839.68 190.464 839.68 395.264 c 0
 839.68 720.896 722.944 858.112 518.145 858.112 c 0
 368.64 858.112 276.48 690.176 276.48 507.904 c 0xd4
567.296 -20.4805 m 0
 253.952 -20.4805 79.8721 180.224 79.8721 466.944 c 0
 79.8721 708.608 212.992 921.6 552.96 921.6 c 0
 884.736 921.6 1036.29 729.088 1036.29 442.368 c 0
 1036.29 200.704 905.216 -20.4805 567.296 -20.4805 c 0
EndSplineSet
Fore
Refer: 509 714 S 1 0 0 1 412 31 2
Refer: 80 111 N 1 0 0 1 0 0 3
Validated: 1
EndChar

StartChar: ocircumflex
Encoding: 244 244 180
Width: 1116
Flags: W
HStem: 1051 336
VStem: 257 607
LayerCount: 2
Back
SplineSet
612.352 1386.5 m 1
 804.864 1054.72 l 1
 751.616 1054.72 l 1
 561.152 1232.9 l 1
 370.688 1054.72 l 1
 317.44 1054.72 l 1
 509.952 1386.5 l 1
 612.352 1386.5 l 1
276.48 507.904 m 0
 276.48 180.224 419.84 40.96 593.92 40.96 c 0
 743.424 40.96 839.68 190.464 839.68 395.264 c 0
 839.68 720.896 722.944 858.112 518.145 858.112 c 0
 368.64 858.112 276.48 690.176 276.48 507.904 c 0
567.296 -20.4805 m 0
 253.952 -20.4805 79.8721 180.224 79.8721 466.944 c 0
 79.8721 708.608 212.992 921.6 552.96 921.6 c 0
 884.736 921.6 1036.29 729.088 1036.29 442.368 c 0
 1036.29 200.704 905.216 -20.4805 567.296 -20.4805 c 0
EndSplineSet
Fore
Refer: 549 770 N 1 0 0 1 1081 31 2
Refer: 80 111 N 1 0 0 1 0 0 3
Validated: 1
EndChar

StartChar: otilde
Encoding: 245 245 181
Width: 1116
Flags: MW
AnchorPoint: "mid" 557 471 basechar 0
AnchorPoint: "below" 573 0 basechar 0
AnchorPoint: "cedilla" 573 0 basechar 0
AnchorPoint: "ogonek" 573 0 basechar 0
AnchorPoint: "top" 589 1306 basechar 0
LayerCount: 2
Back
SplineSet
714.752 1054.72 m 0x36
 630.784 1054.72 458.752 1175.55 397.312 1175.55 c 0
 315.392 1175.55 294.912 1130.5 294.912 1054.72 c 1
 256 1054.72 l 1
 256 1247.23 333.824 1284.1 411.648 1284.1 c 0
 495.616 1284.1 669.696 1163.26 731.136 1163.26 c 0
 813.056 1163.26 833.536 1208.32 833.536 1284.1 c 1
 872.448 1284.1 l 1
 872.448 1091.58 792.576 1054.72 714.752 1054.72 c 0x36
276.48 507.904 m 0xc9
 276.48 180.224 419.84 40.96 593.92 40.96 c 0
 743.424 40.96 839.68 190.464 839.68 395.264 c 0
 839.68 720.896 722.944 858.112 518.145 858.112 c 0
 368.64 858.112 276.48 690.176 276.48 507.904 c 0xc9
567.296 -20.4805 m 0
 253.952 -20.4805 79.8721 180.224 79.8721 466.944 c 0
 79.8721 708.608 212.992 921.6 552.96 921.6 c 0
 884.736 921.6 1036.29 729.088 1036.29 442.368 c 0
 1036.29 200.704 905.216 -20.4805 567.296 -20.4805 c 0
EndSplineSet
Fore
Refer: 527 732 N 1 0 0 1 133 31 2
Refer: 80 111 N 1 0 0 1 0 0 3
Validated: 1
EndChar

StartChar: odieresis
Encoding: 246 246 182
Width: 1116
Flags: MW
AnchorPoint: "mid" 557 471 basechar 0
AnchorPoint: "below" 573 0 basechar 0
AnchorPoint: "cedilla" 573 0 basechar 0
AnchorPoint: "ogonek" 573 0 basechar 0
AnchorPoint: "top" 574 1306 basechar 0
LayerCount: 2
Back
SplineSet
649.216 1155.07 m 0x2c
 649.216 1210.37 694.272 1255.42 749.568 1255.42 c 0
 804.864 1255.42 849.92 1210.37 849.92 1155.07 c 0
 849.92 1099.78 804.864 1054.72 749.568 1054.72 c 0
 694.272 1054.72 649.216 1099.78 649.216 1155.07 c 0x2c
272.384 1155.07 m 0
 272.384 1210.37 317.44 1255.42 372.736 1255.42 c 0
 428.032 1255.42 473.088 1210.37 473.088 1155.07 c 0
 473.088 1099.78 428.032 1054.72 372.736 1054.72 c 0
 317.44 1054.72 272.384 1099.78 272.384 1155.07 c 0
276.48 507.904 m 0xd2
 276.48 180.224 419.84 40.96 593.92 40.96 c 0
 743.424 40.96 839.68 190.464 839.68 395.264 c 0
 839.68 720.896 722.944 858.112 518.145 858.112 c 0
 368.64 858.112 276.48 690.176 276.48 507.904 c 0xd2
567.296 -20.4805 m 0
 253.952 -20.4805 79.8721 180.224 79.8721 466.944 c 0
 79.8721 708.608 212.992 921.6 552.96 921.6 c 0
 884.736 921.6 1036.29 729.088 1036.29 442.368 c 0
 1036.29 200.704 905.216 -20.4805 567.296 -20.4805 c 0
EndSplineSet
Fore
Refer: 104 168 N 1 0 0 1 150 31 2
Refer: 80 111 N 1 0 0 1 0 0 3
Validated: 1
EndChar

StartChar: divide
Encoding: 247 247 183
Width: 987
Flags: MW
LayerCount: 2
Fore
SplineSet
377 936 m 0,0,1
 378 982 378 982 411 1020.5 c 128,-1,2
 444 1059 444 1059 490 1059 c 128,-1,3
 536 1059 536 1059 573 1023.5 c 128,-1,4
 610 988 610 988 610 942 c 128,-1,5
 610 896 610 896 578 856 c 128,-1,6
 546 816 546 816 499 816 c 2,7,-1
 498 816 l 2,8,9
 450 816 450 816 413.5 853 c 128,-1,10
 377 890 377 890 377 936 c 0,0,1
377 362 m 128,-1,12
 377 408 377 408 409 446.5 c 128,-1,13
 441 485 441 485 488.5 485 c 128,-1,14
 536 485 536 485 573 450 c 128,-1,15
 610 415 610 415 610 369.5 c 128,-1,16
 610 324 610 324 578 284 c 128,-1,17
 546 244 546 244 498 244 c 128,-1,18
 450 244 450 244 413.5 280 c 128,-1,11
 377 316 377 316 377 362 c 128,-1,12
90 696 m 1,19,-1
 897 696 l 1,20,-1
 897 606 l 1,21,-1
 90 606 l 1,22,-1
 90 696 l 1,19,-1
EndSplineSet
Validated: 1
EndChar

StartChar: oslash
Encoding: 248 248 184
Width: 1116
UnlinkRmOvrlpSave: 1
Flags: MW
AnchorPoint: "below" 573 0 basechar 0
AnchorPoint: "cedilla" 573 0 basechar 0
AnchorPoint: "ogonek" 573 0 basechar 0
AnchorPoint: "top" 561 1055 basechar 0
LayerCount: 2
Fore
SplineSet
229 -72 m 1
 174 -31 l 1
 877 973 l 1
 932 932 l 1
 229 -72 l 1
EndSplineSet
Refer: 80 111 N 1 0 0 1 0 0 2
EndChar

StartChar: ugrave
Encoding: 249 249 185
Width: 1126
Flags: MW
LayerCount: 2
Back
SplineSet
456.704 1386.5 m 1x14
 608.256 1054.72 l 1
 555.008 1054.72 l 1
 239.616 1386.5 l 1
 456.704 1386.5 l 1x14
952.32 124.928 m 1xea
 1003.52 120.832 1050.62 114.688 1081.34 114.688 c 1
 1081.34 67.584 l 1
 1001.47 67.584 860.16 -20.4805 768 -20.4805 c 1
 768 73.7275 l 1
 712.704 26.624 630.784 -20.4805 524.288 -20.4805 c 0
 266.24 -20.4805 163.84 73.7275 163.84 270.336 c 2
 163.84 817.152 l 1
 151.552 845.824 120.832 858.112 34.8164 858.112 c 1
 34.8164 901.12 l 1
 348.16 901.12 l 1
 348.16 256 l 2
 348.16 143.36 389.12 49.1523 536.576 49.1523 c 0
 643.072 49.1523 718.848 96.2559 768 139.264 c 1
 768 817.152 l 1
 755.712 845.824 724.992 858.112 638.976 858.112 c 1
 638.976 901.12 l 1
 952.32 901.12 l 1
 952.32 124.928 l 1xea
EndSplineSet
Fore
Refer: 510 715 S 1 0 0 1 117 31 2
Refer: 86 117 N 1 0 0 1 0 0 3
Validated: 1
EndChar

StartChar: uacute
Encoding: 250 250 186
Width: 1126
Flags: MW
LayerCount: 2
Back
SplineSet
679.936 1386.5 m 1x14
 897.024 1386.5 l 1
 581.632 1054.72 l 1
 528.384 1054.72 l 1
 679.936 1386.5 l 1x14
952.32 124.928 m 1xea
 1003.52 120.832 1050.62 114.688 1081.34 114.688 c 1
 1081.34 67.584 l 1
 1001.47 67.584 860.16 -20.4805 768 -20.4805 c 1
 768 73.7275 l 1
 712.704 26.624 630.784 -20.4805 524.288 -20.4805 c 0
 266.24 -20.4805 163.84 73.7275 163.84 270.336 c 2
 163.84 817.152 l 1
 151.552 845.824 120.832 858.112 34.8164 858.112 c 1
 34.8164 901.12 l 1
 348.16 901.12 l 1
 348.16 256 l 2
 348.16 143.36 389.12 49.1523 536.576 49.1523 c 0
 643.072 49.1523 718.848 96.2559 768 139.264 c 1
 768 817.152 l 1
 755.712 845.824 724.992 858.112 638.976 858.112 c 1
 638.976 901.12 l 1
 952.32 901.12 l 1
 952.32 124.928 l 1xea
EndSplineSet
Fore
Refer: 509 714 S 1 0 0 1 406 31 2
Refer: 86 117 N 1 0 0 1 0 0 3
Validated: 1
EndChar

StartChar: ucircumflex
Encoding: 251 251 187
Width: 1126
Flags: W
HStem: 1051 336
VStem: 251 607
LayerCount: 2
Back
SplineSet
606.208 1386.5 m 1x14
 798.72 1054.72 l 1
 745.472 1054.72 l 1
 555.008 1232.9 l 1
 364.544 1054.72 l 1
 311.296 1054.72 l 1
 503.808 1386.5 l 1
 606.208 1386.5 l 1x14
952.32 124.928 m 1xea
 1003.52 120.832 1050.62 114.688 1081.34 114.688 c 1
 1081.34 67.584 l 1
 1001.47 67.584 860.16 -20.4805 768 -20.4805 c 1
 768 73.7275 l 1
 712.704 26.624 630.784 -20.4805 524.288 -20.4805 c 0
 266.24 -20.4805 163.84 73.7275 163.84 270.336 c 2
 163.84 817.152 l 1
 151.552 845.824 120.832 858.112 34.8164 858.112 c 1
 34.8164 901.12 l 1
 348.16 901.12 l 1
 348.16 256 l 2
 348.16 143.36 389.12 49.1523 536.576 49.1523 c 0
 643.072 49.1523 718.848 96.2559 768 139.264 c 1
 768 817.152 l 1
 755.712 845.824 724.992 858.112 638.976 858.112 c 1
 638.976 901.12 l 1
 952.32 901.12 l 1
 952.32 124.928 l 1xea
EndSplineSet
Fore
Refer: 549 770 N 1 0 0 1 1075 31 2
Refer: 86 117 N 1 0 0 1 0 0 3
Validated: 1
EndChar

StartChar: udieresis
Encoding: 252 252 188
Width: 1126
Flags: MW
AnchorPoint: "mid" 553 504 basechar 0
AnchorPoint: "ogonek" 795 0 basechar 0
AnchorPoint: "below" 563 0 basechar 0
AnchorPoint: "cedilla" 539 0 basechar 0
AnchorPoint: "top" 564 1306 basechar 0
LayerCount: 2
Back
SplineSet
643.072 1155.07 m 0x16
 643.072 1210.37 688.128 1255.42 743.424 1255.42 c 0
 798.72 1255.42 843.776 1210.37 843.776 1155.07 c 0
 843.776 1099.78 798.72 1054.72 743.424 1054.72 c 0
 688.128 1054.72 643.072 1099.78 643.072 1155.07 c 0x16
266.24 1155.07 m 0
 266.24 1210.37 311.296 1255.42 366.592 1255.42 c 0
 421.888 1255.42 466.944 1210.37 466.944 1155.07 c 0
 466.944 1099.78 421.888 1054.72 366.592 1054.72 c 0
 311.296 1054.72 266.24 1099.78 266.24 1155.07 c 0
952.32 124.928 m 1xe9
 1003.52 120.832 1050.62 114.688 1081.34 114.688 c 1
 1081.34 67.584 l 1
 1001.47 67.584 860.16 -20.4805 768 -20.4805 c 1
 768 73.7275 l 1
 712.704 26.624 630.784 -20.4805 524.288 -20.4805 c 0
 266.24 -20.4805 163.84 73.7275 163.84 270.336 c 2
 163.84 817.152 l 1
 151.552 845.824 120.832 858.112 34.8164 858.112 c 1
 34.8164 901.12 l 1
 348.16 901.12 l 1
 348.16 256 l 2
 348.16 143.36 389.12 49.1523 536.576 49.1523 c 0
 643.072 49.1523 718.848 96.2559 768 139.264 c 1
 768 817.152 l 1
 755.712 845.824 724.992 858.112 638.976 858.112 c 1
 638.976 901.12 l 1
 952.32 901.12 l 1
 952.32 124.928 l 1xe9
EndSplineSet
Fore
Refer: 104 168 N 1 0 0 1 143 31 2
Refer: 86 117 N 1 0 0 1 0 0 3
Validated: 1
EndChar

StartChar: yacute
Encoding: 253 253 189
Width: 989
Flags: MW
LayerCount: 2
Back
SplineSet
657.408 1386.5 m 1
 874.496 1386.5 l 1
 559.104 1054.72 l 1
 505.856 1054.72 l 1
 657.408 1386.5 l 1
387.072 901.12 m 1
 387.072 858.112 l 1
 348.16 858.112 321.536 856.064 301.056 849.92 c 1
 544.768 249.856 l 1
 778.24 835.584 l 1
 759.808 849.92 727.04 858.112 663.552 858.112 c 1
 663.552 901.12 l 1
 999.424 901.12 l 1
 999.424 858.112 l 1
 923.648 858.112 882.688 845.824 872.448 821.248 c 2
 460.8 -208.896 l 2
 403.456 -350.208 305.152 -393.216 245.76 -393.216 c 0
 174.08 -393.216 135.168 -348.16 135.168 -303.104 c 0
 135.168 -266.24 161.792 -223.232 215.04 -223.232 c 0
 256 -223.232 270.336 -258.048 299.008 -258.048 c 0
 329.729 -258.048 348.16 -243.712 356.352 -221.184 c 2
 444.416 0 l 1
 118.784 817.152 l 2
 106.496 845.824 75.7764 858.112 -10.2402 858.112 c 1
 -10.2402 901.12 l 1
 387.072 901.12 l 1
EndSplineSet
Fore
Refer: 509 714 S 1 0 0 1 383 31 2
Refer: 90 121 N 1 0 0 1 0 0 3
Validated: 1
EndChar

StartChar: thorn
Encoding: 254 254 190
Width: 1062
Flags: MW
LayerCount: 2
Fore
SplineSet
324 -309 m 1,0,1
 341 -350 341 -350 453 -350 c 1,2,-1
 453 -393 l 1,3,-1
 10 -393 l 1,4,-1
 10 -350 l 1,5,6
 122 -350 122 -350 139 -309 c 1,7,-1
 139 1145 l 1,8,9
 12 1155 12 1155 10 1155 c 1,10,-1
 10 1202 l 1,11,12
 48 1202 48 1202 162 1246 c 128,-1,13
 276 1290 276 1290 324 1290 c 1,14,-1
 324 799 l 1,15,16
 439 922 439 922 606 922 c 0,17,18
 699 922 699 922 773 889 c 0,19,20
 848 856 848 856 892 801 c 0,21,22
 983 689 983 689 983 550 c 0,23,24
 982 256 982 256 811 116 c 0,25,26
 639 -24 639 -24 324 -25 c 1,27,-1
 324 -309 l 1,0,1
324 725 m 1,28,-1
 324 35 l 1,29,30
 680 39 680 39 764 316 c 0,31,32
 788 395 788 395 788 526 c 128,-1,33
 788 657 788 657 732 754.5 c 128,-1,34
 676 852 676 852 586 852 c 0,35,36
 426 852 426 852 324 725 c 1,28,-1
EndSplineSet
Validated: 1
EndChar

StartChar: ydieresis
Encoding: 255 255 191
Width: 989
Flags: MW
LayerCount: 2
Back
SplineSet
620.544 1155.07 m 0
 620.544 1210.37 665.6 1255.42 720.896 1255.42 c 0
 776.192 1255.42 821.248 1210.37 821.248 1155.07 c 0
 821.248 1099.78 776.192 1054.72 720.896 1054.72 c 0
 665.6 1054.72 620.544 1099.78 620.544 1155.07 c 0
243.712 1155.07 m 0
 243.712 1210.37 288.768 1255.42 344.064 1255.42 c 0
 399.36 1255.42 444.416 1210.37 444.416 1155.07 c 0
 444.416 1099.78 399.36 1054.72 344.064 1054.72 c 0
 288.768 1054.72 243.712 1099.78 243.712 1155.07 c 0
387.072 901.12 m 1
 387.072 858.112 l 1
 348.16 858.112 321.536 856.064 301.056 849.92 c 1
 544.768 249.856 l 1
 778.24 835.584 l 1
 759.808 849.92 727.04 858.112 663.552 858.112 c 1
 663.552 901.12 l 1
 999.424 901.12 l 1
 999.424 858.112 l 1
 923.648 858.112 882.688 845.824 872.448 821.248 c 2
 460.8 -208.896 l 2
 403.456 -350.208 305.152 -393.216 245.76 -393.216 c 0
 174.08 -393.216 135.168 -348.16 135.168 -303.104 c 0
 135.168 -266.24 161.792 -223.232 215.04 -223.232 c 0
 256 -223.232 270.336 -258.048 299.008 -258.048 c 0
 329.729 -258.048 348.16 -243.712 356.352 -221.184 c 2
 444.416 0 l 1
 118.784 817.152 l 2
 106.496 845.824 75.7764 858.112 -10.2402 858.112 c 1
 -10.2402 901.12 l 1
 387.072 901.12 l 1
EndSplineSet
Fore
Refer: 104 168 S 1 0 0 1 121 31 2
Refer: 90 121 N 1 0 0 1 0 0 3
Validated: 1
EndChar

StartChar: uni0100
Encoding: 256 256 192
Width: 1118
Flags: MW
LayerCount: 2
Back
SplineSet
282.624 1388.54 m 1
 823.296 1388.54 l 1
 823.296 1298.43 l 1
 282.624 1298.43 l 1
 282.624 1388.54 l 1
688.128 0 m 1
 688.128 43.0078 l 1
 755.712 43.0078 790.528 51.2002 806.912 67.584 c 1
 692.224 380.928 l 1
 299.008 380.928 l 1
 192.512 79.8721 l 1
 206.848 53.248 237.568 43.0078 319.488 43.0078 c 1
 319.488 0 l 1
 -16.3838 0 l 1
 -16.3838 43.0078 l 1
 69.6318 43.0078 102.4 57.3438 112.64 86.0156 c 2
 509.952 1198.08 l 1
 608.256 1198.08 l 1
 1005.57 86.0156 l 2
 1015.81 57.3438 1050.62 43.0078 1136.64 43.0078 c 1
 1136.64 0 l 1
 688.128 0 l 1
493.568 925.696 m 1
 323.584 448.512 l 1
 667.648 448.512 l 1
 493.568 925.696 l 1
EndSplineSet
Fore
Refer: 508 713 S 1 0 0 1 201 246 2
Refer: 34 65 N 1 0 0 1 0 0 3
Validated: 1
EndChar

StartChar: uni0101
Encoding: 257 257 193
Width: 989
Flags: MW
LayerCount: 2
Back
SplineSet
172.032 1173.5 m 1x09
 712.704 1173.5 l 1
 712.704 1083.39 l 1
 172.032 1083.39 l 1
 172.032 1173.5 l 1x09
229.376 749.568 m 1xf4c0
 262.144 749.568 301.056 729.088 301.056 665.6 c 0
 301.056 614.4 251.904 593.92 208.896 593.92 c 0
 155.648 593.92 120.832 634.88 120.832 696.32 c 0xf2c0
 120.832 839.68 243.712 921.6 458.752 921.6 c 0
 727.04 921.6 827.392 768 827.392 577.536 c 2
 827.392 172.032 l 2
 827.392 77.8242 866.304 45.0557 901.12 45.0557 c 0
 935.936 45.0557 970.752 65.5361 970.752 94.208 c 1
 1007.62 94.208 l 1
 1007.62 18.4316 960.512 -16.3838 819.2 -16.3838 c 0
 759.808 -16.3838 706.561 2.04785 673.792 67.584 c 1
 614.4 24.5762 516.096 -20.4805 372.736 -20.4805 c 0
 200.704 -20.4805 65.5361 32.7676 65.5361 229.376 c 0
 65.5361 419.84 436.224 456.704 643.072 516.096 c 1
 643.072 735.232 598.016 847.872 438.272 847.872 c 0
 331.776 847.872 249.856 829.44 229.376 749.568 c 1xf4c0
655.36 118.784 m 1
 647.168 149.504 643.072 186.368 643.072 229.376 c 2
 643.072 471.04 l 1
 499.712 425.984 256 391.168 256 225.28 c 0xf4c0
 256 86.0156 315.392 49.1523 407.552 49.1523 c 0
 489.472 49.1523 591.872 79.8721 655.36 118.784 c 1
EndSplineSet
Fore
Refer: 508 713 S 1 0 0 1 90 31 2
Refer: 66 97 N 1 0 0 1 0 0 3
Validated: 1
EndChar

StartChar: uni0102
Encoding: 258 258 194
Width: 1118
Flags: MW
LayerCount: 2
Back
SplineSet
565.248 1290.24 m 0
 380.928 1290.24 307.2 1447.94 307.2 1544.19 c 1
 364.544 1544.19 l 1
 364.544 1495.04 428.032 1437.7 565.248 1437.7 c 0
 702.464 1437.7 765.952 1492.99 765.952 1544.19 c 1
 823.296 1544.19 l 1
 823.296 1447.94 751.616 1290.24 565.248 1290.24 c 0
688.128 0 m 1
 688.128 43.0078 l 1
 755.712 43.0078 790.528 51.2002 806.912 67.584 c 1
 692.224 380.928 l 1
 299.008 380.928 l 1
 192.512 79.8721 l 1
 206.848 53.248 237.568 43.0078 319.488 43.0078 c 1
 319.488 0 l 1
 -16.3838 0 l 1
 -16.3838 43.0078 l 1
 69.6318 43.0078 102.4 57.3438 112.64 86.0156 c 2
 509.952 1198.08 l 1
 608.256 1198.08 l 1
 1005.57 86.0156 l 2
 1015.81 57.3438 1050.62 43.0078 1136.64 43.0078 c 1
 1136.64 0 l 1
 688.128 0 l 1
493.568 925.696 m 1
 323.584 448.512 l 1
 667.648 448.512 l 1
 493.568 925.696 l 1
EndSplineSet
Fore
Refer: 523 728 S 1 0 0 1 184 246 2
Refer: 34 65 N 1 0 0 1 0 0 3
Validated: 1
EndChar

StartChar: uni0103
Encoding: 259 259 195
Width: 989
Flags: MW
LayerCount: 2
Back
SplineSet
454.656 1075.2 m 0x0940
 270.336 1075.2 196.608 1232.9 196.608 1329.15 c 1
 253.952 1329.15 l 1
 253.952 1280 317.44 1222.66 454.656 1222.66 c 0
 591.872 1222.66 655.36 1277.95 655.36 1329.15 c 1
 712.704 1329.15 l 1
 712.704 1232.9 641.024 1075.2 454.656 1075.2 c 0x0940
229.376 749.568 m 1xf4a0
 262.144 749.568 301.056 729.088 301.056 665.6 c 0
 301.056 614.4 251.904 593.92 208.896 593.92 c 0
 155.648 593.92 120.832 634.88 120.832 696.32 c 0xf2a0
 120.832 839.68 243.712 921.6 458.752 921.6 c 0
 727.04 921.6 827.392 768 827.392 577.536 c 2
 827.392 172.032 l 2
 827.392 77.8242 866.304 45.0557 901.12 45.0557 c 0
 935.936 45.0557 970.752 65.5361 970.752 94.208 c 1
 1007.62 94.208 l 1
 1007.62 18.4316 960.512 -16.3838 819.2 -16.3838 c 0
 759.808 -16.3838 706.561 2.04785 673.792 67.584 c 1
 614.4 24.5762 516.096 -20.4805 372.736 -20.4805 c 0
 200.704 -20.4805 65.5361 32.7676 65.5361 229.376 c 0
 65.5361 419.84 436.224 456.704 643.072 516.096 c 1
 643.072 735.232 598.016 847.872 438.272 847.872 c 0
 331.776 847.872 249.856 829.44 229.376 749.568 c 1xf4a0
655.36 118.784 m 1
 647.168 149.504 643.072 186.368 643.072 229.376 c 2
 643.072 471.04 l 1
 499.712 425.984 256 391.168 256 225.28 c 0xf4a0
 256 86.0156 315.392 49.1523 407.552 49.1523 c 0
 489.472 49.1523 591.872 79.8721 655.36 118.784 c 1
EndSplineSet
Fore
Refer: 523 728 S 1 0 0 1 74 31 2
Refer: 66 97 N 1 0 0 1 0 0 3
Validated: 1
EndChar

StartChar: uni0104
Encoding: 260 260 196
Width: 1118
UnlinkRmOvrlpSave: 1
Flags: MW
AnchorPoint: "top" 565 1270 basechar 0
LayerCount: 2
Back
SplineSet
887.5 -213.566 m 0
 887.5 -256.233 898.833 -287.899 921.5 -308.566 c 128
 944.167 -329.233 972.167 -339.566 1005.5 -339.566 c 0
 1042.84 -339.566 1073.17 -331.233 1096.5 -314.566 c 1
 1111.5 -355.566 l 1
 1076.17 -391.566 1030.83 -409.566 975.5 -409.566 c 0
 914.166 -409.566 863.833 -393.399 824.5 -361.066 c 128
 785.167 -328.733 765.5 -288.9 765.5 -241.566 c 0
 765.5 -174.233 783.833 -118.233 820.5 -73.5664 c 0
 845.239 -43.4299 873.316 -18.9078 904.731 0 c 1
 688 0 l 1
 688 43 l 1
 750.667 43 790.333 51.3333 807 68 c 1
 692 381 l 1
 299 381 l 1
 193 80 l 1
 200.333 66 213 56.3333 231 51 c 128
 249 45.6667 278.333 43 319 43 c 1
 319 0 l 1
 -16 0 l 1
 -16 43 l 1
 59.3333 43 102.333 57.3333 113 86 c 2
 510 1198 l 1
 608 1198 l 1
 1006 86 l 2
 1016 57.3333 1059.67 43 1137 43 c 1
 1137 0 l 1
 979.027 -2.13718e-15 l 1
 947.934 -28.5372 924.925 -58.5593 910 -90.0664 c 0
 895 -121.733 887.5 -162.899 887.5 -213.566 c 0
494 926 m 1
 324 449 l 1
 668 449 l 1
 494 926 l 1
EndSplineSet
Fore
Refer: 587 808 S 1 0 0 1 1548 0 2
Refer: 34 65 N 1 0 0 1 0 0 2
Substitution2: "'ss01' Centered Ogonek subtable" uni0104.ss01
EndChar

StartChar: uni0105
Encoding: 261 261 197
Width: 989
UnlinkRmOvrlpSave: 1
Flags: MW
AnchorPoint: "top" 455 1055 basechar 0
LayerCount: 2
Back
SplineSet
784 -213.566 m 0
 784 -256.233 795.333 -287.899 818 -308.566 c 128
 840.667 -329.233 868.667 -339.566 902 -339.566 c 0
 939.333 -339.566 969.667 -331.233 993 -314.566 c 1
 1008 -355.566 l 1
 972.665 -391.566 927.332 -409.566 872 -409.566 c 0
 810.665 -409.566 760.332 -393.399 721 -361.066 c 128
 681.667 -328.733 662 -288.9 662 -241.566 c 0
 662 -174.233 680.333 -118.233 717 -73.5664 c 0
 736.477 -49.8431 758.021 -29.5988 781.629 -12.8337 c 1
 732.44 -4.07214 696.564 22.8724 674 68 c 1
 593.333 9.33333 493 -20 373 -20 c 0
 222.333 -20 127.667 22.3333 89 107 c 0
 73.6667 140.333 66 175.5 66 212.5 c 128
 66 249.5 72.8333 279 86.5 301 c 128
 100.167 323 119.667 342.333 145 359 c 128
 170.333 375.667 197.667 390.333 227 403 c 128
 256.333 415.667 290.5 427.5 329.5 438.5 c 128
 368.5 449.5 404.333 458.833 437 466.5 c 128
 469.667 474.167 506.167 482.667 546.5 492 c 128
 586.833 501.333 619 509.333 643 516 c 1
 643 630.667 628 714.667 598 768 c 128
 568 821.333 519 848 451 848 c 128
 383 848 331.333 841 296 827 c 128
 260.667 813 238.333 787.333 229 750 c 1
 248.333 750 265.167 743.167 279.5 729.5 c 128
 293.833 715.833 301 696 301 670 c 128
 301 644 291.833 624.833 273.5 612.5 c 128
 255.167 600.167 233.167 594 207.5 594 c 128
 181.833 594 161 603.333 145 622 c 128
 129 640.668 121 665.335 121 696 c 0
 121 767.333 150.5 822.833 209.5 862.5 c 128
 268.5 902.167 351.667 922 459 922 c 0
 643.667 922 759.334 852 806 712 c 0
 819.333 672 826.333 627.333 827 578 c 1
 827 172 l 2
 827 128.667 834.333 96.6666 849 76 c 128
 863.667 55.3333 880.5 45 899.5 45 c 128
 918.5 45 935.167 49.6667 949.5 59 c 128
 963.833 68.3333 971 80 971 94 c 1
 1008 94 l 1
 1008 55.3333 993.833 27.3333 965.5 10 c 0
 943.104 -3.70107 908.004 -11.9872 860.199 -14.8583 c 1
 836.757 -38.9096 818.857 -63.979 806.5 -90.0664 c 0
 791.5 -121.733 784 -162.899 784 -213.566 c 0
655 119 m 1
 647 149.667 643 186.333 643 229 c 2
 643 471 l 1
 627.667 466.333 602 459 566 449 c 128
 530 439 500.667 430.667 478 424 c 128
 455.333 417.332 428.333 407.165 397 393.5 c 128
 365.667 379.833 341 366 323 352 c 0
 278.333 317.333 256 271 256 213 c 0
 256 103.667 306.667 49 408 49 c 0
 448 49 491.167 55.6667 537.5 69 c 128
 583.833 82.3333 623 99 655 119 c 1
EndSplineSet
Fore
Refer: 587 808 N 1 0 0 1 1418 0 2
Refer: 66 97 N 1 0 0 1 0 0 2
Substitution2: "'ss01' Centered Ogonek subtable" uni0105.ss01
EndChar

StartChar: uni0106
Encoding: 262 262 198
Width: 1150
Flags: MW
LayerCount: 2
Back
SplineSet
829.44 1601.54 m 1x14
 1046.53 1601.54 l 1
 731.136 1269.76 l 1
 677.888 1269.76 l 1
 829.44 1601.54 l 1x14
708.608 1148.93 m 0xc9
 475.136 1148.93 299.008 937.984 299.008 626.688 c 0
 299.008 245.76 503.808 49.1523 716.8 49.1523 c 0
 860.16 49.1523 1011.71 169.984 1048.58 270.336 c 1
 1097.73 245.76 l 1
 1046.53 122.88 927.744 -20.4805 675.84 -20.4805 c 0
 294.912 -20.4805 86.0156 270.336 86.0156 581.632 c 0
 86.0156 978.944 385.024 1218.56 706.561 1218.56 c 0xc9
 811.008 1218.56 894.976 1157.12 933.888 1157.12 c 0
 948.224 1157.12 958.464 1173.5 958.464 1198.08 c 1
 1005.57 1198.08 l 1xaa
 1026.05 937.984 l 1
 980.992 937.984 l 1
 964.608 1050.62 884.736 1148.93 708.608 1148.93 c 0xc9
EndSplineSet
Fore
Refer: 509 714 N 1 0 0 1 555 246 2
Refer: 36 67 N 1 0 0 1 0 0 3
Validated: 1
EndChar

StartChar: uni0107
Encoding: 263 263 199
Width: 980
Flags: MW
LayerCount: 2
Back
SplineSet
671.744 1386.5 m 1x14
 888.832 1386.5 l 1
 573.44 1054.72 l 1
 520.192 1054.72 l 1
 671.744 1386.5 l 1x14
557.056 860.16 m 0xea
 391.168 860.16 274.432 724.992 274.432 503.808 c 0
 274.432 270.336 428.032 57.3438 591.872 57.3438 c 0
 710.656 57.3438 796.672 90.1123 878.592 192.512 c 1
 927.744 167.936 l 1
 849.92 40.96 735.232 -20.4805 522.24 -20.4805 c 0
 333.824 -20.4805 79.8721 81.9199 79.8721 495.616 c 0
 79.8721 724.992 253.952 921.6 536.576 921.6 c 0
 751.616 921.6 874.496 847.872 874.496 704.512 c 0
 874.496 643.072 839.68 602.112 786.432 602.112 c 0
 743.424 602.112 694.272 622.592 694.272 673.792 c 0
 694.272 737.28 733.184 757.76 765.952 757.76 c 1
 745.472 837.632 663.552 860.16 557.056 860.16 c 0xea
EndSplineSet
Fore
Refer: 509 714 N 1 0 0 1 397 31 2
Refer: 68 99 N 1 0 0 1 0 0 3
Validated: 1
EndChar

StartChar: uni0108
Encoding: 264 264 200
Width: 1150
Flags: W
HStem: 1266 336
VStem: 401 607
LayerCount: 2
Back
SplineSet
755.712 1601.54 m 1x14
 948.224 1269.76 l 1
 894.976 1269.76 l 1
 704.512 1447.94 l 1
 514.048 1269.76 l 1
 460.8 1269.76 l 1
 653.312 1601.54 l 1
 755.712 1601.54 l 1x14
708.608 1148.93 m 0xc9
 475.136 1148.93 299.008 937.984 299.008 626.688 c 0
 299.008 245.76 503.808 49.1523 716.8 49.1523 c 0
 860.16 49.1523 1011.71 169.984 1048.58 270.336 c 1
 1097.73 245.76 l 1
 1046.53 122.88 927.744 -20.4805 675.84 -20.4805 c 0
 294.912 -20.4805 86.0156 270.336 86.0156 581.632 c 0
 86.0156 978.944 385.024 1218.56 706.561 1218.56 c 0xc9
 811.008 1218.56 894.976 1157.12 933.888 1157.12 c 0
 948.224 1157.12 958.464 1173.5 958.464 1198.08 c 1
 1005.57 1198.08 l 1xaa
 1026.05 937.984 l 1
 980.992 937.984 l 1
 964.608 1050.62 884.736 1148.93 708.608 1148.93 c 0xc9
EndSplineSet
Fore
Refer: 549 770 N 1 0 0 1 1225 246 2
Refer: 36 67 N 1 0 0 1 0 0 3
Validated: 1
EndChar

StartChar: uni0109
Encoding: 265 265 201
Width: 980
Flags: W
HStem: 1050 336
VStem: 242 607
LayerCount: 2
Back
SplineSet
598.016 1386.5 m 1x14
 790.528 1054.72 l 1
 737.28 1054.72 l 1
 546.816 1232.9 l 1
 356.352 1054.72 l 1
 303.104 1054.72 l 1
 495.616 1386.5 l 1
 598.016 1386.5 l 1x14
557.056 860.16 m 0xea
 391.168 860.16 274.432 724.992 274.432 503.808 c 0
 274.432 270.336 428.032 57.3438 591.872 57.3438 c 0
 710.656 57.3438 796.672 90.1123 878.592 192.512 c 1
 927.744 167.936 l 1
 849.92 40.96 735.232 -20.4805 522.24 -20.4805 c 0
 333.824 -20.4805 79.8721 81.9199 79.8721 495.616 c 0
 79.8721 724.992 253.952 921.6 536.576 921.6 c 0
 751.616 921.6 874.496 847.872 874.496 704.512 c 0
 874.496 643.072 839.68 602.112 786.432 602.112 c 0
 743.424 602.112 694.272 622.592 694.272 673.792 c 0
 694.272 737.28 733.184 757.76 765.952 757.76 c 1
 745.472 837.632 663.552 860.16 557.056 860.16 c 0xea
EndSplineSet
Fore
Refer: 549 770 N 1 0 0 1 1066 30 2
Refer: 68 99 N 1 0 0 1 0 0 3
Validated: 1
EndChar

StartChar: uni010A
Encoding: 266 266 202
Width: 1150
Flags: MW
LayerCount: 2
Back
SplineSet
600.064 1376.26 m 0x14
 600.064 1433.6 647.168 1480.7 704.512 1480.7 c 0
 761.856 1480.7 808.96 1433.6 808.96 1376.26 c 0
 808.96 1318.91 761.856 1271.81 704.512 1271.81 c 0
 647.168 1271.81 600.064 1318.91 600.064 1376.26 c 0x14
708.608 1148.93 m 0xc9
 475.136 1148.93 299.008 937.984 299.008 626.688 c 0
 299.008 245.76 503.808 49.1523 716.8 49.1523 c 0
 860.16 49.1523 1011.71 169.984 1048.58 270.336 c 1
 1097.73 245.76 l 1
 1046.53 122.88 927.744 -20.4805 675.84 -20.4805 c 0
 294.912 -20.4805 86.0156 270.336 86.0156 581.632 c 0
 86.0156 978.944 385.024 1218.56 706.561 1218.56 c 0xc9
 811.008 1218.56 894.976 1157.12 933.888 1157.12 c 0
 948.224 1157.12 958.464 1173.5 958.464 1198.08 c 1
 1005.57 1198.08 l 1xaa
 1026.05 937.984 l 1
 980.992 937.984 l 1
 964.608 1050.62 884.736 1148.93 708.608 1148.93 c 0xc9
EndSplineSet
Fore
Refer: 524 729 N 1 0 0 1 481 246 2
Refer: 36 67 N 1 0 0 1 0 0 3
Validated: 1
EndChar

StartChar: uni010B
Encoding: 267 267 203
Width: 980
Flags: MW
LayerCount: 2
Back
SplineSet
442.368 1161.22 m 0
 442.368 1218.56 489.472 1265.66 546.816 1265.66 c 0
 604.16 1265.66 651.264 1218.56 651.264 1161.22 c 0
 651.264 1103.87 604.16 1056.77 546.816 1056.77 c 0
 489.472 1056.77 442.368 1103.87 442.368 1161.22 c 0
557.056 860.16 m 0
 391.168 860.16 274.432 724.992 274.432 503.808 c 0
 274.432 270.336 428.032 57.3438 591.872 57.3438 c 0
 710.656 57.3438 796.672 90.1123 878.592 192.512 c 1
 927.744 167.936 l 1
 849.92 40.96 735.232 -20.4805 522.24 -20.4805 c 0
 333.824 -20.4805 79.8721 81.9199 79.8721 495.616 c 0
 79.8721 724.992 253.952 921.6 536.576 921.6 c 0
 751.616 921.6 874.496 847.872 874.496 704.512 c 0
 874.496 643.072 839.68 602.112 786.432 602.112 c 0
 743.424 602.112 694.272 622.592 694.272 673.792 c 0
 694.272 737.28 733.184 757.76 765.952 757.76 c 1
 745.472 837.632 663.552 860.16 557.056 860.16 c 0
EndSplineSet
Fore
Refer: 524 729 N 1 0 0 1 324 31 2
Refer: 68 99 N 1 0 0 1 0 0 3
Validated: 1
EndChar

StartChar: uni010C
Encoding: 268 268 204
Width: 1150
Flags: MW
LayerCount: 2
Back
SplineSet
655.36 1269.76 m 1x14
 462.848 1601.54 l 1
 516.096 1601.54 l 1
 706.561 1423.36 l 1
 897.024 1601.54 l 1
 950.272 1601.54 l 1
 757.76 1269.76 l 1
 655.36 1269.76 l 1x14
708.608 1148.93 m 0xc9
 475.136 1148.93 299.008 937.984 299.008 626.688 c 0
 299.008 245.76 503.808 49.1523 716.8 49.1523 c 0
 860.16 49.1523 1011.71 169.984 1048.58 270.336 c 1
 1097.73 245.76 l 1
 1046.53 122.88 927.744 -20.4805 675.84 -20.4805 c 0
 294.912 -20.4805 86.0156 270.336 86.0156 581.632 c 0
 86.0156 978.944 385.024 1218.56 706.561 1218.56 c 0xc9
 811.008 1218.56 894.976 1157.12 933.888 1157.12 c 0
 948.224 1157.12 958.464 1173.5 958.464 1198.08 c 1
 1005.57 1198.08 l 1xaa
 1026.05 937.984 l 1
 980.992 937.984 l 1
 964.608 1050.62 884.736 1148.93 708.608 1148.93 c 0xc9
EndSplineSet
Fore
Refer: 506 711 S 1 0 0 1 340 246 2
Refer: 36 67 N 1 0 0 1 0 0 3
Validated: 1
EndChar

